{"accessors" : [{"bufferView" : 0, "byteOffset" : 0, "componentType" : 5123, "count" : 3072, "type" : "SCALAR", "max" : [3071], "min" : [0]}, {"bufferView" : 1, "byteOffset" : 0, "componentType" : 5126, "count" : 3072, "type" : "VEC3", "max" : [2.999580144882202, 0.75, 0.33000001311302185], "min" : [-2.999580144882202, -0.75, -1.6602355241775513], "name" : "POSITION"}, {"bufferView" : 1, "byteOffset" : 12, "componentType" : 5126, "count" : 3072, "type" : "VEC3", "max" : [0.9983254075050354, 1.0000044107437134, 1.0000044107437134], "min" : [-0.9983254075050354, -1.0000044107437134, -1.0000044107437134], "name" : "NORMAL"}, {"bufferView" : 1, "byteOffset" : 24, "componentType" : 5126, "count" : 3072, "type" : "VEC2", "max" : [1.6541272401809692, 3.9989418983459473], "min" : [-3.5541272163391113, -4.059168338775635], "name" : "TEXCOORD_0"}, {"bufferView" : 0, "byteOffset" : 6144, "componentType" : 5123, "count" : 1020, "type" : "SCALAR", "max" : [1019], "min" : [0]}, {"bufferView" : 2, "byteOffset" : 0, "componentType" : 5126, "count" : 1020, "type" : "VEC3", "max" : [2.9977200031280518, 0.7069866061210632, 0.6953884959220886], "min" : [-3.001610279083252, -0.28479018807411194, -0.007863825187087059], "name" : "POSITION"}, {"bufferView" : 2, "byteOffset" : 12, "componentType" : 5126, "count" : 1020, "type" : "VEC3", "max" : [0.9999761581420898, 0.9848120808601379, 0.984813392162323], "min" : [-0.9999783039093018, -0.9848120808601379, -0.984813392162323], "name" : "NORMAL"}, {"bufferView" : 2, "byteOffset" : 24, "componentType" : 5126, "count" : 1020, "type" : "VEC2", "max" : [1.5, 3.9989418983459473], "min" : [-1.5, -1.9989418983459473], "name" : "TEXCOORD_0"}, {"bufferView" : 0, "byteOffset" : 8184, "componentType" : 5123, "count" : 49515, "type" : "SCALAR", "max" : [49514], "min" : [0]}, {"bufferView" : 3, "byteOffset" : 0, "componentType" : 5126, "count" : 49515, "type" : "VEC3", "max" : [3, 2, 5], "min" : [-3, 0, -5.737258554218796E-16], "name" : "POSITION"}, {"bufferView" : 3, "byteOffset" : 12, "componentType" : 5126, "count" : 49515, "type" : "VEC3", "max" : [1.0000044107437134, 1.0000044107437134, 1.0000044107437134], "min" : [-1.0000044107437134, -1.0000044107437134, -1.0000044107437134], "name" : "NORMAL"}, {"bufferView" : 3, "byteOffset" : 24, "componentType" : 5126, "count" : 49515, "type" : "VEC2", "max" : [5.800000190734863, 12.956378936767578], "min" : [-5.0771331787109375, -9.526676177978516], "name" : "TEXCOORD_0"}, {"bufferView" : 0, "byteOffset" : 107216, "componentType" : 5123, "count" : 564, "type" : "SCALAR", "max" : [563], "min" : [0]}, {"bufferView" : 4, "byteOffset" : 0, "componentType" : 5126, "count" : 564, "type" : "VEC3", "max" : [0.15000000596046448, 0.15000000596046448, 6.599999904632568], "min" : [-0.15000000596046448, -0.15000000596046448, 0], "name" : "POSITION"}, {"bufferView" : 4, "byteOffset" : 12, "componentType" : 5126, "count" : 564, "type" : "VEC3", "max" : [1.0000044107437134, 1.0000044107437134, 1.0000044107437134], "min" : [-1.0000044107437134, -1.0000044107437134, -1.0000044107437134], "name" : "NORMAL"}, {"bufferView" : 4, "byteOffset" : 24, "componentType" : 5126, "count" : 564, "type" : "VEC2", "max" : [0.15000000596046448, 1.4242719411849976], "min" : [-6.599999904632568, 0.5757280588150024], "name" : "TEXCOORD_0"}, {"bufferView" : 0, "byteOffset" : 108344, "componentType" : 5123, "count" : 5616, "type" : "SCALAR", "max" : [5615], "min" : [0]}, {"bufferView" : 5, "byteOffset" : 0, "componentType" : 5126, "count" : 5616, "type" : "VEC3", "max" : [1.5, 1.600000023841858, 1.5], "min" : [-1.5, 0, -1.5], "name" : "POSITION"}, {"bufferView" : 5, "byteOffset" : 12, "componentType" : 5126, "count" : 5616, "type" : "VEC3", "max" : [1.0000044107437134, 1.0000044107437134, 1.0000044107437134], "min" : [-1.0000044107437134, -1.0000044107437134, -1.0000044107437134], "name" : "NORMAL"}, {"bufferView" : 5, "byteOffset" : 24, "componentType" : 5126, "count" : 5616, "type" : "VEC2", "max" : [1.5, 5.242719650268555], "min" : [-1.5, -3.2427196502685547], "name" : "TEXCOORD_0"}, {"bufferView" : 0, "byteOffset" : 119576, "componentType" : 5123, "count" : 2568, "type" : "SCALAR", "max" : [2567], "min" : [0]}, {"bufferView" : 6, "byteOffset" : 0, "componentType" : 5126, "count" : 2568, "type" : "VEC3", "max" : [1.6549999713897705, 12.008546829223633, 4.309999942779541], "min" : [-1.6549999713897705, 0, 2.6500000953674316], "name" : "POSITION"}, {"bufferView" : 6, "byteOffset" : 12, "componentType" : 5126, "count" : 2568, "type" : "VEC3", "max" : [1.0000044107437134, 1.0000044107437134, 1.0000044107437134], "min" : [-1.0000044107437134, -1.0000044107437134, -1.0000044107437134], "name" : "NORMAL"}, {"bufferView" : 6, "byteOffset" : 24, "componentType" : 5126, "count" : 2568, "type" : "VEC2", "max" : [2.6549999713897705, 8.449999809265137], "min" : [-6, -5.233600616455078], "name" : "TEXCOORD_0"}, {"bufferView" : 0, "byteOffset" : 124712, "componentType" : 5123, "count" : 1704, "type" : "SCALAR", "max" : [1703], "min" : [0]}, {"bufferView" : 7, "byteOffset" : 0, "componentType" : 5126, "count" : 1704, "type" : "VEC3", "max" : [2.1549999713897705, 5.130000114440918, 1.631500005722046], "min" : [1.6549999713897705, 3.9000000953674316, 0.40149998664855957], "name" : "POSITION"}, {"bufferView" : 7, "byteOffset" : 12, "componentType" : 5126, "count" : 1704, "type" : "VEC3", "max" : [1.0000044107437134, 1.0000044107437134, 1.0000044107437134], "min" : [-1.0000044107437134, -1.0000044107437134, -1.0000044107437134], "name" : "NORMAL"}, {"bufferView" : 7, "byteOffset" : 24, "componentType" : 5126, "count" : 1704, "type" : "VEC2", "max" : [0.6150000095367432, 2.7395150661468506], "min" : [-0.6150000095367432, -0.7395150661468506], "name" : "TEXCOORD_0"}, {"bufferView" : 0, "byteOffset" : 128120, "componentType" : 5123, "count" : 1704, "type" : "SCALAR", "max" : [1703], "min" : [0]}, {"bufferView" : 8, "byteOffset" : 0, "componentType" : 5126, "count" : 1704, "type" : "VEC3", "max" : [2.1549999713897705, 13.65999984741211, 1.631500005722046], "min" : [1.6549999713897705, 12.430000305175781, 0.40149998664855957], "name" : "POSITION"}, {"bufferView" : 8, "byteOffset" : 12, "componentType" : 5126, "count" : 1704, "type" : "VEC3", "max" : [1.0000044107437134, 1.0000044107437134, 1.0000044107437134], "min" : [-1.0000044107437134, -1.0000044107437134, -1.0000044107437134], "name" : "NORMAL"}, {"bufferView" : 8, "byteOffset" : 24, "componentType" : 5126, "count" : 1704, "type" : "VEC2", "max" : [0.6150000095367432, 2.7395150661468506], "min" : [-0.6150000095367432, -0.7395150661468506], "name" : "TEXCOORD_0"}, {"bufferView" : 0, "byteOffset" : 131528, "componentType" : 5123, "count" : 1704, "type" : "SCALAR", "max" : [1703], "min" : [0]}, {"bufferView" : 9, "byteOffset" : 0, "componentType" : 5126, "count" : 1704, "type" : "VEC3", "max" : [-1.6549999713897705, 5.130000114440918, 1.631500005722046], "min" : [-2.1549999713897705, 3.9000000953674316, 0.40149998664855957], "name" : "POSITION"}, {"bufferView" : 9, "byteOffset" : 12, "componentType" : 5126, "count" : 1704, "type" : "VEC3", "max" : [1.0000044107437134, 1.0000044107437134, 1.0000044107437134], "min" : [-1.0000044107437134, -1.0000044107437134, -1.0000044107437134], "name" : "NORMAL"}, {"bufferView" : 9, "byteOffset" : 24, "componentType" : 5126, "count" : 1704, "type" : "VEC2", "max" : [0.6150000095367432, 2.7395150661468506], "min" : [-0.6150000095367432, -0.7395150661468506], "name" : "TEXCOORD_0"}, {"bufferView" : 0, "byteOffset" : 134936, "componentType" : 5123, "count" : 1704, "type" : "SCALAR", "max" : [1703], "min" : [0]}, {"bufferView" : 10, "byteOffset" : 0, "componentType" : 5126, "count" : 1704, "type" : "VEC3", "max" : [-1.6549999713897705, 13.65999984741211, 1.631500005722046], "min" : [-2.1549999713897705, 12.430000305175781, 0.40149998664855957], "name" : "POSITION"}, {"bufferView" : 10, "byteOffset" : 12, "componentType" : 5126, "count" : 1704, "type" : "VEC3", "max" : [1.0000044107437134, 1.0000044107437134, 1.0000044107437134], "min" : [-1.0000044107437134, -1.0000044107437134, -1.0000044107437134], "name" : "NORMAL"}, {"bufferView" : 10, "byteOffset" : 24, "componentType" : 5126, "count" : 1704, "type" : "VEC2", "max" : [0.6150000095367432, 2.7395150661468506], "min" : [-0.6150000095367432, -0.7395150661468506], "name" : "TEXCOORD_0"}, {"bufferView" : 0, "byteOffset" : 138344, "componentType" : 5123, "count" : 4230, "type" : "SCALAR", "max" : [4229], "min" : [0]}, {"bufferView" : 11, "byteOffset" : 0, "componentType" : 5126, "count" : 4230, "type" : "VEC3", "max" : [3.1549999713897705, 14.899999618530273, 2.6500000953674316], "min" : [-3.1549999713897705, 6, -3.78350940462009E-15], "name" : "POSITION"}, {"bufferView" : 11, "byteOffset" : 12, "componentType" : 5126, "count" : 4230, "type" : "VEC3", "max" : [1.0000044107437134, 1.0000044107437134, 1.0000044107437134], "min" : [-1.0000044107437134, -1.0000044107437134, -1.0000044107437134], "name" : "NORMAL"}, {"bufferView" : 11, "byteOffset" : 24, "componentType" : 5126, "count" : 4230, "type" : "VEC2", "max" : [4.110000133514404, 80.83960723876953], "min" : [-3.481001377105713, -13], "name" : "TEXCOORD_0"}, {"bufferView" : 0, "byteOffset" : 146804, "componentType" : 5123, "count" : 1434, "type" : "SCALAR", "max" : [1433], "min" : [0]}, {"bufferView" : 12, "byteOffset" : 0, "componentType" : 5126, "count" : 1434, "type" : "VEC3", "max" : [1.6549999713897705, 6, 2.6500000953674316], "min" : [-1.6549999713897705, 0, 0], "name" : "POSITION"}, {"bufferView" : 12, "byteOffset" : 12, "componentType" : 5126, "count" : 1434, "type" : "VEC3", "max" : [1.0000044107437134, 1.0000044107437134, 1.0000044107437134], "min" : [-1.0000044107437134, -1.0000044107437134, -1.0000044107437134], "name" : "NORMAL"}, {"bufferView" : 12, "byteOffset" : 24, "componentType" : 5126, "count" : 1434, "type" : "VEC2", "max" : [3.309999942779541, 8.449999809265137], "min" : [-2.5999999046325684, -5], "name" : "TEXCOORD_0"}], "asset" : {"generator" : "Aspose.3D 24.4.1", "version" : "2.0"}, "buffers" : [{"uri" : "data:application/octet-stream;base64,", "byteLength" : 2544444}], "bufferViews" : [{"buffer" : 0, "byteOffset" : 0, "byteLength" : 149672, "target" : 34963}, {"buffer" : 0, "byteOffset" : 149676, "byteLength" : 98304, "byteStride" : 32, "target" : 34962}, {"buffer" : 0, "byteOffset" : 247984, "byteLength" : 32640, "byteStride" : 32, "target" : 34962}, {"buffer" : 0, "byteOffset" : 280628, "byteLength" : 1584480, "byteStride" : 32, "target" : 34962}, {"buffer" : 0, "byteOffset" : 1865112, "byteLength" : 18048, "byteStride" : 32, "target" : 34962}, {"buffer" : 0, "byteOffset" : 1883164, "byteLength" : 179712, "byteStride" : 32, "target" : 34962}, {"buffer" : 0, "byteOffset" : 2062880, "byteLength" : 82176, "byteStride" : 32, "target" : 34962}, {"buffer" : 0, "byteOffset" : 2145060, "byteLength" : 54528, "byteStride" : 32, "target" : 34962}, {"buffer" : 0, "byteOffset" : 2199592, "byteLength" : 54528, "byteStride" : 32, "target" : 34962}, {"buffer" : 0, "byteOffset" : 2254124, "byteLength" : 54528, "byteStride" : 32, "target" : 34962}, {"buffer" : 0, "byteOffset" : 2308656, "byteLength" : 54528, "byteStride" : 32, "target" : 34962}, {"buffer" : 0, "byteOffset" : 2363188, "byteLength" : 135360, "byteStride" : 32, "target" : 34962}, {"buffer" : 0, "byteOffset" : 2498552, "byteLength" : 45888, "byteStride" : 32, "target" : 34962}], "materials" : [{"name" : "Tough 2000 (with Formlabs SLA 3D Printers)", "pbrMetallicRoughness" : {"baseColorFactor" : [0.24705882352941178, 0.24705882352941178, 0.24705882352941178, 1], "metallicFactor" : 1, "roughnessFactor" : 1}, "emissiveFactor" : [0, 0, 0], "alphaMode" : "OPAQUE", "doubleSided" : false}, {"name" : "Tough 2000 (with Formlabs SLA 3D Printers)", "pbrMetallicRoughness" : {"baseColorFactor" : [0.24705882352941178, 0.24705882352941178, 0.24705882352941178, 1], "metallicFactor" : 1, "roughnessFactor" : 1}, "emissiveFactor" : [0, 0, 0], "alphaMode" : "OPAQUE", "doubleSided" : false}, {"name" : "PA 11 - Nylon- HP 11-30 (with EOS P 396 3D Printer)", "pbrMetallicRoughness" : {"baseColorFactor" : [0.24705882352941178, 0.24705882352941178, 0.24705882352941178, 1], "metallicFactor" : 1, "roughnessFactor" : 1}, "emissiveFactor" : [0, 0, 0], "alphaMode" : "OPAQUE", "doubleSided" : false}, {"name" : "Plastic - Glossy (Black)", "pbrMetallicRoughness" : {"baseColorFactor" : [0.09803921568627451, 0.09803921568627451, 0.09803921568627451, 1], "metallicFactor" : 1, "roughnessFactor" : 1}, "emissiveFactor" : [0, 0, 0], "alphaMode" : "OPAQUE", "doubleSided" : false}, {"name" : "Plastic - Glossy (Black)", "pbrMetallicRoughness" : {"baseColorFactor" : [0.09803921568627451, 0.09803921568627451, 0.09803921568627451, 1], "metallicFactor" : 1, "roughnessFactor" : 1}, "emissiveFactor" : [0, 0, 0], "alphaMode" : "OPAQUE", "doubleSided" : false}, {"name" : "Surface - Matte", "pbrMetallicRoughness" : {"baseColorFactor" : [1, 1, 1, 1], "metallicFactor" : 1, "roughnessFactor" : 1}, "emissiveFactor" : [0, 0, 0], "alphaMode" : "OPAQUE", "doubleSided" : false}, {"name" : "Surface - Matte", "pbrMetallicRoughness" : {"baseColorFactor" : [1, 1, 1, 1], "metallicFactor" : 1, "roughnessFactor" : 1}, "emissiveFactor" : [0, 0, 0], "alphaMode" : "OPAQUE", "doubleSided" : false}, {"name" : "Surface - Matte", "pbrMetallicRoughness" : {"baseColorFactor" : [1, 1, 1, 1], "metallicFactor" : 1, "roughnessFactor" : 1}, "emissiveFactor" : [0, 0, 0], "alphaMode" : "OPAQUE", "doubleSided" : false}, {"name" : "Surface - Matte", "pbrMetallicRoughness" : {"baseColorFactor" : [1, 1, 1, 1], "metallicFactor" : 1, "roughnessFactor" : 1}, "emissiveFactor" : [0, 0, 0], "alphaMode" : "OPAQUE", "doubleSided" : false}, {"name" : "Surface - Matte", "pbrMetallicRoughness" : {"baseColorFactor" : [1, 1, 1, 1], "metallicFactor" : 1, "roughnessFactor" : 1}, "emissiveFactor" : [0, 0, 0], "alphaMode" : "OPAQUE", "doubleSided" : false}, {"name" : "Tough 2000 (with Formlabs SLA 3D Printers)", "pbrMetallicRoughness" : {"baseColorFactor" : [0.24705882352941178, 0.24705882352941178, 0.24705882352941178, 1], "metallicFactor" : 1, "roughnessFactor" : 1}, "emissiveFactor" : [0, 0, 0], "alphaMode" : "OPAQUE", "doubleSided" : false}, {"name" : "Plastic - Translucent Matte (White)", "pbrMetallicRoughness" : {"baseColorFactor" : [0.4, 0, 1, 1], "metallicFactor" : 1, "roughnessFactor" : 1}, "emissiveFactor" : [0, 0, 0], "alphaMode" : "OPAQUE", "doubleSided" : false}], "meshes" : [{"primitives" : [{"attributes" : {"POSITION" : 1, "NORMAL" : 2, "TEXCOORD_0" : 3}, "indices" : 0, "material" : 0, "mode" : 4}], "name" : "Alern"}, {"primitives" : [{"attributes" : {"POSITION" : 5, "NORMAL" : 6, "TEXCOORD_0" : 7}, "indices" : 4, "material" : 1, "mode" : 4}], "name" : "Alern (1)"}, {"primitives" : [{"attributes" : {"POSITION" : 9, "NORMAL" : 10, "TEXCOORD_0" : 11}, "indices" : 8, "material" : 2, "mode" : 4}], "name" : "Body1"}, {"primitives" : [{"attributes" : {"POSITION" : 13, "NORMAL" : 14, "TEXCOORD_0" : 15}, "indices" : 12, "material" : 3, "mode" : 4}], "name" : "Body1"}, {"primitives" : [{"attributes" : {"POSITION" : 17, "NORMAL" : 18, "TEXCOORD_0" : 19}, "indices" : 16, "material" : 4, "mode" : 4}], "name" : "Body1"}, {"primitives" : [{"attributes" : {"POSITION" : 21, "NORMAL" : 22, "TEXCOORD_0" : 23}, "indices" : 20, "material" : 5, "mode" : 4}], "name" : "Body1"}, {"primitives" : [{"attributes" : {"POSITION" : 25, "NORMAL" : 26, "TEXCOORD_0" : 27}, "indices" : 24, "material" : 6, "mode" : 4}], "name" : "Body2"}, {"primitives" : [{"attributes" : {"POSITION" : 29, "NORMAL" : 30, "TEXCOORD_0" : 31}, "indices" : 28, "material" : 7, "mode" : 4}], "name" : "Body3"}, {"primitives" : [{"attributes" : {"POSITION" : 33, "NORMAL" : 34, "TEXCOORD_0" : 35}, "indices" : 32, "material" : 8, "mode" : 4}], "name" : "Body4"}, {"primitives" : [{"attributes" : {"POSITION" : 37, "NORMAL" : 38, "TEXCOORD_0" : 39}, "indices" : 36, "material" : 9, "mode" : 4}], "name" : "Body5"}, {"primitives" : [{"attributes" : {"POSITION" : 41, "NORMAL" : 42, "TEXCOORD_0" : 43}, "indices" : 40, "material" : 10, "mode" : 4}], "name" : "Body6"}, {"primitives" : [{"attributes" : {"POSITION" : 45, "NORMAL" : 46, "TEXCOORD_0" : 47}, "indices" : 44, "material" : 11, "mode" : 4}], "name" : "Body7"}], "nodes" : [{"matrix" : [10, 0, 0, 0, 0, 10, 0, 0, 0, 0, 10, 0, 0, 0, 0, 1], "mesh" : 0, "name" : "Alern"}, {"matrix" : [10, 0, 0, 0, 0, 10, 0, 0, 0, 0, 10, 0, 0, 0, 0, 1], "mesh" : 1, "name" : "Alern (1)"}, {"children" : [0, 1], "name" : "Rear Wing v4"}, {"children" : [2], "matrix" : [-1.0000000000000007, 1.0106430996148612E-15, 1.6155871338926325E-27, 0, -1.0106430996148612E-15, -1.0000000000000007, 2.2420775429197105E-43, 0, 1.6155871338926316E-27, -1.408574234403167E-42, 1, 0, 4.4880765770475184E-14, 13.000000000000014, 44.6, 1], "name" : "Rear Wing v4:1"}, {"matrix" : [10, 0, 0, 0, 0, 10, 0, 0, 0, 0, 10, 0, 0, 0, 0, 1], "mesh" : 2, "name" : "Body1"}, {"children" : [4], "name" : "FRONTWING FINAL v5"}, {"children" : [5], "matrix" : [-1, 5.66553889764798E-16, 1.2705494427230366E-21, 0, 1.2705494365241347E-21, -1.094141798128391E-14, 1.0000000000000007, 0, 5.665538897647983E-16, 1.0000000000000004, 1.0941417981283906E-14, 0, -5.974930907606791E-05, 140.0127557939823, -0.012755793982688335, 1], "name" : "FRONTWING FINAL v5:1"}, {"matrix" : [10, 0, 0, 0, 0, 10, 0, 0, 0, 0, 10, 0, 0, 0, 0, 1], "mesh" : 3, "name" : "Body1"}, {"children" : [7], "name" : "Wheel Axle v1"}, {"children" : [8], "matrix" : [2.8327694488239923E-16, 0, 1.0000000000000009, 0, 0, 1, 0, 0, -1.0000000000000009, 0, 2.8327694488239923E-16, 0, 33.050000000000026, 45.15, 10.165000000000015, 1], "name" : "Wheel Axle v1:1"}, {"matrix" : [10, 0, 0, 0, 0, 10, 0, 0, 0, 0, 10, 0, 0, 0, 0, 1], "mesh" : 3, "name" : "Body1"}, {"children" : [10], "name" : "Wheel Axle v1"}, {"children" : [11], "matrix" : [2.8327694488239923E-16, 0, 1.0000000000000009, 0, 0, 1, 0, 0, -1.0000000000000009, 0, 2.8327694488239923E-16, 0, 33.05000000000002, 130.45000000000002, 10.165000000000015, 1], "name" : "Wheel Axle v1:2"}, {"matrix" : [10, 0, 0, 0, 0, 10, 0, 0, 0, 0, 10, 0, 0, 0, 0, 1], "mesh" : 4, "name" : "Body1"}, {"children" : [13], "name" : "Wheel v1"}, {"children" : [14], "matrix" : [2.83276944882399E-16, -1, 6.123233995736764E-17, 0, -1, -2.83276944882399E-16, 1.2246467991473532E-16, 0, -1.224646799147353E-16, -6.123233995736767E-17, -1, 0, 37.05000000000001, 45.15, 10.165000000000015, 1], "name" : "Wheel v1:1"}, {"matrix" : [10, 0, 0, 0, 0, 10, 0, 0, 0, 0, 10, 0, 0, 0, 0, 1], "mesh" : 4, "name" : "Body1"}, {"children" : [16], "name" : "Wheel v1"}, {"children" : [17], "matrix" : [2.83276944882399E-16, -1, 6.123233995736764E-17, 0, -1, -2.83276944882399E-16, 1.2246467991473532E-16, 0, -1.224646799147353E-16, -6.123233995736767E-17, -1, 0, 37.050000000000004, 130.45000000000002, 10.165000000000015, 1], "name" : "Wheel v1:2"}, {"matrix" : [10, 0, 0, 0, 0, 10, 0, 0, 0, 0, 10, 0, 0, 0, 0, 1], "mesh" : 4, "name" : "Body1"}, {"children" : [19], "name" : "Wheel v1"}, {"children" : [20], "matrix" : [2.83276944882399E-16, 1, 6.123233995736764E-17, 0, 1, -2.83276944882399E-16, -1.2246467991473532E-16, 0, -1.224646799147353E-16, 6.123233995736767E-17, -1, 0, -36.95000000000006, 130.45000000000002, 10.165000000000024, 1], "name" : "Wheel v1:3"}, {"matrix" : [10, 0, 0, 0, 0, 10, 0, 0, 0, 0, 10, 0, 0, 0, 0, 1], "mesh" : 4, "name" : "Body1"}, {"children" : [22], "name" : "Wheel v1"}, {"children" : [23], "matrix" : [2.83276944882399E-16, -1, 6.123233995736765E-17, 0, 1, 2.83276944882399E-16, -1.341659244260013E-16, 0, 1.3416592442600128E-16, 6.123233995736769E-17, 1, 0, -36.95000000000006, 45.15, 10.165000000000024, 1], "name" : "Wheel v1:4"}, {"matrix" : [10, 0, 0, 0, 0, 10, 0, 0, 0, 0, 10, 0, 0, 0, 0, 1], "mesh" : 5, "name" : "Body1"}, {"matrix" : [10, 0, 0, 0, 0, 10, 0, 0, 0, 0, 10, 0, 0, 0, 0, 1], "mesh" : 6, "name" : "Body2"}, {"matrix" : [10, 0, 0, 0, 0, 10, 0, 0, 0, 0, 10, 0, 0, 0, 0, 1], "mesh" : 7, "name" : "Body3"}, {"matrix" : [10, 0, 0, 0, 0, 10, 0, 0, 0, 0, 10, 0, 0, 0, 0, 1], "mesh" : 8, "name" : "Body4"}, {"matrix" : [10, 0, 0, 0, 0, 10, 0, 0, 0, 0, 10, 0, 0, 0, 0, 1], "mesh" : 9, "name" : "Body5"}, {"matrix" : [10, 0, 0, 0, 0, 10, 0, 0, 0, 0, 10, 0, 0, 0, 0, 1], "mesh" : 10, "name" : "Body6"}, {"matrix" : [10, 0, 0, 0, 0, 10, 0, 0, 0, 0, 10, 0, 0, 0, 0, 1], "mesh" : 11, "name" : "Body7"}, {"children" : [3, 6, 9, 12, 15, 18, 21, 24, 25, 26, 27, 28, 29, 30, 31], "name" : "NN2024 v12"}], "scene" : 0, "scenes" : [{"nodes" : [32]}]}