<svg width="58" height="59" viewBox="0 0 58 59" fill="none" xmlns="http://www.w3.org/2000/svg">
<path d="M58 29.4405C58 13.3656 45.0161 0.333984 29 0.333984C12.9839 0.333984 0 13.3656 0 29.4405C0 43.0903 9.36352 54.5443 21.9948 57.6901V38.3355H16.015V29.4405H21.9948V25.6078C21.9948 15.7011 26.4619 11.1092 36.1526 11.1092C37.99 11.1092 41.1603 11.4713 42.4572 11.8322V19.8947C41.7728 19.8226 40.5838 19.7865 39.1071 19.7865C34.3522 19.7865 32.5148 21.5946 32.5148 26.2947V29.4405H41.9874L40.3599 38.3355H32.5148V58.334C46.8721 56.5934 58 44.3221 58 29.4405Z" fill="white"/>
</svg>
