<svg width="60" height="61" viewBox="0 0 60 61" fill="none" xmlns="http://www.w3.org/2000/svg">
<path d="M30.0683 0.333984H29.9317C13.4009 0.333984 0 13.7349 0 30.2657V30.4023C0 46.9331 13.4009 60.334 29.9317 60.334H30.0683C46.5991 60.334 60 46.9331 60 30.4023V30.2657C60 13.7349 46.5991 0.333984 30.0683 0.333984Z" fill="white"/>
<path d="M39.2849 12.5381H20.7192C15.5901 12.5381 11.4175 16.7107 11.4175 21.8398V38.8248C11.4175 43.9539 15.5901 48.1265 20.7192 48.1265H39.2849C44.414 48.1265 48.5866 43.9539 48.5866 38.8248V21.8398C48.5866 16.7107 44.414 12.5381 39.2849 12.5381ZM14.6988 21.8398C14.6988 18.5206 17.4 15.8195 20.7192 15.8195H39.2849C42.6041 15.8195 45.3053 18.5206 45.3053 21.8398V38.8248C45.3053 42.144 42.6041 44.8451 39.2849 44.8451H20.7192C17.4 44.8451 14.6988 42.144 14.6988 38.8248V21.8398Z" fill="#6600FF" stroke="#6600FF"/>
<path d="M38.1536 30.3309C38.1536 34.8265 34.4949 38.4832 30.0013 38.4832C25.5057 38.4832 21.8491 34.8265 21.8491 30.3309C21.8491 25.8353 25.5057 22.1787 30.0013 22.1787C34.497 22.1787 38.1536 25.8353 38.1536 30.3309ZM35.8722 30.333C35.8722 27.095 33.2393 24.4622 30.0013 24.4622C26.7634 24.4622 24.1305 27.095 24.1305 30.333C24.1305 33.571 26.7634 36.2039 30.0013 36.2039C33.2393 36.2039 35.8722 33.571 35.8722 30.333Z" fill="#6600FF" stroke="#6600FF"/>
<path d="M39.4562 23.0819C40.7406 23.0819 41.7874 22.0371 41.7874 20.7507C41.7874 19.4642 40.7427 18.4194 39.4562 18.4194C38.1697 18.4194 37.125 19.4642 37.125 20.7507C37.125 22.0371 38.1697 23.0819 39.4562 23.0819Z" fill="#6600FF"/>
</svg>
