<?xml version="1.0" encoding="utf-8"?>
<!-- Generator: Adobe Illustrator 28.0.0, SVG Export Plug-In . SVG Version: 6.00 Build 0)  -->
<svg version="1.1" id="Layer_1" xmlns="http://www.w3.org/2000/svg" xmlns:xlink="http://www.w3.org/1999/xlink" x="0px" y="0px"
	 viewBox="0 0 500 500" style="enable-background:new 0 0 500 500;" xml:space="preserve">
<style type="text/css">
	.st0{fill:#EDE7E0;}
	.st1{fill:#7800FF;}
	.st2{fill:#FF1E00;}
</style>
<g>
	<g>
		<polygon class="st1" points="407.14,285.77 407.14,320.82 399.76,326.3 397.31,328.12 394.84,326.29 387.5,320.84 387.5,285.75 
			394.84,280.3 397.31,278.47 399.76,280.29 		"/>
		<polygon class="st1" points="465.26,159.32 454.17,187.88 447.51,205.03 413.52,230.28 411.12,232.05 397.32,218.25 
			423.98,198.45 423.98,198.44 460.01,132.87 		"/>
		<polygon class="st1" points="370.65,198.45 397.31,218.25 383.51,232.05 381.11,230.28 347.12,205.03 340.46,187.88 
			329.37,159.32 334.62,132.87 370.65,198.44 		"/>
		<polygon class="st1" points="344.11,280.26 344.11,303.33 334.02,310.82 334.02,287.75 		"/>
		<polygon class="st1" points="450.37,280.26 450.37,303.33 460.46,310.82 460.46,287.75 		"/>
		<g>
			<polygon class="st1" points="444.11,218.25 444.11,234.07 407.96,260.91 397.31,268.82 386.66,260.91 350.52,234.08 
				350.52,218.25 397.31,253 			"/>
			<polygon class="st1" points="451.75,241.68 451.75,263.05 444.11,268.72 431.3,278.24 437.28,282.69 444.11,287.76 
				444.11,293.45 444.03,293.51 444.11,293.51 444.11,303.66 430.37,303.66 428.33,305.17 414.75,315.26 414.75,299.43 
				417.67,297.26 420.14,295.43 422.72,293.51 430.54,293.51 427.12,290.96 426.63,290.6 420.64,286.15 406.25,275.47 403.8,273.65 
				403.8,273.64 414.45,265.73 414.75,265.95 416.9,267.55 416.91,267.55 424.91,273.5 424.91,261.61 444.11,247.35 			"/>
			<polygon class="st1" points="390.81,273.65 388.36,275.48 388.35,275.48 373.99,286.15 373.98,286.15 368,290.6 367.99,290.6 
				367.51,290.96 364.07,293.51 371.91,293.51 374.48,295.42 376.94,297.24 379.88,299.43 379.88,315.25 366.28,305.15 
				364.27,303.66 350.52,303.66 350.52,293.51 350.61,293.51 350.52,293.44 350.52,287.75 357.34,282.69 363.33,278.24 
				350.52,268.72 342.73,262.93 342.73,241.59 350.52,247.38 369.73,261.64 369.73,273.49 377.7,267.56 379.88,265.95 
				380.16,265.74 			"/>
		</g>
	</g>
	<g>
		<g>
			<g>
				<path class="st0" d="M98.27,250.71H88.1l7.07-26.29l-3.08-4.21H65.79l-8.2,30.5H47.43l10.93-40.67h40.67l7.43,10.17
					L98.27,250.71z"/>
				<path class="st0" d="M118.1,210.04h10.17l-10.93,40.67h-10.17L118.1,210.04z"/>
				<path class="st0" d="M177.07,250.71H166.9l7.07-26.29l-3.08-4.21h-26.29l-8.2,30.5h-10.17l10.93-40.67h40.67l7.43,10.17
					L177.07,250.71z"/>
				<path class="st0" d="M247.74,210.04L245,220.21h-20.34l-8.2,30.5H206.3l7.07-26.29l-3.08-4.21h-16.12l-7.42-10.17h30.49
					l6.51,8.9v-8.9H247.74z"/>
				<path class="st0" d="M287.14,210.04l-10.93,40.67h-10.17l2.39-8.9l-11.29,8.9h-31.77l2.73-10.17l38.7-30.5H287.14z
					 M274.24,220.21h-5.96l-25.8,20.34h13.18l9.12-7.19l4.33,5.92L274.24,220.21z"/>
				<path class="st0" d="M296.04,210.04h10.17l-10.93,40.67H285.1L296.04,210.04z"/>
			</g>
			<g>
				<path class="st0" d="M79.3,289.96h-8.48l5.89-21.93l-2.57-3.51H52.21l-6.84,25.44H36.9l9.12-33.92h33.92l6.2,8.48L79.3,289.96z"
					/>
				<path class="st0" d="M138.22,256.04l-2.28,8.48h-33.92l-1.14,4.24h33.92l-2.28,8.48h-30.41l-4.46,3.51l-0.2,0.73h33.92
					l-2.28,8.48h-42.4l3.42-12.72l9.41-7.42h-7.42l3.7-13.78H138.22z"/>
				<path class="st0" d="M188.03,256.04l-3.7,13.78h-7.42l5.43,7.42l-3.42,12.72h-8.48l2.47-9.21l-2.57-3.51h-21.93L145,289.96
					h-8.48l3.7-13.78h7.42l-5.43-7.42l3.42-12.72h8.48l-2.47,9.21l2.57,3.51h21.93l3.42-12.72H188.03z"/>
				<polygon class="st0" points="230.85,256.04 221.73,289.96 194.81,289.96 188.61,281.49 195.44,256.04 203.93,256.04 
					198.03,277.97 200.6,281.49 215.54,281.49 222.37,256.04 				"/>
				<g>
					<polygon class="st0" points="293.84,256.04 287.81,264.61 248.27,264.61 254.4,273 248.7,280.98 248.41,281.39 248.1,280.98 
						236.02,264.44 238.28,256.04 					"/>
					<polygon class="st0" points="287.33,280.26 284.83,289.55 229.2,289.55 235.22,280.98 275.72,280.98 269.9,273 275.32,264.61 
						275.59,264.2 275.89,264.61 					"/>
				</g>
			</g>
		</g>
	</g>
</g>
</svg>
