<svg width="429" height="196" viewBox="0 0 429 196" fill="none" xmlns="http://www.w3.org/2000/svg">
<path d="M370.24 152.9V187.95L362.86 193.43L360.41 195.25L357.94 193.42L350.6 187.97V152.88L357.94 147.43L360.41 145.6L362.86 147.42L370.24 152.9Z" fill="#EDE7E0"/>
<path d="M428.36 26.45L417.27 55.01L410.61 72.16L376.62 97.41L374.22 99.18L360.42 85.38L387.08 65.58V65.57L423.11 0L428.36 26.45Z" fill="#EDE7E0"/>
<path d="M333.75 65.58L360.41 85.38L346.61 99.18L344.21 97.41L310.22 72.16L303.56 55.01L292.47 26.45L297.72 0L333.75 65.57V65.58Z" fill="#EDE7E0"/>
<path d="M307.21 147.39V170.46L297.12 177.95V154.88L307.21 147.39Z" fill="#EDE7E0"/>
<path d="M413.47 147.39V170.46L423.56 177.95V154.88L413.47 147.39Z" fill="#EDE7E0"/>
<path d="M407.21 85.3799V101.2L371.06 128.04L360.41 135.95L349.76 128.04L313.62 101.21V85.3799L360.41 120.13L407.21 85.3799Z" fill="#EDE7E0"/>
<path d="M414.85 108.81V130.18L407.21 135.85L394.4 145.37L400.38 149.82L407.21 154.89V160.58L407.13 160.64H407.21V170.79H393.47L391.43 172.3L377.85 182.39V166.56L380.77 164.39L383.24 162.56L385.82 160.64H393.64L390.22 158.09L389.73 157.73L383.74 153.28L369.35 142.6L366.9 140.78V140.77L377.55 132.86L377.85 133.08L380 134.68H380.01L388.01 140.63V128.74L407.21 114.48L414.85 108.81Z" fill="#EDE7E0"/>
<path d="M353.91 140.78L351.46 142.61H351.45L337.09 153.28H337.08L331.1 157.73H331.09L330.61 158.09L327.17 160.64H335.01L337.58 162.55L340.04 164.37L342.98 166.56V182.38L329.38 172.28L327.37 170.79H313.62V160.64H313.71L313.62 160.57V154.88L320.44 149.82L326.43 145.37L313.62 135.85L305.83 130.06V108.72L313.62 114.51L332.83 128.77V140.62L340.8 134.69L342.98 133.08L343.26 132.87L353.91 140.78Z" fill="#EDE7E0"/>
<path d="M61.3698 117.84H51.1998L58.2698 91.5499L55.1898 87.3399H28.8898L20.6898 117.84H10.5298L21.4598 77.1699H62.1298L69.5598 87.3399L61.3698 117.84Z" fill="#EDE7E0"/>
<path d="M81.2 77.1699H91.37L80.44 117.84H70.27L81.2 77.1699Z" fill="#EDE7E0"/>
<path d="M140.17 117.84H130L137.07 91.5499L133.99 87.3399H107.7L99.4996 117.84H89.3296L100.26 77.1699H140.93L148.36 87.3399L140.17 117.84Z" fill="#EDE7E0"/>
<path d="M210.84 77.1699L208.1 87.3399H187.76L179.56 117.84H169.4L176.47 91.5499L173.39 87.3399H157.27L149.85 77.1699H180.34L186.85 86.0699V77.1699H210.84Z" fill="#EDE7E0"/>
<path d="M250.24 77.1699L239.31 117.84H229.14L231.53 108.94L220.24 117.84H188.47L191.2 107.67L229.9 77.1699H250.24ZM237.34 87.3399H231.38L205.58 107.68H218.76L227.88 100.49L232.21 106.41L237.34 87.3399Z" fill="#EDE7E0"/>
<path d="M259.14 77.1699H269.31L258.38 117.84H248.2L259.14 77.1699Z" fill="#EDE7E0"/>
<path d="M42.4 157.09H33.92L39.81 135.16L37.24 131.65H15.31L8.47 157.09H0L9.12 123.17H43.04L49.24 131.65L42.4 157.09Z" fill="#EDE7E0"/>
<path d="M101.32 123.17L99.04 131.65H65.12L63.98 135.89H97.9L95.62 144.37H65.21L60.75 147.88L60.55 148.61H94.47L92.19 157.09H49.79L53.21 144.37L62.62 136.95H55.2L58.9 123.17H101.32Z" fill="#EDE7E0"/>
<path d="M151.13 123.17L147.43 136.95H140.01L145.44 144.37L142.02 157.09H133.54L136.01 147.88L133.44 144.37H111.51L108.1 157.09H99.6201L103.32 143.31H110.74L105.31 135.89L108.73 123.17H117.21L114.74 132.38L117.31 135.89H139.24L142.66 123.17H151.13Z" fill="#EDE7E0"/>
<path d="M193.95 123.17L184.83 157.09H157.91L151.71 148.62L158.54 123.17H167.03L161.13 145.1L163.7 148.62H178.64L185.47 123.17H193.95Z" fill="#EDE7E0"/>
<path d="M256.94 123.17L250.91 131.74H211.37L217.5 140.13L211.8 148.11L211.51 148.52L211.2 148.11L199.12 131.57L201.38 123.17H256.94Z" fill="#EDE7E0"/>
<path d="M250.43 147.39L247.93 156.68H192.3L198.32 148.11H238.82L233 140.13L238.42 131.74L238.69 131.33L238.99 131.74L250.43 147.39Z" fill="#EDE7E0"/>
</svg>
