<svg width="110" height="141" viewBox="0 0 110 141" fill="none" xmlns="http://www.w3.org/2000/svg">
<path d="M62.9145 110.302V135.531L56.9702 139.476L54.9959 140.785L53.0044 139.468L47.0903 135.543V110.287L53.0044 106.365L54.9959 105.045L56.9702 106.357L62.9145 110.302Z" fill="#EDE7E0"/>
<path d="M109.734 19.2797L100.801 39.8381L95.4353 52.1823L68.0551 70.3591L66.1198 71.6329L55.0044 61.7011L76.4791 47.4461V47.4384L105.505 0.242188L109.734 19.2797Z" fill="#EDE7E0"/>
<path d="M33.521 47.4461L54.9957 61.7011L43.8803 71.6329L41.945 70.3591L14.5648 52.1823L9.19938 39.8381L0.265625 19.2797L4.4949 0.242188L33.521 47.4384V47.4461Z" fill="#EDE7E0"/>
<path d="M12.1371 106.334V122.94L4.01123 128.333V111.727L12.1371 106.334Z" fill="#EDE7E0"/>
<path d="M97.7378 106.334V122.94L105.868 128.333V111.727L97.7378 106.334Z" fill="#EDE7E0"/>
<path d="M92.6963 61.7012V73.0882L63.5752 92.4075L54.9956 98.101L46.4161 92.4075L17.2993 73.0959V61.7012L54.9956 86.714L92.6963 61.7012Z" fill="#EDE7E0"/>
<path d="M98.8526 78.5654V93.9475L92.6966 98.0275L82.3761 104.879L87.1929 108.083L92.6966 111.734V115.83L92.6318 115.872H92.6966V123.179H81.6288L79.9828 124.264L69.0446 131.528V120.134L71.3947 118.57L73.3862 117.254L75.4641 115.872H81.7627L79.0108 114.035L78.6134 113.776L73.7879 110.573L62.1974 102.887L60.2231 101.575V101.571L68.8027 95.8775L69.0446 96.0358L70.7769 97.1861H70.7856L77.231 101.471V92.9092L92.6966 82.6454L98.8526 78.5654Z" fill="#EDE7E0"/>
<path d="M49.76 101.575L47.7857 102.895H47.7771L36.2081 110.573H36.1995L31.3827 113.777H31.3741L30.9896 114.035L28.2161 115.873H34.532L36.6013 117.247L38.5841 118.555L40.9515 120.134V131.521L29.996 124.253L28.3803 123.18H17.2995V115.873H17.3729L17.2995 115.822V111.727L22.7945 108.083L27.62 104.879L17.2995 98.0277L11.0269 93.8589V78.5L17.2995 82.6688L32.7781 92.9325V101.463L39.1976 97.194L40.9515 96.036L41.1805 95.8816L49.76 101.575Z" fill="#EDE7E0"/>
</svg>
