<?xml version="1.0" encoding="utf-8"?>
<!-- Generator: Adobe Illustrator 28.0.0, SVG Export Plug-In . SVG Version: 6.00 Build 0)  -->
<svg version="1.1" id="Layer_1" xmlns="http://www.w3.org/2000/svg" xmlns:xlink="http://www.w3.org/1999/xlink" x="0px" y="0px"
	 viewBox="0 0 500 500" style="enable-background:new 0 0 500 500;" xml:space="preserve">
<style type="text/css">
	.st0{fill:#EDE7E0;}
	.st1{fill:#7800FF;}
	.st2{fill:#FF1E00;}
</style>
<g>
	<polygon class="st0" points="268.32,334.98 268.32,400.34 254.56,410.56 249.99,413.95 245.38,410.54 231.69,400.37 231.69,334.94 
		245.38,324.78 249.99,321.36 254.56,324.76 	"/>
	<polygon class="st0" points="376.7,99.17 356.02,152.43 343.6,184.41 280.22,231.5 275.74,234.8 250.01,209.07 299.72,172.14 
		299.72,172.12 366.91,49.85 	"/>
	<polygon class="st0" points="200.28,172.14 249.99,209.07 224.26,234.8 219.78,231.5 156.4,184.41 143.98,152.43 123.3,99.17 
		133.09,49.85 200.28,172.12 	"/>
	<polygon class="st0" points="150.78,324.7 150.78,367.72 131.97,381.69 131.97,338.67 	"/>
	<polygon class="st0" points="348.93,324.7 348.93,367.72 367.75,381.69 367.75,338.67 	"/>
	<g>
		<polygon class="st0" points="337.26,209.07 337.26,238.57 269.85,288.62 249.99,303.37 230.13,288.62 162.73,238.59 
			162.73,209.07 249.99,273.87 		"/>
		<polygon class="st0" points="351.51,252.76 351.51,292.61 337.26,303.18 313.37,320.93 324.52,329.23 337.26,338.69 337.26,349.3 
			337.11,349.41 337.26,349.41 337.26,368.34 311.64,368.34 307.83,371.15 282.51,389.97 282.51,360.45 287.95,356.4 292.56,352.99 
			297.37,349.41 311.95,349.41 305.58,344.65 304.66,343.98 293.49,335.68 266.66,315.77 262.09,312.37 262.09,312.36 
			281.95,297.61 282.51,298.02 286.52,301 286.54,301 301.46,312.1 301.46,289.92 337.26,263.33 		"/>
		<polygon class="st0" points="237.87,312.37 233.3,315.79 233.28,315.79 206.5,335.68 206.48,335.68 195.33,343.98 195.31,343.98 
			194.42,344.65 188,349.41 202.62,349.41 207.41,352.97 212,356.36 217.48,360.45 217.48,389.95 192.12,371.12 188.38,368.34 
			162.73,368.34 162.73,349.41 162.9,349.41 162.73,349.28 162.73,338.67 175.45,329.23 186.62,320.93 162.73,303.18 148.21,292.38 
			148.21,252.59 162.73,263.39 198.56,289.98 198.56,312.08 213.42,301.02 217.48,298.02 218.01,297.62 		"/>
	</g>
</g>
</svg>
