<svg width="254" height="365" viewBox="0 0 254 365" fill="none" xmlns="http://www.w3.org/2000/svg">
<path d="M145.02 285.13V350.49L131.26 360.71L126.69 364.1L122.08 360.69L108.39 350.52V285.09L122.08 274.93L126.69 271.51L131.26 274.91L145.02 285.13Z" fill="#7800FF"/>
<path d="M253.4 49.32L232.72 102.58L220.3 134.56L156.92 181.65L152.44 184.95L126.71 159.22L176.42 122.29V122.27L243.61 0L253.4 49.32Z" fill="#7800FF"/>
<path d="M76.98 122.29L126.69 159.22L100.96 184.95L96.48 181.65L33.1 134.56L20.68 102.58L0 49.32L9.78999 0L76.98 122.27V122.29Z" fill="#7800FF"/>
<path d="M27.4799 274.85V317.87L8.66992 331.84V288.82L27.4799 274.85Z" fill="#7800FF"/>
<path d="M225.63 274.85V317.87L244.45 331.84V288.82L225.63 274.85Z" fill="#7800FF"/>
<path d="M213.96 159.22V188.72L146.55 238.77L126.69 253.52L106.83 238.77L39.4302 188.74V159.22L126.69 224.02L213.96 159.22Z" fill="black"/>
<path d="M228.21 202.91V242.76L213.96 253.33L190.07 271.08L201.22 279.38L213.96 288.84V299.45L213.81 299.56H213.96V318.49H188.34L184.53 321.3L159.21 340.12V310.6L164.65 306.55L169.26 303.14L174.07 299.56H188.65L182.28 294.8L181.36 294.13L170.19 285.83L143.36 265.92L138.79 262.52V262.51L158.65 247.76L159.21 248.17L163.22 251.15H163.24L178.16 262.25V240.07L213.96 213.48L228.21 202.91Z" fill="black"/>
<path d="M114.57 262.52L110 265.94H109.98L83.2001 285.83H83.1801L72.0302 294.13H72.0101L71.1201 294.8L64.7001 299.56H79.3201L84.1102 303.12L88.7001 306.51L94.1801 310.6V340.1L68.8201 321.27L65.0802 318.49H39.4301V299.56H39.6001L39.4301 299.43V288.82L52.1501 279.38L63.3201 271.08L39.4301 253.33L24.9102 242.53V202.74L39.4301 213.54L75.2601 240.13V262.23L90.1201 251.17L94.1801 248.17L94.7101 247.77L114.57 262.52Z" fill="black"/>
</svg>
