<?xml version="1.0" encoding="utf-8"?>
<!-- Generator: Adobe Illustrator 28.0.0, SVG Export Plug-In . SVG Version: 6.00 Build 0)  -->
<svg version="1.1" id="Layer_1" xmlns="http://www.w3.org/2000/svg" xmlns:xlink="http://www.w3.org/1999/xlink" x="0px" y="0px"
	 viewBox="0 0 500 500" style="enable-background:new 0 0 500 500;" xml:space="preserve">
<style type="text/css">
	.st0{fill:#EDE7E0;}
	.st1{fill:#7800FF;}
	.st2{fill:#FF1E00;}
</style>
<g>
	<g>
		<g>
			<path d="M132.85,251.13h-16.25l11.3-42.03l-4.92-6.73H80.94l-13.11,48.76H51.57l17.48-65.02h65.02l11.88,16.26L132.85,251.13z"/>
			<path d="M164.55,186.11h16.25l-17.48,65.02h-16.25L164.55,186.11z"/>
			<path d="M258.82,251.13h-16.25l11.3-42.03l-4.92-6.73h-42.03l-13.11,48.76h-16.25l17.48-65.02h65.02l11.88,16.26L258.82,251.13z"
				/>
			<path d="M371.79,186.11l-4.37,16.26h-32.51l-13.11,48.76h-16.26l11.3-42.03l-4.92-6.73h-25.78l-11.86-16.26h48.74l10.4,14.22
				v-14.22H371.79z"/>
			<path d="M434.78,186.11l-17.48,65.02h-16.25l3.82-14.22l-18.05,14.22h-50.8l4.37-16.26l61.87-48.76H434.78z M414.16,202.37h-9.52
				l-41.25,32.51h21.08l14.58-11.49l6.92,9.46L414.16,202.37z"/>
			<path d="M449,186.11h16.25l-17.48,65.02h-16.25L449,186.11z"/>
		</g>
		<g>
			<path d="M102.52,313.88H88.97l9.42-35.05l-4.11-5.61H59.23L48.3,313.88H34.74l14.57-54.22h54.22l9.91,13.56L102.52,313.88z"/>
			<path d="M196.72,259.66l-3.64,13.56h-54.22l-1.82,6.78h54.22l-3.64,13.56h-48.61l-7.12,5.61l-0.31,1.16h54.22l-3.64,13.56h-67.78
				l5.47-20.33l15.05-11.86h-11.86l5.92-22.03H196.72z"/>
			<path d="M276.35,259.66l-5.92,22.03h-11.86l8.67,11.86l-5.47,20.33h-13.56l3.96-14.72l-4.11-5.61h-35.05l-5.47,20.33H194
				l5.92-22.03h11.86l-8.67-11.86l5.47-20.33h13.56l-3.96,14.72l4.11,5.61h35.05l5.47-20.33H276.35z"/>
			<polygon points="344.8,259.65 330.22,313.89 287.19,313.89 277.27,300.34 288.2,259.65 301.76,259.65 292.33,294.71 
				296.45,300.34 320.32,300.34 331.25,259.65 			"/>
			<g>
				<polygon points="445.49,259.65 435.86,273.36 372.65,273.36 382.45,286.77 373.33,299.52 372.86,300.18 372.38,299.52 
					353.06,273.09 356.67,259.65 				"/>
				<polygon points="435.09,298.38 431.09,313.23 342.16,313.23 351.79,299.52 416.53,299.52 407.22,286.77 415.89,273.36 
					416.32,272.7 416.81,273.36 				"/>
			</g>
		</g>
	</g>
</g>
</svg>
