<svg width="698" height="207" viewBox="0 0 698 207" fill="none" xmlns="http://www.w3.org/2000/svg">
<path d="M158.936 105.331H132.611L150.917 37.2432L142.947 26.3407H74.8431L53.6053 105.331H27.2645L55.5816 0H160.912L180.157 26.3407L158.936 105.331Z" fill="#ECE7E0"/>
<path d="M210.289 0H236.614L208.296 105.331H181.972L210.289 0Z" fill="#EDE7E0"/>
<path d="M363.004 105.331H336.679L354.985 37.2432L347.015 26.3407H278.927L257.689 105.331H231.365L259.682 0H365.013L384.258 26.3407L363.004 105.331Z" fill="#EDE7E0"/>
<path d="M546.012 0L538.932 26.3407H486.267L465.029 105.331H438.689L456.994 37.2432L449.024 26.3407H407.261L388.048 0H467.006L483.853 23.036V0H546.012Z" fill="#EDE7E0"/>
<path d="M648.054 0L619.737 105.331H593.412L599.601 82.2946L570.36 105.331H488.066L495.145 78.9898L595.373 0H648.054ZM614.65 26.3407H599.228L532.404 79.006H566.553L590.172 60.3925L601.383 75.7175L614.65 26.3407Z" fill="#EDE7E0"/>
<path d="M671.09 0H697.415L669.097 105.331H642.773L671.09 0Z" fill="#EDE7E0"/>
<path d="M109.802 206.984H87.8511L103.111 150.204L96.4531 141.116H39.6731L21.9668 206.984H0L23.603 119.149H111.438L127.492 141.116L109.802 206.984Z" fill="#EDE7E0"/>
<path d="M262.403 119.149L256.506 141.116H168.671L165.723 152.099H253.558L247.661 174.066H168.914L157.38 183.154L156.878 185.033H244.713L238.816 207H129.014L137.875 174.066L162.256 154.853H143.043L152.633 119.165H262.403V119.149Z" fill="#EDE7E0"/>
<path d="M391.401 119.149L381.811 154.837H362.598L376.643 174.05L367.782 206.984H345.815L352.23 183.138L345.572 174.05H288.792L279.931 206.984H257.997L267.587 171.296H286.8L272.755 152.083L281.616 119.149H303.583L297.167 142.995L303.826 152.083H360.606L369.467 119.149H391.401Z" fill="#ECE7E0"/>
<path d="M502.289 119.133L478.669 207H408.962L392.892 185.049L410.598 119.133H432.565L417.289 175.929L423.963 185.049H462.632L480.338 119.133H502.289Z" fill="#EDE7E0"/>
<path d="M665.403 119.133L649.803 141.343H547.405L563.28 163.066L548.506 183.721L547.745 184.79L546.967 183.721L515.669 140.905L521.517 119.133H665.403Z" fill="#EDE7E0"/>
<path d="M648.556 181.874L642.076 205.931H498.012L513.612 183.721H618.489L603.407 163.066L617.452 141.343L618.149 140.273L618.942 141.343L648.556 181.874Z" fill="#EDE7E0"/>
</svg>
