<?xml version="1.0" encoding="utf-8"?>
<!-- Generator: Adobe Illustrator 25.0.0, SVG Export Plug-In . SVG Version: 6.00 Build 0)  -->
<svg version="1.1" id="Capa_1" xmlns="http://www.w3.org/2000/svg" xmlns:xlink="http://www.w3.org/1999/xlink" x="0px" y="0px"
	 viewBox="0 0 500 500" style="enable-background:new 0 0 500 500;" xml:space="preserve">
<style type="text/css">
	.st0{fill:#6600FF;}
	.st1{fill:#1D1D1B;}
	.st2{fill:#FFFFFF;}
</style>
<g>
	<g>
		<circle class="st0" cx="258.05" cy="248.5" r="132.49"/>
	</g>
	<g>
		<g>
			<polygon class="st1" points="273.95,160.65 247.3,160.65 247.3,493.42 273.95,466.72 			"/>
		</g>
		<g>
			<polygon class="st1" points="252.85,101.05 244.55,106.39 244.55,95.62 			"/>
		</g>
		<g>
			<path class="st1" d="M258.75,6.71c-6.94,0.08-11.97,2.79-14.21,4.23v76.3l14.76,9.58l14.6-9.58v-76.3
				C271.76,9.58,266.26,6.55,258.75,6.71z M259.23,86.36l-9.02-5.67l9.02-5.59l9.02,5.59L259.23,86.36z M259.23,71.04l-9.02-5.67
				l9.02-5.59l9.02,5.59L259.23,71.04z M259.23,55.72l-9.02-5.67l9.02-5.59l9.02,5.59L259.23,55.72z M259.23,40.39l-9.02-5.67
				l9.02-5.59l9.02,5.59L259.23,40.39z M259.23,24.99l-9.02-5.67l9.02-5.59l9.02,5.59L259.23,24.99z"/>
		</g>
		<g>
			<polygon class="st1" points="265.7,101.05 273.92,95.7 273.92,106.31 			"/>
		</g>
		<g>
			<polygon class="st1" points="259.31,105.2 273.92,114.77 273.92,133.93 244.55,133.93 244.55,114.77 			"/>
		</g>
		<g>
			<rect x="226.33" y="133.89" class="st1" width="63.45" height="14.13"/>
		</g>
	</g>
	<g>
		<g>
			<path class="st2" d="M267.23,198.86c-0.44,0.81-1.05,1.58-1.3,2.44c-2.3,8.12-8.48,11.61-16,13.51c-3.1,0.78-6.2,1.55-9.28,2.41
				c-0.28,0.08-0.38,0.79-0.57,1.2c0.34,0.12,0.7,0.38,1.01,0.32c0.93-0.16,1.82-0.53,2.75-0.66c2.59-0.36,4.47,1.01,5.66,3.01
				c3.15,5.31,2.02,14.04-2.2,18.65c-5.17,5.65-15.45,4.57-19.2-2.06c-1.2-2.13-1.35-4.27,0.36-6.34c0.82-0.99,1.52-2.14,1.98-3.33
				c0.14-0.35-0.59-1.23-1.11-1.58c-0.25-0.17-1.14,0.18-1.4,0.54c-0.41,0.59-0.57,1.37-0.78,2.09c-2,6.63-6.99,9.75-13.33,10.83
				c-6.73,1.15-12.26-1.36-16.51-6.65c-2.58-3.21-9.88-2.76-11.66,1.08c-1.77,3.84-4.77,6.05-8.44,7
				c-4.15,1.08-8.53,1.61-12.83,1.72c-3.7,0.09-4.36-1.18-3.86-5.13c0.07-0.56,0.18-1.13,0.33-1.67c0.57-2.11,0.09-3.35-2.4-3.04
				c-0.56,0.07-1.14-0.01-1.7,0.07c-6.42,0.91-8.34-2.48-6.22-8.92c2.51-7.62,12.56-14.32,20.55-14.5c0.56-0.01,1.12-0.1,1.69-0.15
				c-0.27-0.63-0.37-1.48-0.85-1.86c-8.27-6.48-8.6-15.4-7.37-24.63c0.79-5.91,3.73-7.85,9.38-6c2.73,0.89,5.65,2.68,7.33,4.93
				c2.89,3.87,4.89,8.42,7.26,12.68c0.27,0.48,0.58,0.94,0.87,1.4c0.16-0.48,0.54-1.01,0.45-1.43c-1.35-6.2,2.4-9.63,6.93-12.4
				c2.88-1.76,5.99-3.31,9.19-4.32c3.73-1.18,5.72,0.71,5.72,4.66c0,1.42-0.45,3.41,0.29,4.14c1.71,1.69,4,2.81,6.13,4.04
				c0.2,0.11,1.27-0.61,1.32-1.02c0.55-4.72,1.99-8.82,6.58-11.21c0.57-0.29,0.84-1.57,0.86-2.4c0.01-0.91-0.55-1.81-0.65-2.74
				c-0.44-4.01,1.77-6.03,5.39-4.55c3.29,1.34,6.42,3.15,9.42,5.07c1.14,0.73,2.3,2.33,2.4,3.62c0.39,4.84,1.97,9.71,0.12,14.58
				c-0.34,0.88-0.79,1.83-0.73,2.71c0.08,1.28,0.59,2.54,0.91,3.81c0.74-0.65,1.38-1.55,2.24-1.92c4.86-2.06,9.64-4.48,14.7-5.81
				c4.38-1.15,6.54,1.93,6.45,7.96L267.23,198.86z M234.41,212.38c-0.29-0.77-0.3-1.05-0.43-1.1c-1.61-0.75-3.34-2.22-4.83-2.01
				c-1.97,0.27-3.76,1.86-5.63,2.89c1.46,1.04,2.9,2.1,4.4,3.09c0.45,0.3,1.23,0.72,1.52,0.53
				C231.2,214.7,232.85,213.47,234.41,212.38z M185.66,213.62c-0.99,0.3-2.34,0.31-2.91,0.98c-1.04,1.23-1.63,2.84-2.4,4.3
				c1.75,0.8,3.53,2.33,5.24,2.25c3.76-0.17,1.68-3.86,2.59-5.83C189.11,213.31,186.99,213.77,185.66,213.62z"/>
		</g>
		<g>
			<path class="st1" d="M247.94,289.72c0,0-23.13,0.81-30.62-5.14c-7.49-5.95-7.83-7.03-14.43-6.27
				c-6.61,0.75-10.33,1.14-10.33,1.14v-1.91c0,0,12.94-4.81,18.69-0.41c5.75,4.4,11.73,7.74,17.27,8.39
				c5.54,0.65,19.23,1.47,21.48,0C252.26,284.05,247.94,289.72,247.94,289.72z"/>
		</g>
		<g>
			<path class="st2" d="M202.83,290.37c-0.36,2.42-0.72,4.84-1.07,7.27c-0.63,4.26-2.67,7.1-7.36,6.93c-1.56-0.05-1.79,0.55-2,1.89
				c-1.44,9.05-7.51,14.56-14.97,18.73c-3.66,2.05-5.26,1.07-6.89-2.87c-2.34-5.65-2.31-11.37-0.72-17.17
				c0.25-0.9,0.7-1.82,0.65-2.71c-0.03-0.49-0.98-1.4-1.38-1.33c-7.9,1.34-14.41-1.72-20.54-6.22c-1.65-1.21-3.55-2.12-5.38-3.07
				c-2.99-1.57-3.39-2.85-0.85-5c5.93-5.04,12.21-9.57,20.21-10.79c0.75-0.11,1.51-0.18,2.24-0.34c3.17-0.72,3.22-0.84,1.27-3.3
				c-4.26-5.37-8.29-10.9-8.69-18.08c-0.11-1.96,0.35-4.04,0.94-5.94c0.95-3.04,3.34-4.21,6.26-3.22c4.27,1.45,8.45,3.19,12.57,5.02
				c1.6,0.71,2.66,1.7,4.28-0.24c1.82-2.18,4.28-1.47,5.98,0.34c3.35,3.58,7.03,7.05,9.47,11.21c2.39,4.09,3.26,8.99-1.04,12.95
				c-2.02,1.86-1.18,3.27,0.49,4.66c0.29,0.24,0.59,0.5,0.94,0.63C202.21,281.63,203.16,285.6,202.83,290.37z"/>
		</g>
		<g>
			<path class="st1" d="M269.81,220c0,0,14.25-9.27,16.05-18.49s1.84-14.33,1.84-14.33h2.08c0,0-1.64,15.52-3.76,20.03
				c-2.49,5.32-12.71,14.54-13.8,16.78c-1.09,2.25-2.41,1.18-2.41,1.18V220z"/>
		</g>
		<g>
			<path class="st2" d="M267.12,199.04c1.02-4.18,2.07-8.36,3.04-12.55c0.5-2.17-0.82-3.17-2.67-3.59
				c-5.9-1.33-8.59-4.82-8.17-11.01c0.19-2.76-0.8-5.59-0.89-8.39c-0.09-2.53,1.48-3.91,4.02-3.51c2.21,0.35,4.41,0.96,6.52,1.71
				c1.4,0.5,2.61,1.5,3.95,2.21c5.2,2.76,5.21,2.75,5.97-2.88c0.75-5.55,8.99-13.06,14.68-13.02c1.5,0.01,3.2,1.03,4.44,2.04
				c2.49,2.02,4.98,4.14,7.04,6.58c5.41,6.43,12.57,9.3,20.48,11c5.18,1.11,5.66,2.03,4.89,7.39c-1.13,7.95-5.42,11.88-13.45,12.35
				c-0.38,0.02-0.76,0-1.13,0.07c-0.71,0.13-1.42,0.32-2.13,0.48c0.33,0.63,0.56,1.36,1.02,1.87c1.14,1.26,2.44,2.38,3.58,3.65
				c1.01,1.12,2.42,2.25,2.69,3.57c0.56,2.65,1.28,5.73,0.43,8.1c-1.11,3.09-4.56,1.95-7.07,1.6c-3.9-0.54-7.74-1.5-11.62-2.21
				c-3.54-0.65-5.27-3.36-7.16-5.99c-1.9-2.65-1.99-2.59-3.49,0.42c-2.17,4.36-4.94,7.63-10.57,6.31c-3.27-0.77-6.58-1.32-9.9-1.85
				c-2.65-0.42-3.88-2.09-4.39-4.53L267.12,199.04z M291.16,178.78c-1.94,1.25-4.9-0.35-5.28,2.75c-0.24,2,1.74,3.7,3.91,3.6
				c1.28-0.06,3.48-3.34,3.04-4.89C292.65,179.6,291.67,179.2,291.16,178.78z"/>
		</g>
		<g>
			<path class="st2" d="M228.21,312.18c2.24,0.32,4.47,0.64,6.71,0.96c-0.27-2.14-0.97-4.34-0.72-6.42
				c0.75-6.26,3.76-11.51,8.52-15.58c2.95-2.52,8.68-1.34,11.78,2c2.87,3.1,4.2,6.71,3.64,10.94c-0.31,2.35,0.67,2.63,2.5,1.65
				c4.75-2.55,9.64-3,14.83-1.42c4.47,1.36,7.04,4.81,5.37,8.91c-2.04,5-4.02,10.42-9.82,12.55c-2.09,0.77-4.28,1.3-6.47,1.68
				c-1.47,0.25-3.02,0.01-4.54,0.02c-1.51,0.01-2.06,0.98-1.67,2.22c0.12,0.39,1.34,0.45,2.07,0.62c0.15,0.03,0.34-0.14,0.52-0.2
				c3.1-1.1,6.51-2.32,8.87,0.83c2.25,3.02,0.6,6.36-1.21,8.98c-2,2.89-4.24,5.97-7.12,7.81c-5.62,3.59-10.56,1.3-12.56-5.12
				c-0.17-0.54-0.32-1.08-0.57-1.58c-0.16-0.32-0.47-0.57-0.72-0.86c-0.19,0.37-0.45,0.71-0.55,1.1
				c-2.69,10.06-14.03,16.39-24,13.38c-4.83-1.46-6.25-5.19-3.07-9.03c2.28-2.74,5.08-5.07,7.78-7.43c1.45-1.27,0.86-1.88-0.51-2.13
				c-4.73-0.87-9.02-2.43-12.64-5.87c-3.31-3.14-3.83-6.93-3.13-10.94c0.24-1.4,1.78-2.82,3.07-3.74
				C218.65,312.63,223.39,312.32,228.21,312.18z M250.25,325.84c-1.05-2.17-1.73-3.6-2.43-5.03c-0.71-1.47-1.58-1.37-2.44-0.17
				c-0.54,0.75-0.92,1.62-1.47,2.35c-1.65,2.19-1.17,4.33,1.42,4.53C246.97,327.67,248.72,326.41,250.25,325.84z"/>
		</g>
		<g>
			<path d="M234.41,212.38c-1.56,1.09-3.22,2.32-4.97,3.39c-0.3,0.18-1.07-0.24-1.52-0.53c-1.49-0.99-2.93-2.05-4.4-3.09
				c1.87-1.02,3.66-2.61,5.63-2.89c1.49-0.21,3.22,1.26,4.83,2.01C234.11,211.33,234.12,211.61,234.41,212.38z"/>
		</g>
		<g>
			<path d="M185.66,213.62c1.32,0.15,3.45-0.31,2.52,1.7c-0.91,1.97,1.17,5.66-2.59,5.83c-1.71,0.08-3.49-1.45-5.24-2.25
				c0.78-1.45,1.36-3.07,2.4-4.3C183.32,213.93,184.67,213.92,185.66,213.62z"/>
		</g>
		<g>
			<path d="M291.16,178.78c0.51,0.42,1.49,0.82,1.66,1.45c0.44,1.56-1.76,4.84-3.04,4.89c-2.17,0.1-4.15-1.6-3.91-3.6
				C286.26,178.43,289.22,180.02,291.16,178.78z"/>
		</g>
		<g>
			<path d="M250.25,325.84c-1.53,0.57-3.28,1.82-4.92,1.69c-2.59-0.2-3.06-2.34-1.42-4.53c0.55-0.74,0.93-1.61,1.47-2.35
				c0.87-1.21,1.73-1.3,2.44,0.17C248.51,322.24,249.2,323.67,250.25,325.84z"/>
		</g>
	</g>
	<g>
		<path class="st1" d="M270.36,358.26c0,0,6.4-2.14,11.39-3.56c4.98-1.42,15.86-8.95,17.79-11.08c1.93-2.13,6.51-6.2,6.51-6.2
			l2.34,1.83c0,0-4.07,3.96-7.12,7.01s-9.56,7.73-15.35,10.78s-13.83,7.32-14.54,8.03C270.66,365.78,270.36,358.26,270.36,358.26z"
			/>
	</g>
	<g>
		<path class="st2" d="M357.09,336.52l-5.59,15.72l-15.48,5.19c-0.32-0.08-0.72-0.16-1.12-0.08c-6.78,1.04-11.57-1.92-15.16-7.5
			c-0.72-1.04-2.31-2.15-3.51-2.08c-3.59,0.08-6.15-1.76-8.3-4.15c-3.67-3.91-5.59-8.46-4.79-14.05c0.24-1.92,0.88-3.91-0.72-5.91
			c-4.15-5.27-3.27-11.41-2.31-17.4c0.4-2.15,1.2-4.39,2.31-6.38c1.92-3.27,4.63-3.11,6.3,0.32c0.64,1.36,1.04,2.87,1.44,4.31
			c0.96,3.11,0.96,3.11,3.59,1.2c5.35-3.99,9.66-2.95,12.13,3.19c2.15,5.19,4.47,10.69,3.19,16.44c-0.8,3.35,0.72,3.91,3.11,4.55
			c5.51,1.44,10.77,3.43,15.08,7.42C351.9,341.71,353.26,341.55,357.09,336.52z"/>
	</g>
	<g>
		<path class="st1" d="M178.74,281.06c0,0-2.59,2.97-1.13,4.97c1.46,2,4.41,3.22,4.23,0.49c-0.06-0.97,1.4-3.19,0.89-4.04
			C181.82,280.94,178.74,281.06,178.74,281.06z"/>
	</g>
	<g>
		<path class="st1" d="M318.72,337.35c0,0-2.52-1.37-3.07-3.3c-0.55-1.92,0.46-0.69,0.92-2.89c0.46-2.2,2.24-4.31,2.61-2.15
			s-0.23,3.16,1.37,3.34c1.6,0.18,4.21,1.28,3.07,2.15C322.47,335.38,319.51,337.86,318.72,337.35z"/>
	</g>
	<g>
		<g>
			<path d="M89.5,259.17l-13.23-21.92l0.59-0.09c22.93-3.51,39.16-8.31,48.3-14.26H78.8v-22.15h61.5c0.19-1.08,0.5-2.6,0.88-4.28
				H87.03v-66.09h25.8c-0.94-0.54-2.04-1.22-3.12-1.89c-1.67-1.03-3.4-2.09-4.43-2.61l-0.75-0.37l9.93-4.48H86.15V99.04h140.66
				v21.81l-0.2,0.12c-4.6,2.65-11.66,5.97-20.05,9.41h19.54v66.09h-57.14c-0.38,1.66-0.7,3.18-0.9,4.28h65.23l-0.01,0.41
				c-0.52,20.68-1.75,32.1-4.4,40.72c-3.6,12.19-13.66,14.64-28.73,14.64c-10.46,0-22.2-0.28-36.95-0.88l-0.36-0.02l-0.02-0.36
				l-1.43-23.02l0.44,0.02c12.13,0.6,21.69,0.88,30.09,0.88c8.89,0,9.59-0.58,10.42-10.23h-43.12
				c-11.6,17.77-34.97,29.96-69.46,36.23L89.5,259.17z M77.57,237.85l12.33,20.44c34.24-6.27,57.38-18.38,68.78-36.01l0.12-0.18
				h44.41l-0.03,0.43c-0.89,10.43-1.83,11.39-11.25,11.39c-8.31,0-17.75-0.27-29.69-0.85l1.35,21.78
				c14.58,0.59,26.2,0.86,36.56,0.86c15.08,0,24.49-2.3,27.97-14.07c2.6-8.49,3.83-19.75,4.35-40.1h-65.35l0.08-0.46
				c0.2-1.19,0.58-3.05,1.06-5.1l0.07-0.31h56.98v-64.5h-20.78l-0.15-0.77c9.05-3.65,16.72-7.2,21.63-10.01V99.83H86.95v20.39h29.36
				l0.16,0.76l-10.11,4.57c1.05,0.58,2.43,1.43,3.77,2.26c1.67,1.03,3.4,2.09,4.43,2.61l-0.18,0.75H87.82v64.5h54.36l-0.11,0.49
				c-0.47,2.05-0.85,3.89-1.04,5.05l-0.06,0.33H79.59v20.56h48.12l-1.02,0.72C117.75,229.12,101.23,234.18,77.57,237.85z
				 M198.98,176.85h-29.16v-7.27h29.16V176.85z M170.62,176.06h27.56v-5.68h-27.56V176.06z M143.31,176.85h-29.15v-7.27h29.15
				V176.85z M114.95,176.06h27.56v-5.68h-27.56V176.06z M198.98,155.67h-29.16v-7.1h29.16V155.67z M170.62,154.88h27.56v-5.51
				h-27.56V154.88z M143.31,155.67h-29.15v-7.1h29.15V155.67z M114.95,154.88h27.56v-5.51h-27.56V154.88z M158.39,131.17h-3.16
				l-0.1-0.06c-2.53-1.57-8.17-4.97-17.49-10.14l-1.34-0.75H183l0.16,0.76c-4.72,2.12-12.83,5.6-24.7,10.16L158.39,131.17z
				 M155.45,130.37h2.79c10.49-4.03,18.03-7.22,22.88-9.36h-41.75C147.79,125.72,153,128.85,155.45,130.37z"/>
		</g>
		<g>
			<path d="M87.6,434.81L75.3,413.1l0.43-0.16c12.75-4.87,25.39-11.34,37.59-19.24c-8.11-5.57-16.48-11.32-24.88-16.63l-0.37-0.23
				l13.6-17.74H90.35V337.9l-18.57-12.56l0.29-0.34c14.45-17.07,25.21-36.69,31.96-58.33l0.11-0.34l0.35,0.07l25.98,5.34l-0.13,0.42
				c-0.12,0.39-0.24,0.82-0.38,1.29c-0.44,1.53-1.04,3.58-1.9,6.08h101.02v22.68H118.66c-0.86,1.86-2.31,4.59-4.12,7.78h104.04
				v19.35H111.01v-13.16c-5.06,8.22-10.04,15.25-14.84,20.94h109.99v5.82c0,12.29,0.52,22.64,1.57,31.64
				c1.76,14.9,4.3,23.8,6.78,23.8c0.22,0,0.67-0.44,1.02-1.64c0.71-2.65,2.33-19.31,3.48-33.88l0.04-0.44l23.18,4.53l-0.02,0.35
				c-0.93,18.56-2.37,31.43-4.56,40.51c-4.8,20.12-11.4,23.93-21.91,23.93c-22.68,0-37.3-27.82-38.2-72.64h-18.55l15.82,14.63
				l-0.25,0.29c-6.24,7.16-12.91,13.9-19.81,20.03c9.76,7.66,18.35,14.61,26.24,21.24l0.32,0.27l-0.28,0.31l-16.36,17.6l-0.29-0.24
				c-12.67-10.47-22.54-18.42-29.34-23.62c-14.77,10.22-30.62,18.66-47.11,25.09L87.6,434.81z M76.44,413.52l11.5,20.3
				c16.41-6.42,32.17-14.84,46.86-25.04l0.24-0.17l0.23,0.18c6.76,5.16,16.62,13.09,29.3,23.58l15.57-16.75
				c-7.9-6.63-16.5-13.58-26.28-21.25l-0.38-0.29l0.36-0.32c6.91-6.11,13.59-12.83,19.84-19.98l-16.74-15.48h21.36l0.01,0.39
				c0.81,44.57,15.15,72.25,37.41,72.25c10.33,0,16.44-3.61,21.14-23.32c2.16-8.98,3.6-21.7,4.53-40.02l-21.63-4.22
				c-1.14,14.31-2.74,30.81-3.48,33.59c-0.41,1.43-1.05,2.22-1.79,2.22c-3.86,0-6.25-13.33-7.57-24.51
				c-1.06-9.03-1.58-19.41-1.58-31.73v-5.03H94.44l0.56-0.66c5.18-6.04,10.58-13.68,16.06-22.7l0.74-1.21v15.2h105.98v-17.76H113.17
				l0.34-0.6c2.04-3.57,3.65-6.6,4.53-8.54l0.11-0.23h110.14v-21.08H126.95l0.18-0.53c0.95-2.71,1.6-4.94,2.07-6.56
				c0.09-0.31,0.18-0.61,0.26-0.88l-24.78-5.09c-6.74,21.46-17.41,40.94-31.72,57.92l18.19,12.3v20.82h65.09l-0.6,0.67
				c-6.5,7.2-13.7,14.04-21.4,20.34L134,379.5l-0.25-0.17c-10.26-7.23-20.33-13.87-30.79-20.29l-0.17-0.11l-0.01,0.01l-13.56,17.68
				c8.46,5.36,16.88,11.15,25.02,16.75l0.49,0.34l-0.5,0.32C101.99,402.03,89.28,408.58,76.44,413.52z M104.58,359.09
				c9.96,6.15,19.58,12.51,29.38,19.41c7.34-6.03,14.23-12.55,20.48-19.41H104.58z"/>
		</g>
	</g>
</g>
</svg>
