<?xml version="1.0" encoding="utf-8"?>
<!-- Generator: Adobe Illustrator 25.0.0, SVG Export Plug-In . SVG Version: 6.00 Build 0)  -->
<svg version="1.1" id="Capa_1" xmlns="http://www.w3.org/2000/svg" xmlns:xlink="http://www.w3.org/1999/xlink" x="0px" y="0px"
	 viewBox="0 0 500 500" style="enable-background:new 0 0 500 500;" xml:space="preserve">
<style type="text/css">
	.st0{fill:#6600FF;}
	.st1{fill:#1D1D1B;}
	.st2{fill:#FFFFFF;}
</style>
<g>
	<g>
		<path class="st0" d="M307.19,142.96c0.8-0.16,1.6-0.24,2.31-0.32c1.2-0.16,2.31-0.24,3.51-0.88c0.8-0.48,1.52-1.04,2.23-1.68
			c1.04-0.88,2.08-1.76,3.59-2.23c0.88,0.56,1.84,1.2,2.71,1.84c-0.56,0-0.96,0-1.44,0.16c-1.44,0.32-2.39,1.12-3.43,2
			c-0.8,0.72-1.6,1.36-2.71,1.92c-1.52,0.88-2.95,0.96-4.31,1.12c-0.64,0.08-1.36,0.16-2.08,0.32c-2.15,0.48-4.15,2.15-3.75,4.47
			c0.48,3.35,6.62,5.99,10.69,5.35c2.87-0.4,2.71-2.08,2.63-2.63c0-0.24-0.24-0.56-0.48-0.72c-0.16-0.08-0.4-0.24-0.64-0.16
			c-0.4,0.08-0.8,0.08-1.04-0.24c-0.72-0.64-0.4-1.68,0.32-1.92c0.8-0.32,1.76-0.16,2.55,0.4c0.8,0.48,1.36,1.44,1.44,2.39
			c0.4,2.71-1.36,4.71-4.47,5.11c-4.63,0.72-12.37-2.07-13.17-7.26C301.04,146.23,304,143.6,307.19,142.96z"/>
	</g>
	<g>
		<path class="st0" d="M284.6,139.93c1.92-2.47,4.71-2.87,7.18-3.27c2.31-0.4,4.55-0.72,5.91-2.55c0.4-0.48,0.72-0.96,1.04-1.44
			c1.2-1.6,2.31-3.19,3.83-4.47c0.72,0.32,1.44,0.72,2.15,1.12c-1.68,1.2-2.87,2.87-4.23,4.71c-0.32,0.48-0.64,0.96-1.04,1.44
			c-1.92,2.63-4.79,3.03-7.34,3.43c-2.39,0.4-4.39,0.72-5.75,2.47c-0.32,0.4-0.56,0.88-0.72,1.6c-1.2,3.99-0.4,7.74,2.71,12.29
			c1.52,2.23,1.84,4.71,2.15,7.1c0.32,3.11,0.72,5.83,3.51,7.58c3.11,1.84,6.86,0.72,10.53-0.4c0.8-0.24,1.52-0.48,2.23-0.72
			c2.39-0.64,5.27-1.12,8.06,0.48l0.8,0.4c1.76,0.96,3.51,2,5.43,2.31c2.71,0.48,5.35-0.56,7.34-3.11c0.8-0.96,1.36-2.08,1.92-3.11
			c1.6-2.87,3.27-5.83,8.06-5.59c1.12,0.08,2.15-0.32,2.95-1.12c0.24-0.24,0.48-0.56,0.56-0.88c0.56,0.56,1.12,1.12,1.52,1.76
			c-0.16,0.24-0.32,0.48-0.56,0.72c-1.2,1.28-2.79,1.92-4.55,1.84c-3.51-0.24-4.47,1.6-6.07,4.39c-0.64,1.12-1.28,2.31-2.15,3.43
			c-2.55,3.19-5.91,4.55-9.42,3.91c-2.23-0.4-4.23-1.52-6.14-2.55l-0.72-0.4c-2.15-1.2-4.39-0.8-6.38-0.24
			c-0.72,0.16-1.52,0.4-2.23,0.64c-3.91,1.2-8.38,2.55-12.29,0.16c-3.75-2.23-4.23-5.91-4.63-9.18c-0.24-2.23-0.56-4.39-1.76-6.14
			c-3.43-5.11-4.39-9.5-3.03-14.21C283.72,141.61,284.04,140.73,284.6,139.93z"/>
	</g>
	<g>
		<g>
			<path class="st0" d="M115.51,251.05c0.24,1.14,0.46,2.28,0.71,3.41c2.11,9.71,3.69,19.58,6.52,29.07
				c2.21,7.42,6.06,14.34,8.99,21.56c0.88,2.17,1.15,4.53,2.39,6.64c2.35,4.01,5.48,7.41,8.46,10.85
				c9.91,11.42,20.95,21.66,33.6,30.05c1.5,0.99,2.99,2.09,5.24,1.29c-0.96-0.74-1.84-1.63-2.89-2.18
				c-12.11-6.38-21.53-15.91-30.61-25.88c-6.82-7.49-11.78-16.25-16.71-24.95c-2.16-3.82-2.71-8.57-3.92-12.92
				c-1.92-6.86-4.42-13.63-5.49-20.62c-1.31-8.53-1.39-17.24-2-25.87c0.32-0.04,0.64-0.07,0.96-0.11c0.85,4.78,1.64,9.58,2.57,14.35
				c0.96,4.87,2.12,9.71,3.1,14.58c0.96,4.79,0.46,9.96,3.89,14.56c-0.72-3.02-1.34-5.63-1.96-8.25c4.41,5.29,5.68,11.89,8.26,17.99
				c-3.92-15.99-8.71-31.83-8.01-48.57c1.37,5.03,2.74,10.06,4.11,15.1c0.18-0.03,0.36-0.06,0.54-0.1
				c-1.41-6.72-1.94-13.46-0.38-20.32c0.37,1.58,0.82,3.15,1.1,4.76c1.86,10.8,4.85,21.34,9.05,31.4
				c10.49,25.06,27.65,44.62,50.49,59.23c2.29,1.46,4.32,3.43,7.28,3.57c0.46,0.02,0.9,0.48,1.35,0.72c3.66,1.93,7.14,4.37,11,5.68
				c13.27,4.53,27.02,6.28,41.04,5.82c0.67-0.02,1.34-0.07,2-0.15c0.36-0.04,0.7-0.17,1.1-0.75c-2.78-0.25-5.59-0.35-8.33-0.81
				c-1.83-0.31-3.56-1.17-5.36-1.71c-1.5-0.45-3.02-0.79-4.58-1.19c-0.1,1.09-0.16,1.73-0.19,2.06c-5.11-1.31-10.13-2.65-15.17-3.86
				c-2.3-0.55-4.71-0.68-7-1.26c-2.01-0.51-3.92-1.4-5.87-2.12c0.08-0.26,0.17-0.53,0.25-0.79c3.71,0.81,7.41,1.68,11.14,2.42
				c5.38,1.07,10.75,2.34,16.19,2.99c4.84,0.58,9.79,0.82,14.64,0.52c5.13-0.31,10.27-1.16,15.3-2.27
				c10.09-2.23,18.76-7.68,27.51-12.87c1.01-0.6,1.84-1.5,2.93-1.95c-0.63,2.72-2.67,4.75-8.28,8.58c-3.35,2.29-6.8,4.45-10.28,6.72
				c8.98,0.17,34.97-21.27,41.93-34.47c-4.13,4.32-8.3,8.68-12.46,13.04c-0.24-0.21-0.47-0.41-0.71-0.62c0.72-0.97,1.37-2,2.17-2.9
				c3.81-4.35,7.91-8.47,11.41-13.05c3.18-4.16,5.85-8.72,8.5-13.24c5.96-10.18,9.41-21.22,11.65-32.79
				c1.28-6.63,3.2-13.21,2.77-19.94c-0.5-7.8-1.2-15.67-4.33-23.04c-2.08-4.91-3.65-10.08-6.05-14.82
				c-2.13-4.21-4.81-8.22-7.76-11.92c-8.85-11.09-18.63-21.16-31.51-27.77c-3.94-2.02-7.34-5.15-11.35-6.95
				c-4.43-1.98-9.22-3.24-13.96-4.4c-3.88-0.96-7.88-1.48-11.86-1.91c-6.4-0.69-12.66,0.65-18.93,1.65
				c-3.15,0.5-6.29,1.63-9.42,1.58c-9.38-0.16-16.89,5.11-25.18,8.09c-3.33,1.2-6.66,2.41-10.04,3.47
				c3.32-3.81,17.85-12.42,25.4-14.01c9.56-2.02,19.32-3.03,29.3-4.53c-1.8-0.26-3.47-0.78-5.11-0.67c-4.8,0.3-9.64,0.52-14.36,1.39
				c-6.63,1.22-13.34,2.48-19.7,4.65c-10.6,3.62-20.26,9.19-29.08,16.16c-1.4,1.1-2.82,2.16-4.23,3.25
				c-0.04,0.03-0.04,0.13-0.09,0.33c0.52-0.05,0.98-0.09,1.45-0.14c0.12,0.16,0.24,0.32,0.35,0.48c-1.06,0.9-2.19,1.73-3.18,2.7
				c-2.53,2.48-5.33,4.77-7.43,7.57c-5.1,6.84-9.74,13.99-11.9,22.42c-0.12,0.47-0.39,1.15-0.75,1.28c-2.21,0.8-2.53,2.89-3.5,4.61
				c-0.99,1.75-2.45,3.24-3.76,4.8c-0.56,0.67-1.78,1.2-1.82,1.85c-0.23,4.31-4.86,4.49-6.73,7.31c-0.01-1.08,0.04-2.17-0.03-3.25
				c-0.19-3.04-1.67-3.76-4.2-2.05c-0.37,0.25-0.68,0.57-1.25,1.04c-0.42-0.88-0.72-1.43-0.96-2c-0.45-1.06-1.49-1.68-2.09-2.41
				c-2.44-2.97-7.12-3.39-8.37-7.54c-0.1-0.34-0.32-0.7-0.58-0.94c-3.58-3.31-3.31-7.3-2.19-11.54c2.6-9.86,6.83-18.8,12.73-27.25
				c7.53-10.78,17.34-19.03,27.13-27.45c9.53-8.19,20.54-13.82,32.09-18.43c5.91-2.36,12.04-4.21,18.12-6.11
				c1.96-0.61,4.1-0.59,6.14-0.97c2.02-0.38,4.01-0.89,6.01-1.36c0.43-0.1,0.85-0.33,1.27-0.34c6.3-0.15,12.6-0.27,18.9-0.38
				c2.23-0.04,4.46-0.12,6.68-0.04c10.99,0.41,21.56,2.99,32.04,6.11c5.4,1.61,10.47,3.98,15.65,6.16
				c15.44,6.5,27.64,17.38,40.18,27.83c8.6,7.17,15.99,15.54,21.22,25.53c4.61,8.8,10.06,17.23,12.76,26.93
				c3,10.76,5.4,21.64,4.65,32.9c-0.73,10.88-1.65,21.75-2.85,32.59c-0.4,3.64-1.75,7.2-2.9,10.72
				c-5.98,18.33-14.61,35.16-27.73,49.56c-11.17,12.26-23.53,22.94-38.23,30.75c-8.83,4.69-18.38,7.52-27.67,11.05
				c-7.74,2.94-15.67,3.84-23.59,4.73c-6.19,0.7-12.6-0.05-18.87-0.69c-7.08-0.72-14.25-1.47-21.12-3.24
				c-8.24-2.12-16.35-4.96-24.26-8.14c-14.95-6.02-27.54-15.54-38.54-27.26c-2.15-2.29-4.89-4.04-7.09-6.3
				c-2.16-2.22-4.2-4.63-5.9-7.21c-3.31-5.02-6.38-10.19-9.48-15.35c-1.39-2.31-3.13-4.48-2.73-7.53c0.11-0.81-0.61-1.76-1.04-2.6
				c-0.78-1.54-1.98-2.96-2.4-4.59c-1.81-6.95-3.72-13.9-4.96-20.96c-0.91-5.15-0.86-10.48-1.19-15.73
				c-0.17-2.65-0.23-5.3-0.34-7.95C115.1,251.13,115.31,251.09,115.51,251.05z M333.14,192.84c3.55,6.56,7.11,13.12,10.45,19.28
				c-0.05-0.24-0.07-1.07-0.38-1.77c-2.16-4.84-4.42-9.65-6.58-14.49c-0.72-1.62-1.82-2.64-3.55-2.98c1.55-0.45,0.84-1.34,0.39-2.14
				c-3.95-6.98-9.5-12.45-16.13-16.86c-0.05-0.03-0.2,0.09-0.51,0.23c3.32,3.78,6.59,7.5,9.85,11.23
				C328.85,187.83,330.99,190.34,333.14,192.84z M303.52,358.63c10.1-4.06,29.21-19.93,38.41-31.46
				c10.61-13.3,23.44-39.37,21.93-44.08c-1.37,3.42-2.67,7.13-4.31,10.68c-5.13,11.08-11.68,21.29-19.06,30.99
				c-1.68,5.83-6.72,8.9-10.69,12.78c-6.19,6.05-12.03,12.55-19.83,16.74C307.7,355.51,305.66,357.17,303.52,358.63z M247.13,370.56
				c18.87,4.24,52.55-7.16,64.24-21.39c-6.55,3.74-13.88,7.89-21.18,12.11c-6.91,3.99-14.57,6.03-22.23,7.54
				c-6.11,1.2-12.51,0.92-18.78,1.32C248.49,370.18,247.81,370.42,247.13,370.56z M297.95,354.83c0.14,0.15,0.28,0.3,0.42,0.45
				c1.25-0.78,2.48-1.6,3.75-2.34c15.27-8.98,27.79-20.94,37.94-35.39c1.5-2.14,2.44-4.67,3.63-7.02c-0.22-0.11-0.43-0.23-0.65-0.34
				c-0.46,0.64-0.9,1.29-1.37,1.92c-4,5.42-7.58,11.22-12.1,16.16c-8.74,9.53-18.36,18.14-29.64,24.7
				C299.17,353.4,298.6,354.2,297.95,354.83z M349.31,291.69c-6.88,14.92-16.39,28.07-27.11,40.41
				C335.51,321.5,343.09,307.06,349.31,291.69z M163.87,326.61c0.3-0.26,0.6-0.52,0.91-0.78c-10.66-9.72-16.23-22.92-24.37-34.39
				c3.71,7.17,7.7,14.17,11.75,21.14c1.35,2.32,2.61,4.76,4.34,6.78C158.73,321.97,161.39,324.21,163.87,326.61z M169.33,352.29
				c5.41,5.48,11.39,9.99,19.19,11.34C182.12,359.85,175.73,356.07,169.33,352.29z M289.25,155.96c6.5,3.79,13,7.58,19.49,11.38
				C303.32,161.7,296.63,158.22,289.25,155.96z M165.33,336.05c-5.1-5.81-9.9-11.27-14.7-16.73
				C154.26,325.79,158.45,331.79,165.33,336.05z M270.99,366.29c-0.04-0.3-0.08-0.59-0.13-0.89c-5.63,0.82-11.27,1.65-16.9,2.47
				c0.04,0.25,0.07,0.49,0.11,0.74C259.71,367.84,265.35,367.06,270.99,366.29z M282.42,362.65c4.12-0.43,13.75-4.71,14.8-6.69
				C292.02,358.32,287.22,360.48,282.42,362.65z M347.66,221.79c-0.37,0.06-0.75,0.13-1.12,0.19c0.46,2.49,0.91,4.98,1.37,7.47
				c0.28-0.05,0.56-0.1,0.84-0.14C348.38,226.8,348.02,224.3,347.66,221.79z M183.45,355.32c-0.21,0.33-0.42,0.66-0.63,0.98
				c1.47,0.84,2.94,1.68,4.41,2.53c0.14-0.24,0.28-0.47,0.43-0.71C186.25,357.19,184.85,356.25,183.45,355.32z"/>
		</g>
		<g>
			<path class="st0" d="M168.1,189.33c3.74-5.86,7.98-10.95,14.15-14.18c-2.15,3.98-4.17,8.01-8.07,10.69
				c-1.11,0.76-2.19,1.73-2.94,2.84C170.4,189.94,169.6,190.25,168.1,189.33z"/>
		</g>
		<g>
			<path class="st0" d="M115.98,281.39c-3.2-3.02-3.62-4.03-2.09-4.8c-1.51-3.36-4.49-6.41-1.71-10.66
				C113.43,271.05,114.69,276.16,115.98,281.39z"/>
		</g>
		<g>
			<path class="st0" d="M150.3,225.5c-0.85,3.33-1.65,6.47-2.51,9.8c-2.21-1.17-1.82-3.04-1.63-4.68
				C146.47,227.77,147.84,226.06,150.3,225.5z"/>
		</g>
		<g>
			<path class="st0" d="M114.8,288.24c2.31,0.05,2.42,1.71,2.9,3.06c0.38,1.06,0.9,2.08,1.14,3.16c0.31,1.4,0.41,2.86,0.54,4.29
				c0.01,0.07-0.68,0.34-0.73,0.28c-0.82-1.09-1.59-2.22-2.37-3.35c-0.04-0.06-0.07-0.16-0.05-0.21
				C117.58,292.78,115.11,290.8,114.8,288.24z"/>
		</g>
		<g>
			<path class="st0" d="M121.4,219.54c-0.18-0.59-0.7-1.43-0.48-1.73c0.59-0.8,1.49-1.37,2.27-2.03c0.28,0.58,0.95,1.34,0.78,1.71
				c-0.39,0.86-1.19,1.53-1.83,2.28C121.89,219.7,121.65,219.62,121.4,219.54z"/>
		</g>
		<g>
			<path class="st0" d="M188.36,173.61c-0.56-1.14-1.21-2.21-1.11-2.28c0.89-0.66,1.91-1.14,2.89-1.68
				c0.24,0.52,0.82,1.27,0.66,1.51C190.24,171.97,189.41,172.6,188.36,173.61z"/>
		</g>
		<g>
			<path class="st0" d="M142.52,262.38c-1.95-1.3-2.31-2.87-2.04-4.8C142.44,258.05,143.09,259.51,142.52,262.38z"/>
		</g>
		<g>
			<path class="st0" d="M253.55,160.16c2.74-1.05,4.32-0.73,5.79,0.93C257.28,160.76,255.42,160.46,253.55,160.16z"/>
		</g>
	</g>
	<g>
		<g>
			<path class="st1" d="M341.9,158.21c-0.08,0.32-0.32,0.64-0.56,0.88c-0.8,0.8-1.84,1.2-2.95,1.12c-4.79-0.24-6.46,2.71-8.06,5.59
				c-0.56,1.04-1.12,2.15-1.92,3.11c-2,2.55-4.63,3.59-7.34,3.11c-1.92-0.32-3.67-1.36-5.43-2.31l-0.8-0.4
				c-2.79-1.6-5.67-1.12-8.06-0.48c-0.72,0.24-1.44,0.48-2.23,0.72c-3.67,1.12-7.42,2.23-10.53,0.4c-2.79-1.76-3.19-4.47-3.51-7.58
				c-0.32-2.39-0.64-4.87-2.15-7.1c-3.11-4.55-3.91-8.3-2.71-12.29c0.16-0.72,0.4-1.2,0.72-1.6c1.36-1.76,3.35-2.08,5.75-2.47
				c2.55-0.4,5.43-0.8,7.34-3.43c0.4-0.48,0.72-0.96,1.04-1.44c1.36-1.84,2.55-3.51,4.23-4.71c4.87,2.55,9.58,5.35,14.13,8.54
				c-1.52,0.48-2.55,1.36-3.59,2.23c-0.72,0.64-1.44,1.2-2.23,1.68c-1.2,0.64-2.31,0.72-3.51,0.88c-0.72,0.08-1.52,0.16-2.31,0.32
				c-3.19,0.64-6.15,3.27-5.51,7.02c0.8,5.19,8.54,7.98,13.17,7.26c3.11-0.4,4.87-2.39,4.47-5.11c-0.08-0.96-0.64-1.92-1.44-2.39
				c-0.8-0.56-1.76-0.72-2.55-0.4c-0.72,0.24-1.04,1.28-0.32,1.92c0.24,0.32,0.64,0.32,1.04,0.24c0.24-0.08,0.48,0.08,0.64,0.16
				c0.24,0.16,0.48,0.48,0.48,0.72c0.08,0.56,0.24,2.23-2.63,2.63c-4.07,0.64-10.22-2-10.69-5.35c-0.4-2.31,1.6-3.99,3.75-4.47
				c0.72-0.16,1.44-0.24,2.08-0.32c1.36-0.16,2.79-0.24,4.31-1.12c1.12-0.56,1.92-1.2,2.71-1.92c1.04-0.88,2-1.68,3.43-2
				c0.48-0.16,0.88-0.16,1.44-0.16C328.97,145.12,335.84,151.34,341.9,158.21z"/>
		</g>
		<g>
			<path class="st1" d="M321.55,139.69c1.6-0.08,3.19,0.32,4.55,1.28c0.8,0.48,1.2,1.2,1.68,2.08c0.24,0.48,0.56,0.96,0.96,1.52
				c1.36,2,3.75,2.39,5.99,2.87c1.84,0.4,3.51,0.72,4.71,1.76c1.76,1.68,2.95,4.07,3.11,6.46c0.08,0.96-0.16,1.84-0.64,2.55
				C335.84,151.34,328.97,145.12,321.55,139.69z"/>
		</g>
		<g>
			<path class="st1" d="M348.37,165.87c-1.2,0.96-2.63,1.68-4.07,2.15c-0.56,0.16-1.04,0.24-1.52,0.4
				c-1.44,0.32-2.95,0.64-4.31,2.31c-0.88,1.04-1.52,2.15-2.08,3.27c-0.64,0.96-1.12,1.92-1.84,2.79
				c-5.19,6.46-16.52,8.54-23.62,4.39c-1.52-0.88-3.19-1.36-4.47-1.68c-2.95-0.72-6.46,0-9.5,0.64c-1.2,0.24-2.23,0.48-3.27,0.64
				c-1.68,0.16-3.67,0.4-5.59-0.08c-3.91-1.04-5.19-5.19-6.38-9.18c-0.16-0.56-0.32-1.04-0.48-1.6c-1.36-4.31-4.39-7.66-7.34-10.85
				l-0.4-0.4c-1.84-2.07-3.43-4.39-4.71-6.46c-2.79-4.31-3.67-8.46-2.87-12.93c0.88-4.63,3.43-7.98,7.26-9.42
				c1.6-0.56,3.19-0.72,4.87-0.88c1.84-0.16,3.83-0.32,5.75-1.12c2.63-1.12,4.71-3.03,6.46-5.03c4.23,1.52,8.3,3.35,12.29,5.35
				c-1.52,1.28-2.63,2.87-3.83,4.47c-0.32,0.48-0.64,0.96-1.04,1.44c-1.36,1.84-3.59,2.15-5.91,2.55c-2.47,0.4-5.27,0.8-7.18,3.27
				c-0.56,0.8-0.88,1.68-1.12,2.39c-1.36,4.71-0.4,9.1,3.03,14.21c1.2,1.76,1.52,3.91,1.76,6.14c0.4,3.27,0.88,6.94,4.63,9.18
				c3.91,2.39,8.38,1.04,12.29-0.16c0.72-0.24,1.52-0.48,2.23-0.64c2-0.56,4.23-0.96,6.38,0.24l0.72,0.4
				c1.92,1.04,3.91,2.15,6.14,2.55c3.51,0.64,6.86-0.72,9.42-3.91c0.88-1.12,1.52-2.31,2.15-3.43c1.6-2.79,2.55-4.63,6.07-4.39
				c1.76,0.08,3.35-0.56,4.55-1.84c0.24-0.24,0.4-0.48,0.56-0.72C345.17,161.88,346.85,163.87,348.37,165.87z"/>
		</g>
		<g>
			<path class="st1" d="M340.87,147.51c-1.6-1.52-3.67-1.92-5.75-2.31c-1.92-0.4-3.75-0.72-4.63-2c-0.32-0.4-0.56-0.88-0.8-1.28
				c-0.56-1.04-1.12-2.08-2.39-2.87c-2.23-1.52-5.03-2-7.66-1.44c-0.32,0.08-0.56,0.16-0.8,0.24c-4.55-3.19-9.26-5.99-14.13-8.54
				c0.48-0.4,0.96-0.72,1.6-1.04c2.23-1.04,5.03-1.6,8.54-1.6c5.19,0,9.26,2.79,12.53,5.59c2.87,2.39,5.19,1.52,7.42,0.72
				c0.8-0.24,1.52-0.56,2.39-0.72c3.59-0.8,6.94,0.24,9.1,2.63c2.55,2.79,2.31,5.83,2.08,9.66c0,0.48-0.08,1.04-0.08,1.6
				c-0.16,2.79,0.8,5.19,1.76,7.5c0.56,1.44,1.12,2.79,1.44,4.31c0.56,2.95,0,5.19-1.68,6.78c-0.4,0.4-0.88,0.8-1.44,1.12
				c-1.52-2-3.19-3.99-4.95-5.91c0.96-1.2,1.44-2.79,1.28-4.39C344.54,152.54,343.1,149.59,340.87,147.51z"/>
		</g>
		<g>
			<path class="st1" d="M421.71,108.89c-0.24,0-0.48,0-0.8-0.08c-1.36-0.08-2.71-0.64-4.15-1.2c-2.39-0.88-4.95-1.84-7.58-1.12
				c-3.35,0.88-5.19,3.83-4.55,7.18c0.4,2.47,1.76,4.31,3.03,6.07c0.88,1.28,1.68,2.39,2.23,3.75c0.96,2.55,1.44,5.35,1.2,8.06
				c-0.48,5.83-3.75,10.45-8.54,12.13c-0.72,0.24-1.52,0.4-2.31,0.56c-1.6,0.32-3.27,0.64-4.71,1.76c-2.55,1.92-3.75,4.71-4.87,7.42
				c-1.28,3.11-2.39,5.83-5.43,6.94c-4.79,1.76-9.34-1.36-11.65-3.35c-0.08-0.08-0.16-0.16-0.32-0.16
				c-1.12-1.12-2.55-1.52-3.83-1.92c-0.48-0.16-1.04-0.24-1.52-0.48c-2.08-0.8-3.83-2.39-4.63-4.31c-0.96-2.15-0.48-4.15,1.28-5.19
				c2-1.2,5.03-0.96,6.7,1.52c0.32,0.48,0.72,1.2,0.64,1.92c0,0.32-0.08,1.2-1.84,1.44c-0.56,0.08-1.04,0.72-0.88,1.28
				c0.08,0.64,0.64,1.04,1.2,0.96c3.03-0.48,3.67-2.39,3.75-3.51s-0.32-2.31-1.12-3.43c-2.39-3.43-6.78-3.83-9.58-2.15
				c-2.71,1.68-3.59,4.87-2.15,8.14c1.04,2.47,3.27,4.47,5.91,5.51c0.56,0.24,1.12,0.4,1.68,0.56c1.44,0.4,2.55,0.64,3.35,1.76
				c0.64,0.96,0.8,1.92,0.48,2.95c-0.64,1.84-2.55,3.43-4.23,4.07c-0.32,0.08-0.8,0.24-1.36,0.32c-1.76,0.4-4.23,0.96-4.79,3.27
				c-0.16,0.64-0.16,1.28-0.16,1.76c0.08,0.24,0.08,0.48,0.08,0.72c-0.08,0.4-0.24,0.88-0.4,1.36l-0.16,0.32
				c-0.24,0.64-0.56,1.12-1.04,1.76c-1.04,1.44-2.31,2.31-3.83,2.79c-0.64,0.16-1.28,0.24-1.92,0.24c-2.31,0-4.23-1.44-6.23-3.03
				c-2.47-1.84-5.19-3.91-8.78-2.95c0.08-0.08,0.16-0.24,0.24-0.32c0.88-1.04,1.76-1.28,3.11-1.6c0.48-0.08,1.04-0.24,1.68-0.4
				c1.76-0.56,3.43-1.44,4.87-2.55c0.56-0.32,1.04-0.72,1.52-1.2c2.23-2.15,2.95-5.19,2.31-8.86c-0.32-1.76-0.96-3.35-1.6-4.79
				c-0.88-2.15-1.68-4.23-1.6-6.54c0.08-0.48,0.08-1.04,0.16-1.52c0.24-4.07,0.48-7.82-2.71-11.41c-2.63-2.95-6.78-4.15-11.17-3.27
				c-0.96,0.16-1.84,0.56-2.63,0.8c-2.15,0.8-3.43,1.28-5.35-0.32c-3.59-3.03-7.98-6.15-13.89-6.15c-3.83,0-6.94,0.64-9.5,1.92
				c-1.12,0.56-2,1.2-2.79,1.92c-3.99-2-8.06-3.83-12.29-5.35c0.8-0.8,1.44-1.68,2.15-2.47c1.6-2,3.11-3.91,5.03-5.35
				c6.54-5.03,15.16-5.99,23.54-2.71c2.31,0.96,4.23,2.79,6.07,4.55c0.72,0.72,1.36,1.36,2.08,2c1.44,1.28,3.11,0.56,4.15,0.16
				l0.24-0.08c4.71-1.84,8.94,1.12,13.01,3.99c0.4,0.24,0.8,0.56,1.2,0.8c3.03,2.07,7.74,4.87,12.45,4.31
				c4.55-0.48,8.86-5.11,9.18-9.9c0.08-2.15-1.04-5.19-2.79-7.18c-1.2-1.28-2.55-2.08-3.91-2.08c-1.84-0.08-3.27,0.56-4.07,1.68
				c-0.88,1.2-0.88,2.87-0.24,4.87c0.24,0.72,1.04,1.04,1.68,0.64c0.4-0.32,0.56-0.88,0.4-1.36c-0.32-0.96-0.56-2.15-0.08-2.79
				c0.4-0.48,1.2-0.8,2.23-0.72c0.96,0,1.84,0.72,2.31,1.36c1.52,1.68,2.31,4.15,2.23,5.51c0,0.64-0.16,1.28-0.4,1.84
				c-0.48,1.36-1.44,2.39-2.71,2.95c-4.47,1.92-9.18,0.24-12.21-4.55c-1.68-2.71-3.19-6.78-2.39-10.06c0.4-1.52,1.28-2.71,2.71-3.59
				c1.6-0.88,3.75-0.88,5.19-0.72c0.48,0,0.96,0.08,1.44,0.16c1.36,0.24,2.79,0.48,4.47-0.24c1.12-0.56,2.23-1.2,3.27-1.92
				c2.15-1.36,4.39-2.79,6.7-2.55c4.55,0.4,4.87,3.35,5.03,8.62c0,1.36,0.08,2.79,0.24,4.15c0.24,1.84,1.36,3.59,2.47,5.27
				c0.96,1.6,2.08,3.35,1.76,4.23c-0.24,0.48-1.04,0.96-2.47,1.28c-3.43,0.72-6.54,4.79-6.7,8.54c-0.08,2.79,1.44,4.87,4.15,5.67
				c2.39,0.72,5.35,0.08,7.82-1.76c0.88-0.64,1.76-1.52,2.63-2.39c1.92-1.92,3.75-3.75,6.15-3.51c1.44,0.16,2.63,1.2,3.27,2.79
				c0.24,0.56,0.32,1.2,0.32,1.84c0,2-1.2,3.51-3.59,4.55c-0.56,0.24-0.88,0.8-0.64,1.36c0.16,0.56,0.56,0.8,1.04,0.8
				c0.16,0,0.24,0,0.4-0.08c2.87-1.2,4.55-3.11,4.95-5.59c0.24-1.92-0.24-3.83-1.36-5.35c0-0.08,0-0.08,0-0.08
				c0.08,0,0.08-0.08,0.16-0.16c1.6-2.47,2.08-5.19,1.12-7.26c-0.64-1.52-1.68-2.63-2.79-3.67c-0.4-0.4-0.8-0.88-1.12-1.28
				c-1.6-1.84-2.15-3.99-1.52-6.14c0.8-3.11,3.19-5.67,6.54-7.02c3.11-1.28,6.7-1.44,10.06-0.48c1.68,0.48,3.19,1.12,4.39,2
				l0.32,0.16C417.64,107.13,419.47,108.41,421.71,108.89z"/>
		</g>
	</g>
	<g>
		<g>
			<path class="st1" d="M215.65,341.44c-3.03,6.23-9.02,11.01-15.64,12.45c-3.91,0.88-7.34,0.16-11.33-0.56h-0.24
				c-2.08-0.4-3.91-0.32-5.75-0.24c-1.12,0.08-2.23,0.16-3.43,0.08c-3.03-0.08-5.99-0.88-8.62-2.15c-4.95-2.55-8.62-7.18-9.82-12.45
				c-0.72-3.35,0.24-6.94,2.55-9.42c2.39-2.47,5.67-3.43,9.26-2.63c3.11,0.64,5.35-1.44,7.34-3.19c1.36-1.2,2.63-2.39,4.15-2.79
				c4.87-1.44,10.22-0.4,13.49,2.63c1.6,1.36,3.51,3.59,3.83,6.3c0.32,2.31-0.8,4.47-2.95,5.99c-2.47,1.6-6.3,2.31-9.42,0.32
				c-0.96-0.64-1.76-1.76-1.76-2.55c0-0.24,0.08-0.56,0.56-0.88c0.56-0.4,0.8-1.28,0.32-1.92c-0.4-0.64-1.28-0.8-1.84-0.4
				c-1.2,0.8-1.76,1.92-1.76,3.27c0.08,2,1.6,3.91,3.03,4.87c3.59,2.31,8.54,2.15,12.29-0.4c3.11-2.07,4.71-5.27,4.23-8.7
				c-0.48-3.51-2.87-6.3-4.71-8.06c-3.99-3.59-10.3-4.87-16.04-3.19c-2.08,0.56-3.75,2.08-5.19,3.35c-2.08,1.84-3.35,2.95-5.03,2.55
				c-4.47-0.96-8.78,0.32-11.73,3.51c-2.95,3.11-4.23,7.74-3.27,11.97c0.24,1.2,0.64,2.39,1.12,3.51c-1.36-1.76-2.87-3.27-4.23-4.39
				c-3.91-3.19-8.54-5.51-13.41-6.86c-4.55-5.35-8.54-11.01-12.13-17.08c2.63-2.63,6.46-4.47,9.98-4.63c1.52,0,2.95,0.16,4.47,0.32
				c2.79,0.32,5.75,0.64,8.78-0.4c3.67-1.36,5.91-4.63,7.82-7.5c0.72-1.04,1.44-2.08,2.15-2.95c3.19-3.83,6.54-6.15,10.53-7.26
				c6.62-2,14.21-1.36,19.95,1.52c8.86,4.47,14.44,12.05,14.44,19.79c0,3.43,2.47,5.99,4.87,8.38c1.52,1.6,3.03,3.19,3.83,4.87
				C218.36,331.07,218.12,336.41,215.65,341.44z"/>
		</g>
		<g>
			<path class="st1" d="M159.15,299.46c-0.24,0.32-0.56,0.72-0.8,1.12c-1.76,2.63-3.67,5.35-6.46,6.46
				c-2.47,0.88-4.95,0.56-7.58,0.24c-1.6-0.16-3.19-0.4-4.87-0.32c-3.91,0.08-8.22,2.08-11.25,4.95c-1.6-2.71-3.11-5.51-4.39-8.3
				c1.36,0.08,3.11-0.08,4.07-1.52c0.64-0.88,1.04-1.36,2-2c0.88-0.64,1.76-1.12,2.71-1.6c1.84-0.88,3.75-1.6,5.75-2
				c3.99-0.8,7.5-0.48,11.25,0.96c1.84,0.64,3.75,1.44,5.67,1.76c1.2,0.24,2.47,0.08,3.67,0.08
				C159.07,299.3,159.15,299.38,159.15,299.46z"/>
		</g>
		<g>
			<path class="st1" d="M141.67,331.46c-5.11-1.44-10.45-1.68-15.48-0.72c-1.12,0.24-2.23,0.64-3.27,0.96
				c-1.52,0.56-2.95,1.12-4.39,1.12c-1.2,0-2.55-0.4-3.99-0.72c-1.2-0.32-2.47-0.64-3.75-0.8c-3.91-0.32-7.74,0.16-11.49,1.2
				c0.16-0.32,0.24-0.72,0.4-1.04l0.08-0.4c0.56-1.6,0.24-3.27,0.24-4.79c0-1.68-0.32-3.27-0.72-4.71
				c-0.32-1.36-0.48-2.71-0.56-4.07c-0.08-0.88,0-1.76,0.08-2.71c0.16-1.76,0.64-3.43,1.44-4.95c1.28-2.31,3.59-4.07,5.83-5.19
				c2.23-1.12,4.71-1.68,7.18-1.92c1.52-0.16,3.03-0.16,4.63,0c0.8,0,1.68,0.16,2.55,0.4c0.72,0.16,1.36,0.48,2.15,0.48h1.2
				c1.28,2.79,2.79,5.59,4.39,8.3c-1.04,1.04-2,2.15-2.71,3.35c-1.84,3.03-2.08,6.38-0.72,9.34c0.32,0.72,1.2,0.96,1.84,0.64
				c0.72-0.32,0.96-1.2,0.64-1.84c-1.28-2.71-0.4-5.11,0.56-6.7c0.48-0.8,1.12-1.6,1.76-2.31
				C133.13,320.45,137.12,326.12,141.67,331.46z"/>
		</g>
		<g>
			<path class="st1" d="M220.12,348.94c-0.56,0.48-0.72,1.28-0.32,1.92c2,3.03,1.44,5.99-1.6,8.3c-2.31,1.68-7.42,2.55-12.85,3.51
				c-4.47,0.8-9.1,1.6-12.93,2.95c-1.6,0.4-3.11,0.88-4.63,1.36c-0.08,0-0.08,0-0.08,0c-8.62-3.91-16.68-8.78-24.1-14.52h-0.08
				c-0.08-1.6-0.56-3.19-1.2-4.71c1.92,2.39,4.31,4.39,7.1,5.75c2.95,1.52,6.3,2.39,9.74,2.47c1.28,0.08,2.47,0,3.67-0.08
				c1.76-0.08,3.35-0.16,5.11,0.16l0.24,0.08c2.71,0.48,5.27,0.96,7.98,0.96c1.44,0,2.87-0.16,4.39-0.48
				c7.42-1.6,14.13-6.86,17.56-13.89c2.31-4.71,2.87-9.74,1.76-14.29c3.11,2.47,5.03,6.15,5.19,10.06
				C225.23,342.72,223.47,346.47,220.12,348.94z"/>
		</g>
		<g>
			<path class="st1" d="M288.43,411.83c-3.27,0.24-6.7,1.28-9.02,2.08c-4.23,1.52-8.06,3.67-11.73,5.75c-0.96,0.56-2,1.2-3.03,1.84
				c-5.83,3.51-11.73,7.1-18.36,7.42c-3.11,0.08-6.23-0.72-9.1-2.31c-1.76-1.04-3.27-2.23-4.71-3.35c-2-1.6-3.91-3.11-6.38-4.07
				c0.4-0.08,0.88-0.24,1.28-0.4c5.91-2.15,10.93-4.07,15.48,0.24c0.56,0.48,1.44,0.48,1.92-0.08c0.48-0.64,0.48-1.52-0.08-2
				c-5.75-5.43-12.37-2.95-18.2-0.88c-3.51,1.36-6.86,2.55-9.98,2.31c-3.67-0.24-5.03-2.31-6.22-5.91
				c-1.44-4.15-5.59-7.18-10.69-7.82c-9.18-1.04-15.56,3.99-21.71,8.78c-4.07,3.19-8.3,6.46-13.17,7.82
				c-6.78,2-11.33-0.72-14.84-8.7c-1.6-3.51-4.39-6.54-7.74-7.98c5.27-1.44,10.22-2,14.6,2c0.56,0.48,1.36,0.4,1.92-0.16
				c0.48-0.56,0.4-1.52-0.16-2c-6.46-5.83-13.97-3.51-20.59-1.52c-0.88,0.24-1.68,0.48-2.55,0.72c-8.7,2.55-23.86,2.79-30.41-4.47
				c-1.84-2-2.87-4.55-3.35-8.14c-0.08-0.56-0.08-1.12-0.16-1.76c0-2.08,0-5.27-3.75-5.99c-8.46-1.68-14.68-4.15-17.56-11.01
				c-3.35-7.82-2.08-17.16,3.27-24.98c3.51-4.95,8.22-8.78,13.57-10.93c0.4,0,0.64-0.16,0.88-0.4c4.07-1.52,8.38-2.15,12.69-1.76
				c1.12,0.08,2.23,0.32,3.35,0.64c1.52,0.4,3.11,0.8,4.71,0.8c1.84,0,3.51-0.64,5.19-1.2c1.04-0.4,1.92-0.72,2.87-0.88
				c6.07-1.28,12.77-0.4,18.67,2.15c0.08,0,0.08,0.08,0.08,0.08c2.87,1.2,5.59,2.79,7.98,4.71c2.71,2.31,5.51,5.75,6.86,9.34v0.08
				c0.4,1.2,0.72,2.39,0.72,3.51c0.16,2.39-0.64,4.47-2.39,6.15c-1.12,1.12-4.95,3.99-6.3,4.31c-0.4-0.32-0.96-0.4-1.44-0.08
				c-0.4,0.24-0.64,0.72-0.64,1.2c0,0.24,0,0.48,0.16,0.72c3.19,5.59,3.11,10.3-0.16,14.6c-5.35,7.18-16.92,7.66-24.26,3.51
				c-2.47-1.36-4.39-3.27-5.27-5.19c-0.4-0.88-0.48-1.52-0.64-2.15c-0.32-2-1.04-2.79-4.07-3.43c-1.12-0.16-2.08-0.32-3.03-0.48
				c-3.75-0.56-6.7-1.04-9.42-3.99c-4.07-4.55-4.71-10.85-1.52-15.64c3.67-5.59,10.29-8.06,17.24-6.3c0.56,0.16,1.04,0.24,1.44,0.4
				c1.6,0.48,3.03,0.88,5.19,0.56c0.88-0.08,1.6-0.32,2.31-0.48c1.12-0.4,2.08-0.64,3.11-0.4c2.55,0.56,5.03,2.23,7.5,5.03
				c1.44,1.6,2.31,2.95,2.71,4.23c0.72,2,0.08,3.67-0.56,4.71c-1.2,2-3.59,3.51-6.23,3.83c-2.47,0.32-4.71-1.04-5.75-2.55
				c-0.4-0.64-0.56-1.2-0.4-1.6c0.24-0.4,1.12-0.88,2.87-0.88c0.8,0,1.36-0.56,1.36-1.36c0-0.8-0.56-1.44-1.36-1.44
				c-3.35,0-4.71,1.28-5.27,2.39c-0.64,1.28-0.48,2.95,0.56,4.47c1.44,2.15,4.63,4.23,8.3,3.75c3.43-0.4,6.54-2.39,8.22-5.19
				c1.36-2.15,1.6-4.71,0.8-7.02c-0.72-2.23-2.15-3.99-3.27-5.27c-2.79-3.19-5.83-5.11-8.86-5.91c-1.76-0.4-3.19,0.08-4.55,0.48
				c-0.64,0.16-1.2,0.4-1.84,0.48c-1.68,0.16-2.63-0.08-4.07-0.56c-0.48-0.16-1.04-0.24-1.6-0.4c-8.06-2-15.8,0.88-20.11,7.42
				c-3.91,5.91-3.19,13.65,1.76,19.15c3.35,3.67,7.1,4.23,11.01,4.87c0.96,0.16,1.92,0.24,2.87,0.48c1.52,0.24,1.84,0.48,1.84,0.56
				c0.08,0.08,0.08,0.4,0.16,0.56c0.08,0.72,0.24,1.6,0.8,2.87c1.52,3.35,4.71,5.51,6.46,6.46c8.3,4.63,21.31,4.31,27.69-4.31
				c3.59-4.71,3.99-9.9,1.36-15.72c2.87-1.2,6.7-4.63,6.7-4.71c2.31-2.23,3.43-5.11,3.27-8.22c0-0.32,0-0.56-0.08-0.88
				c7.42,5.75,15.48,10.61,24.1,14.52c-7.18,2.31-13.17,5.51-14.37,11.65c-1.28,6.46,1.52,11.01,8.62,13.89
				c2.07,0.88,4.15,1.28,6.14,1.28c0.56,0,1.12,0,1.68-0.08c0.72-0.08,1.28-0.8,1.2-1.6c-0.16-0.72-0.8-1.28-1.52-1.2
				c-2.08,0.24-4.31-0.08-6.46-0.96c-5.83-2.39-7.98-5.75-7.02-10.77c0.8-3.83,4.47-6.38,9.1-8.3c-0.72,1.28-0.96,2.87-0.72,4.71
				c0.32,2.39,1.68,4.39,3.99,5.83c4.47,2.79,11.33,2.95,15.48,1.44c1.36-0.48,2.71-1.12,4.15-1.84c3.35-1.6,6.78-3.19,10.06-2.79
				c3.91,0.4,7.1,3.91,6.86,7.42c-0.24,3.67-3.67,6.46-7.98,6.46c-0.72,0-1.36,0.64-1.36,1.44c0,0.72,0.64,1.36,1.36,1.36
				c5.03,0,9.1-2.87,10.3-7.02c1.6,0.88,3.51,1.2,5.67,0.96c1.2-0.16,2.23-0.48,3.27-0.8c1.12-0.4,2.15-0.72,3.19-0.72h0.24
				c1.44-0.08,2.71-0.16,3.99,1.28c0.48,0.56,0.4,1.12,0.16,2.39c-0.16,0.48-0.24,0.96-0.32,1.52c-0.08,1.52,1.44,2.23,2.55,2.71
				c0.24,0.08,0.56,0.24,0.64,0.32c0.72,0.56,1.28,1.36,1.44,2.23c0.16,1.36-0.08,2.31-0.96,3.03c-2.31,2.08-8.46,1.76-11.81,0.64
				c-1.68-0.56-3.19-1.84-3.19-2.23c0-0.08,0.08-0.24,0.48-0.56c0.48-0.32,1.6-0.24,2.79,0.24c0.64,0.24,1.44-0.16,1.68-0.88
				c0.24-0.72-0.08-1.52-0.8-1.76c-1.2-0.48-3.51-1.04-5.11,0.08c-1.76,1.12-1.84,2.47-1.76,3.19c0.32,2.39,3.43,4.07,5.11,4.63
				c1.76,0.56,4.23,0.96,6.7,0.96c0.96,0,1.92,0,2.87-0.16v0.4c0.96,6.38,6.23,10.53,13.89,10.85c4.71,0.16,9.34-1.12,13.73-2.31
				c2.23-0.64,4.39-1.2,6.54-1.6C280.53,411.83,284.84,411.27,288.43,411.83z"/>
		</g>
	</g>
	<g>
		<g>
			<path d="M259.81,235.37h-28.8v-26.08h-33.96v-17.03c-8.41,9.43-15.87,16.93-22.8,22.89l-0.36,0.31l-14.77-24.67l0.25-0.22
				c26.51-23.38,46.27-46.82,58.76-69.67h-51.54V96.64h64.42V71.09h28.8v25.56h64.42v24.25h-51.54
				c12.49,22.85,32.25,46.28,58.76,69.67l0.25,0.22l-0.17,0.28l-14.6,24.39l-0.36-0.31c-6.93-5.96-14.39-13.45-22.8-22.89v17.03
				h-33.96V235.37z M231.8,234.58h27.21V208.5h33.96v-18.33l0.7,0.78c8.52,9.61,16.07,17.23,23.06,23.28l13.94-23.29
				c-26.68-23.58-46.53-47.22-59.01-70.26l-0.32-0.59h52.08V97.44h-64.42V71.88H231.8v25.56h-64.42v22.66h52.09l-0.32,0.59
				c-12.48,23.05-32.33,46.68-59.01,70.26l13.94,23.29c6.99-6.05,14.54-13.67,23.06-23.28l0.7-0.78v18.33h33.96V234.58z
				 M289.84,186.54h-30.83v-43.12l0.74,1.21c8.76,14.38,18.43,27.88,29.55,41.26L289.84,186.54z M259.81,185.74h28.34
				c-10.61-12.83-19.89-25.77-28.34-39.5V185.74z M231.8,186.54h-30.83l0.54-0.65c11.12-13.39,20.79-26.88,29.55-41.26l0.74-1.21
				V186.54z M202.67,185.74h28.34v-39.5C222.57,159.97,213.28,172.91,202.67,185.74z"/>
		</g>
		<g>
			<path d="M243.26,409.69l-18.24-18.96l0.39-0.27c32-21.97,57.45-58.81,69.88-101.15h-5.14c-11.65,33.95-31.61,64.59-53.42,82.01
				l-0.28,0.23l-17.05-17.75c-0.19,0.06-0.39,0.09-0.62,0.13c-0.22,0.04-0.47,0.08-0.76,0.15c-0.53,0.13-0.96,0.27-1.27,0.4v54.23
				h-27.23v-47.52c-9.38,1.99-17.76,3.61-24.92,4.8l-0.42,0.07l-0.04-0.42l-2.31-23.3l0.36-0.06c9.26-1.6,18.45-3.34,27.33-5.18
				v-39.19h-4.67c-0.79,8.19-2.17,17.56-4.35,29.43l-0.08,0.42l-20.38-5.46l0.07-0.36c3.63-19.21,5.92-41.01,6.99-66.63l0.02-0.41
				l20.57,1.64l-0.11,2.86c-0.15,4-0.34,8.96-0.75,14.96h2.68V247.9h27.23v26.43h12.78v16.03c7.46-13.41,13.2-28.65,17.07-45.31
				l0.08-0.35l0.35,0.04l26,3.03l-0.11,0.44c-1.07,4.45-2.59,9.66-4.91,16.84h57.79l0,0.4c-0.15,20.06-0.44,39.62-0.87,58.12
				c-0.67,28.79-2.88,52.53-4.55,64.11c-0.86,5.47-2.25,9.81-4.25,13.27c-4.27,6.59-7.4,6.85-14.7,6.85
				c-8.53,0-19.13-0.34-32.4-1.05l-0.35-0.02l-0.02-0.36l-1-17.95c-6.97,7.7-14.86,14.6-24.11,21.05L243.26,409.69z M226.24,390.85
				l17.12,17.8c9.36-6.56,17.32-13.58,24.33-21.45l0.64-0.72l1.08,19.51c13.1,0.69,23.57,1.03,32,1.03c7.3,0,10.03-0.31,14.02-6.47
				c1.94-3.36,3.3-7.61,4.14-12.97c1.67-11.56,3.87-35.26,4.54-64.01c0.43-18.38,0.72-37.79,0.87-57.71h-58.08l0.17-0.52
				c2.33-7.19,3.87-12.42,4.96-16.86l-24.76-2.88c-4.02,17.15-10.01,32.79-17.82,46.5l-0.74,1.31v-18.26h-12.78V248.7h-25.64v26.43
				h-4.32l0.03-0.43c0.43-6.19,0.62-11.28,0.78-15.37l0.08-2.1l-18.99-1.51c-1.07,25.32-3.34,46.91-6.92,65.97l18.83,5.04
				c2.16-11.82,3.52-21.14,4.3-29.3l0.03-0.36h6.18v40.63l-0.32,0.07c-8.87,1.84-18.05,3.58-27.3,5.19l2.2,22.14
				c7.18-1.2,15.56-2.83,24.94-4.83l0.48-0.1v47.71h25.64v-53.94l0.22-0.11c0.38-0.19,0.92-0.37,1.66-0.55
				c0.3-0.08,0.58-0.12,0.82-0.16c0.29-0.05,0.53-0.09,0.67-0.16l0.26-0.13l0.2,0.21l16.73,17.42
				c21.64-17.41,41.43-47.91,52.98-81.69l0.09-0.27h6.77l-0.15,0.51C283.82,331.58,258.33,368.66,226.24,390.85z M288.64,384.18
				c-5.97,0-11.48-0.23-16.84-0.7l-0.76-0.07l0.49-0.58c9.38-11.3,17.67-23.82,24.63-37.21l0.75,0.21
				c-0.39,7.36-1.87,31.7-4.44,35.89C291.59,383.33,290.26,384.18,288.64,384.18z M272.63,382.76c5.1,0.43,10.34,0.63,16.01,0.63
				c1.33,0,2.39-0.7,3.15-2.07c1.59-2.61,3.2-15.45,4.23-33.71C289.34,360.21,281.48,372.03,272.63,382.76z M230.72,343.57
				l-1.08-16.14c-4.18,1.31-7.55,2.27-10.29,3.04c-1.09,0.31-2.05,0.58-2.89,0.83l-0.51,0.15v-34.36h10.39l-0.39,0.61
				c-2.92,4.64-5.32,8.06-7.33,10.46l16.27,17.96c8.06-9.52,15.71-22.09,22.75-37.37l0.11-0.23h7.31l-0.21,0.54
				c-8.07,21.23-19.35,39.35-33.52,53.88L230.72,343.57z M230.37,326.37l1.03,15.37c13.68-14.21,24.62-31.84,32.52-52.42h-5.64
				c-7.13,15.43-14.89,28.1-23.06,37.67l-0.29,0.35l-17.35-19.15l0.23-0.27c1.95-2.27,4.27-5.56,7.11-10.02h-8.16v32.5
				c0.71-0.21,1.51-0.43,2.39-0.68c2.83-0.81,6.35-1.81,10.75-3.19L230.37,326.37z"/>
		</g>
	</g>
</g>
</svg>
