<?xml version="1.0" encoding="utf-8"?>
<!-- Generator: Adobe Illustrator 25.0.0, SVG Export Plug-In . SVG Version: 6.00 Build 0)  -->
<svg version="1.1" id="Capa_1" xmlns="http://www.w3.org/2000/svg" xmlns:xlink="http://www.w3.org/1999/xlink" x="0px" y="0px"
	 viewBox="0 0 500 500" style="enable-background:new 0 0 500 500;" xml:space="preserve">
<style type="text/css">
	.st0{fill:#6600FF;}
	.st1{fill:#1D1D1B;}
	.st2{fill:#FFFFFF;}
</style>
<g>
	<g>
		<g>
			<circle class="st0" cx="235.83" cy="273.57" r="132.49"/>
		</g>
		<g>
			<g>
				<path class="st1" d="M427.1,451.94c0.08-0.13,0.19-0.2,0.26-0.35c1.12-2.31,0.64-4.47,0.48-5.19c-0.16-0.64-0.56-3.11-2.79-5.11
					c-2.39-2.08-5.19-2.15-5.83-2.08l-1.71,0.4c-0.24-0.7-0.52-1.46-0.78-2.17l0,0v-67.04l-0.52-0.92
					c-5.75-10.13-22.55-36.53-54.48-62.82c-59.25-48.76-123.27-34.11-156.17-21.04c-20.14,8-64.33,33.9-71.96,51.7l16.55-7.8
					c15.65-13.72,39.06-28.81,58.36-36.47c6.38-2.54,14.04-5.11,22.59-7.25v15.11c-13.89,3.66-27.23,9.21-39.77,16.91l3.36,5.47
					c-14.41,3.56-29.07,8.93-43.2,16.86c-7.26,4.15-10.98,4.57-17.04,9.28c-0.56,0.4-8,5.42-8.48,5.74
					c-8.78,6.54-10.5,10.49-14.33,15.6c-6.07,9.42-12.59,17.42-18.42,29.39c-2.45,4.96-4.68,9.34-6.05,13.97
					c-22.52,5.44-44.77,11.92-66.45,19.99c23.2-5.3,46.36-10.37,69.64-14.68c23.3-4.14,46.65-7.87,70.11-10.1
					c23.46-2.15,47.1-3.12,70.72-3.3c11.82-0.14,23.66,0.02,35.49,0.54c3.48,0.07,6.96,0.24,10.43,0.4
					c10.64,14.08,19.85,28.48,24.8,40.62c-0.24,0.08-0.4,0.16-0.56,0.24c-1.2,0.56-2.31,1.28-3.11,2.23c-2.47,2.79-2,7.58-2,8.46
					c0,1.14,0.23,3.04,1.16,4.98c-25.29,3.13-50.54,6.48-75.7,10.49l-44.19,7.17c-14.68,2.5-29.4,5.6-44.07,7.4
					c29.79-1.15,59.44-5.45,89.07-8.52l88.84-10.28l88.82-10.14c14.81-1.68,29.63-3.21,44.47-4.62l44.55-4.37
					C468.48,450.32,447.78,450.91,427.1,451.94z M358.91,358.54c-10.37-8.93-20.37-15.6-29.49-20.7V320.4
					c9.83,5.54,19.78,12.89,29.49,22.41V358.54z M404.78,414.17c-5.21-8.72-10.58-16.48-15.99-23.59V375.4
					c8.66,10.58,15.52,20.3,19.97,28.43v17.7C407.55,419.07,406.25,416.6,404.78,414.17z M366.89,321.75
					c23.48,21.52,36.61,41.68,41.87,50.78v16.12c-9.73-14.39-24.15-31.36-41.87-49.19V321.75z M380.99,366.22h-0.18v14.49
					c-4.64-5.44-9.29-10.39-13.92-14.85v-14.99C371.9,356.08,376.6,361.21,380.99,366.22z M298.87,284.23
					c18.91,4.19,38.62,12.84,57.79,28.62c0.9,0.74,1.68,1.48,2.56,2.23h-0.31v16.82c-20.26-18.06-41.2-27.47-60.04-32.02V284.23z
					 M239.08,284.02c15.32-3.06,33.04-4.31,51.81-1.35v15.52c-15.96-2.84-29.99-2.42-40.09-1.21c-3.96,0.48-7.84,1.27-11.72,2.06
					V284.02z M251.76,304.91c3.71-0.45,8.04-0.76,12.76-0.85v13.85c-7.76-0.58-16.33-0.83-25.44-0.55v-10.22
					C243.27,306.24,247.48,305.43,251.76,304.91z M231.1,309.22v8.53c-9.94,0.65-20.38,1.99-31.03,4.3
					C209.98,316.5,220.35,312.23,231.1,309.22z M266.99,402.54c-11.85-1.29-23.75-2.23-35.67-2.85
					c-21.08-0.98-42.19-0.53-63.26,1.12c6.93-7.85,21.05-22.1,27.71-28.38c12.53-11.81,27.69-22.74,34.72-16.6
					c12.31,10.67,29.33,28.75,44.07,47.79C272.04,403.25,269.52,402.88,266.99,402.54z M274.86,318.88
					c-0.76-0.09-1.57-0.16-2.35-0.25v-14.5c5.7,0.25,11.88,0.92,18.39,2.16v15.21c-0.48-0.18-1.04-0.38-1.43-0.55
					C285.15,320.24,280.2,319.44,274.86,318.88z M298.84,324.3h0.03v-16.23c7.27,1.88,14.84,4.53,22.57,8.2v17.37
					C312.43,329.2,304.7,326.32,298.84,324.3z"/>
			</g>
			<g>
				<path class="st2" d="M313.14,374.26c-4.73-9.22-10.19-18.18-16.23-26.62c-8.53-11.91-18.36-23-29.18-32.9
					c-12.12-11.44-25.76-20.63-40.52-27.33c-11.85-5.37-24.39-9.15-37.72-11.27c-18.05-1.37-36.47,1.41-53.27,8.02
					c-3.59,1.42-6.94,2.99-10.16,4.63h-0.1v0.05c-17.01,8.64-29.05,19.81-36.63,28.51c-7.15,9.3-13.65,19.24-19.29,29.55
					c-4.73,8.64-8.94,17.65-12.5,26.8l-0.35,49.2l10.37-2.63v-14.21c1.12-2.18,2.25-5.82,3.39-8.01v19.27h0c0,0,0.01,3.02,0.01,3.02
					l15.2-3.05c15.37-41.96,39.4-69.63,73.45-80.05c17.39-5.32,35.73-4.94,51.63,1.06c18.51,6.99,34.09,23.02,44.19,34.47
					c17.55,19.87,34.07,43.27,47.89,67.69v7.23h10.37v-72.32L313.14,374.26z M288.48,353.68c5.5,7.69,10.5,15.82,14.86,24.2v10.13
					c-9.05-14.82-19.12-29.44-31.53-42.71v-11.84C277.8,339.86,283.41,346.6,288.48,353.68z M271.81,361.15
					c4.05,4.9,7.91,9.92,11.5,15.08v14.73c-3.76-5.06-7.59-9.97-11.5-14.74V361.15z M260.68,322.34c0.26,0.24,0.5,0.49,0.76,0.73
					v11.98c-7.25-6.59-15.21-12.73-24.13-18.22c-13.16-8.1-26.89-13.45-40.56-15.96v-12.78c9.01,2.04,17.79,4.97,26.19,8.77
					C236.65,303.08,249.33,311.64,260.68,322.34z M186.38,286.4v13.16c-4.27-0.33-8.53-0.45-12.74-0.2
					c-12.48,0.77-25.15,4.34-37.29,10.23v-14.17c1.23-0.54,2.41-1.11,3.7-1.62C154.79,288.02,170.89,285.55,186.38,286.4z
					 M125.97,300.56v14.7c-5.59,3.45-11.02,7.37-16.18,11.82c-4.77,4.12-9.12,8.58-13.25,13.2v-15.19c0.28-0.37,0.53-0.78,0.81-1.15
					C103.44,316.96,112.87,308.02,125.97,300.56z M67.56,376.57c3.32-8.42,7.22-16.71,11.58-24.67c2.19-4,4.59-7.88,7.03-11.73
					v12.78c-6.95,9.41-13.02,19.39-18.61,29.5V376.57z M78.94,398.87v-15.45c2.31-4.06,4.72-8.07,7.23-12.02v14.32
					C83.59,389.93,81.19,394.34,78.94,398.87z M96.54,370.78v-14.26c3.05-3.98,6.28-7.81,9.7-11.48v14.46
					C102.86,363.04,99.63,366.81,96.54,370.78z M114.22,351.85v-14.7c0.8-0.72,1.53-1.5,2.35-2.21c3.04-2.62,6.2-4.99,9.4-7.23
					v14.83C121.93,345.36,118.01,348.47,114.22,351.85z M136.34,335.97v-14.76c7.2-3.94,14.64-6.93,22.13-8.88v14.5
					c-0.62,0.18-1.26,0.3-1.88,0.49C149.64,329.45,142.87,332.36,136.34,335.97z M166.45,324.93v-14.31
					c2.61-0.42,5.22-0.73,7.82-0.89c4.16-0.26,8.17-0.1,12.11,0.24v13.2C179.77,323.02,173.08,323.65,166.45,324.93z M196.75,324.07
					v-12.62c12.13,2.5,22.73,7.14,31.03,11.83v11.65c-4.1-2.44-8.37-4.64-12.86-6.33C209.1,326.41,202.99,324.94,196.75,324.07z
					 M235.76,340.14v-11.81c9.61,6.36,18.09,13.53,25.68,21.31v14.29C254.73,356.46,246.06,347.61,235.76,340.14z M291.3,401.92
					v-13.66c4.21,6.66,8.2,13.39,12.04,20.09v11.87C299.47,414,295.45,407.89,291.3,401.92z"/>
				<path class="st1" d="M315.3,449.29h-13.56v-8.4c-13.78-24.28-30.19-47.47-47.49-67.06c-10-11.32-25.39-27.17-43.56-34.03
					c-15.57-5.88-33.54-6.24-50.6-1.03c-32.48,9.94-56.85,36.54-72.42,79.08l-0.31,0.84l-17.97,3.61l-0.02-16.3
					c-0.07,0.16-0.14,0.3-0.21,0.45v15.07l-13.57,3.44l0.48-51.82c3.57-9.19,7.81-18.27,12.59-26.99
					c5.68-10.37,12.21-20.38,19.42-29.75c7.11-8.16,19.08-19.59,36.31-28.52v-0.62l1.29-0.04c3.68-1.86,6.86-3.3,9.98-4.53
					c17.03-6.7,35.7-9.51,53.97-8.13c13.44,2.14,26.27,5.97,38.26,11.41c14.93,6.77,28.71,16.07,40.95,27.62
					c10.88,9.96,20.77,21.11,29.38,33.13c6.09,8.51,11.59,17.53,16.35,26.82l0,0l0.74,1.46V449.29z M304.93,446.1h7.19v-70.34
					l-0.39-0.77c-4.69-9.15-10.11-18.04-16.1-26.42c-8.48-11.84-18.22-22.83-28.96-32.65c-12.01-11.33-25.49-20.43-40.1-27.05
					c-11.73-5.32-24.28-9.07-37.31-11.15c-17.67-1.33-35.84,1.4-52.43,7.93c-3.11,1.22-6.3,2.67-10.03,4.56l-0.1,0.05
					c-17.24,8.76-29.18,20.14-36.16,28.14c-7.05,9.17-13.49,19.04-19.09,29.26c-4.67,8.52-8.81,17.37-12.31,26.34l-0.34,46.85
					l7.18-1.82v-13.35l0.17-0.34c0.51-0.99,1.05-2.4,1.58-3.76c0.59-1.51,1.19-3.07,1.82-4.27l3-5.75l-0.03,25.76
					c0.02,0.27,0.03,0.62,0.03,1.08l12.44-2.5c15.95-43.03,40.9-70.01,74.17-80.19c17.73-5.42,36.42-5.03,52.66,1.1
					c18.83,7.11,34.6,23.33,44.83,34.9c17.53,19.86,34.16,43.36,48.08,67.96l0.21,0.36V446.1z M304.93,425.79l-2.94-4.73
					c-3.85-6.18-7.88-12.32-12-18.23l-0.28-0.41v-19.65l2.94,4.65c3.79,5.99,7.62,12.39,12.08,20.15l0.21,0.37V425.79z
					 M292.89,401.42c3.01,4.34,5.98,8.79,8.86,13.3v-5.94c-3.2-5.57-6.08-10.43-8.86-14.95V401.42z M77.34,405.64V383l0.21-0.37
					c2.35-4.13,4.8-8.19,7.27-12.09l2.93-4.61v20.23l-0.23,0.38c-2.43,3.97-4.77,8.23-7.16,13.03L77.34,405.64z M80.53,383.84v8.5
					c1.34-2.48,2.68-4.82,4.05-7.07v-8.3C83.21,379.23,81.85,381.52,80.53,383.84z M284.91,395.76l-2.87-3.85
					c-3.82-5.13-7.67-10.07-11.46-14.68l-0.36-0.44v-20.06l2.82,3.41c4.19,5.07,8.09,10.18,11.58,15.18l0.29,0.41V395.76z
					 M273.4,375.65c2.75,3.36,5.54,6.9,8.32,10.55v-9.47c-2.57-3.66-5.36-7.38-8.32-11.09V375.65z M304.93,393.68l-2.95-4.83
					c-10.75-17.6-20.71-31.09-31.33-42.46l-0.43-0.46v-16.51l2.75,2.95c6.26,6.7,11.91,13.56,16.8,20.38l0,0
					c5.54,7.75,10.58,15.95,14.97,24.39l0.18,0.35V393.68z M273.4,344.68c9.63,10.38,18.73,22.48,28.34,37.75v-4.16
					c-4.28-8.18-9.18-16.15-14.56-23.67c-4.08-5.7-8.7-11.42-13.78-17.06V344.68z M65.97,388.6l0.11-12.62
					c3.34-8.45,7.26-16.81,11.66-24.85c2.24-4.09,4.72-8.09,7.08-11.82l2.94-4.65v18.8l-0.31,0.42c-6.19,8.38-12.07,17.7-18.5,29.32
					L65.97,388.6z M84.58,345.72c-1.38,2.26-2.75,4.59-4.04,6.93c-4,7.31-7.6,14.88-10.72,22.55c5.01-8.66,9.79-16.02,14.76-22.79
					V345.72z M94.95,375.4v-19.43l0.33-0.43c3.1-4.04,6.4-7.95,9.79-11.6l2.76-2.96v19.15l-0.44,0.46
					c-3.2,3.35-6.43,7.11-9.59,11.16L94.95,375.4z M98.13,357.06v9.19c2.16-2.62,4.34-5.09,6.51-7.39v-9.7
					C102.41,351.71,100.23,354.35,98.13,357.06z M263.03,368.09l-2.78-3.09c-9-10.02-17.08-17.51-25.43-23.56l-0.66-0.48v-15.58
					l2.47,1.63c9.23,6.1,17.96,13.34,25.94,21.52l0.45,0.46V368.09z M237.35,339.34c7.43,5.46,14.66,12.04,22.5,20.49v-9.53
					c-6.99-7.1-14.54-13.46-22.5-18.96V339.34z M112.63,355.4v-18.96l0.52-0.47c0.32-0.3,0.64-0.6,0.95-0.91
					c0.47-0.45,0.93-0.91,1.43-1.33c2.76-2.38,5.79-4.71,9.53-7.33l2.5-1.75v18.71l-0.68,0.48c-3.96,2.77-7.86,5.87-11.61,9.2
					L112.63,355.4z M115.81,337.84v10.52c2.8-2.37,5.67-4.59,8.57-6.66v-10.91c-2.54,1.85-4.73,3.59-6.77,5.35
					c-0.45,0.39-0.87,0.8-1.29,1.21C116.15,337.51,115.98,337.68,115.81,337.84z M94.95,344.44v-19.9l0.67-0.92
					c0.15-0.22,0.31-0.45,0.47-0.66c5.75-6.59,15.4-15.99,29.09-23.79l2.38-1.35v18.32l-0.76,0.47
					c-5.69,3.51-11.07,7.44-15.98,11.67c-4.26,3.68-8.42,7.82-13.1,13.05L94.95,344.44z M98.13,325.59v10.58
					c3.68-3.95,7.11-7.28,10.61-10.3c4.82-4.16,10.07-8.02,15.63-11.5v-11.03c-12.05,7.28-20.64,15.7-25.82,21.64
					c-0.06,0.09-0.18,0.26-0.3,0.44C98.21,325.48,98.17,325.54,98.13,325.59z M134.75,338.67v-18.41l0.83-0.45
					c7.32-4,14.89-7.04,22.49-9.03l1.99-0.52v17.76l-1.15,0.33c-0.3,0.08-0.6,0.16-0.9,0.23c-0.32,0.08-0.64,0.16-0.95,0.25
					c-6.76,2.07-13.47,4.94-19.94,8.52L134.75,338.67z M137.94,322.16v11.15c5.93-3.1,12.04-5.62,18.19-7.51
					c0.25-0.08,0.5-0.14,0.75-0.21v-11.18C150.49,316.25,144.13,318.84,137.94,322.16z M263.03,338.65l-2.66-2.42
					c-7.65-6.95-15.46-12.85-23.9-18.05c-12.89-7.94-26.35-13.24-40.01-15.75l-1.3-0.24v-16.1l1.94,0.44
					c9.16,2.07,18.07,5.06,26.49,8.88c13.88,6.3,26.72,14.97,38.18,25.78h0l1.26,1.2V338.65z M198.34,299.55
					c13.6,2.67,26.98,8.02,39.8,15.92c7.63,4.7,14.76,9.96,21.71,16.03v-7.75l-0.26-0.25c-11.2-10.57-23.75-19.04-37.31-25.19
					c-7.63-3.46-15.67-6.22-23.94-8.22V299.55z M229.37,337.73l-2.4-1.43c-4.51-2.68-8.64-4.71-12.61-6.21
					c-5.45-2.06-11.45-3.55-17.83-4.44l-1.37-0.19V309.5l1.91,0.39c10.7,2.2,21.3,6.24,31.49,12l0.81,0.46V337.73z M198.34,322.7
					c6.1,0.94,11.86,2.42,17.14,4.42c3.43,1.3,6.96,2.96,10.71,5.07v-7.97c-9.05-5.02-18.4-8.64-27.85-10.79V322.7z M164.86,326.86
					v-17.6l1.34-0.22c2.77-0.45,5.45-0.75,7.97-0.91c3.72-0.23,7.65-0.16,12.34,0.24l1.46,0.12v16.29l-1.63-0.04
					c-6.31-0.15-12.9,0.44-19.58,1.74L164.86,326.86z M168.04,311.98v11.04c5.69-1,11.28-1.55,16.74-1.47v-10.12
					c-3.9-0.28-7.24-0.32-10.42-0.12C172.36,311.44,170.24,311.66,168.04,311.98z M134.75,312.14V294.4l2.14-0.95
					c0.84-0.38,1.68-0.76,2.56-1.11c14.74-5.81,31-8.42,47-7.53l1.5,0.08v16.39l-1.71-0.13c-4.65-0.36-8.74-0.42-12.52-0.19
					c-12.09,0.74-24.44,4.13-36.69,10.08L134.75,312.14z M137.94,296.47v10.62c11.88-5.46,23.85-8.59,35.6-9.31
					c3.45-0.21,7.14-0.18,11.24,0.08v-9.94c-15.06-0.62-30.3,1.93-44.16,7.38c-0.83,0.33-1.62,0.69-2.41,1.04L137.94,296.47z"/>
			</g>
		</g>
	</g>
	<g>
		<g>
			<path d="M194.93,249.6h-33.97v-84.13l-26.15,1.8l-0.01-0.41l-0.91-32.64l18.02-1.14c0.89-1.16,2.66-3.93,3.57-5.46
				c-8.9-11.71-15.4-20.1-19.71-25.67c-1.81-2.34-3.17-4.09-4.05-5.25l-0.13-0.17l0.07-0.2l12.41-34.94l0.45,0.51
				c1.45,1.66,4.77,5.93,6.55,8.22l0.05,0.07c4.49-10.1,8.5-20.28,11.9-30.27l0.12-0.36l0.37,0.11l27.73,8.25l-0.17,0.41
				c-7.34,17.27-14.6,33-21.57,46.76c0.77,1.28,2.38,3.39,3.09,4.29c8.41-14.54,14.96-26.17,19.56-35.58l0.16-0.32l0.34,0.13
				l22.92,8.6V60.64h46.71v-20.3h36.65v20.3h48.06v30.13h-48.06v19.73h42.64v28.31H223.02c0.59,2.51,2.79,11.97,3.22,14.55h112.63
				v94.87h-36.67v-9.7h-44.54v9.7h-34.87v-83.62l-15.92,3.14l-1.35-5.46l-10.57,0.64V249.6z M161.76,248.81h32.38V162.2l11.98-0.72
				l1.33,5.36l16.12-3.18v83.79h33.28v-9.7h46.13v9.7h35.08v-93.28H225.55l-0.05-0.35c-0.22-1.66-2.22-10.41-3.37-15.31l-0.12-0.49
				h118.75v-26.72h-42.64V89.98h48.06V61.44h-48.06v-20.3h-35.06v20.3h-46.71v11.91l-0.54-0.2l-23.12-8.67
				c-4.65,9.48-11.25,21.18-19.71,35.8l-0.26,0.46l-0.37-0.38c-0.27-0.28-2.75-3.45-3.66-5.05l-0.11-0.19l0.1-0.19
				c6.94-13.68,14.17-29.32,21.47-46.49l-26.5-7.88c-3.45,10.1-7.51,20.38-12.07,30.58l-0.27,0.6l-0.87-1.12
				c-1.61-2.08-4.49-5.78-6.08-7.67L132.49,96.4c0.88,1.15,2.19,2.84,3.91,5.07c4.33,5.6,10.89,14.06,19.87,25.89l0.16,0.21
				l-0.13,0.23c-0.92,1.57-2.94,4.75-3.87,5.92l-0.11,0.14l-17.61,1.12l0.88,31.46l26.17-1.8V248.81z M152.23,239.06l-21.1-3.51
				l0.06-0.39c3.32-23,5.46-43.36,6.54-62.24l0.02-0.4l0.4,0.03l20.71,1.38l-0.02,0.39c-1.24,22.8-3.38,43.84-6.54,64.33
				L152.23,239.06z M132.03,234.89l19.54,3.25c3.11-20.22,5.22-40.99,6.45-63.46l-19.52-1.31
				C137.42,192.05,135.3,212.18,132.03,234.89z M200.24,230.9l-0.02-0.41c-0.69-16.95-1.83-36.23-3.38-57.29l-0.03-0.38l19.74-2.35
				l0.04,0.4c1.67,16.92,3.07,35.96,4.28,58.22l0.02,0.39L200.24,230.9z M197.66,173.52c1.53,20.75,2.65,39.77,3.34,56.53
				l19.06-1.31c-1.2-21.9-2.58-40.68-4.22-57.39L197.66,173.52z M302.98,211.48h-46.13v-29.45h46.13V211.48z M257.65,210.68h44.54
				v-27.86h-44.54V210.68z M220.99,133.79c-1.51-6.42-3.27-12.89-5.14-19.74c-0.58-2.14-1.17-4.31-1.76-6.5l-17.22,4.43l0.48-0.82
				c7.28-12.47,13.17-22.73,18.25-32.25l0.75,0.19v10.89h46.71v21.32h-41.3v22.39L220.99,133.79z M214.66,106.59l0.1,0.38
				c0.62,2.32,1.24,4.61,1.86,6.87c1.55,5.7,3.03,11.14,4.36,16.51v-19.84h41.3V90.78h-46.71v-10.1
				c-4.8,8.93-10.33,18.55-17.04,30.06L214.66,106.59z M184.46,132.12l0.5-0.69c0.88-1.22,2.01-3.11,3.44-5.52l1.28-2.14
				c2.03-3.37,3.63-5.88,4.75-7.46l0.5-0.7l3.93,15.51L184.46,132.12z M194.59,117.49c-1.07,1.57-2.49,3.82-4.23,6.7l-1.28,2.13
				c-1.2,2.01-2.19,3.67-3.01,4.89l11.78-0.82L194.59,117.49z"/>
		</g>
	</g>
</g>
</svg>
