<?xml version="1.0" encoding="utf-8"?>
<!-- Generator: Adobe Illustrator 28.0.0, SVG Export Plug-In . SVG Version: 6.00 Build 0)  -->
<svg version="1.1" id="Capa_1" xmlns="http://www.w3.org/2000/svg" xmlns:xlink="http://www.w3.org/1999/xlink" x="0px" y="0px"
	 viewBox="0 0 500 500" style="enable-background:new 0 0 500 500;" xml:space="preserve">
<style type="text/css">
	.st0{fill:#4B2E8B;}
	.st1{fill:#1D1D1B;}
	.st2{fill:#FFFFFF;}
</style>
<g>
	<g>
		<g>
			<circle class="st0" cx="251.3" cy="237.4" r="132.5"/>
		</g>
	</g>
	<g>
		<path class="st1" d="M436.4,344.9c-3.8-3.2-7.5-6.5-11.2-9.9c-5.3-4-11-7.8-16.3-11.9c-19.1-11.3-38-23-56.7-35.1
			c-14.2-9.2-40.8-30.7-40.7-30.8c-6.7-4.4-20.5-22.4-20.5-22.4l-13.9-13.2c0,0-10.8-8.8-13.9-7.8s-5.8,0-5.8-2.4
			c-0.1-2.4-5-3-11.1,0c-6.1,3.1-17,3.1-17,3.1s-5.4,1.7-7.8,9.5c-2.4,7.8-16.6,21.4-19.3,22.7c-2,1-8.1,13.2-11,19.2
			c0.3,0.3,0.5,0.6,0.8,0.9l-2.3,2.3l0,0c-4.3,4.3-8.6,8.5-12.9,12.7c-7,6.8-14,13.6-21,20.3c-0.7,0.7-1.5,1.2-2.4,1.6
			c-2.1,1.1-4.6,1.7-6.4,3.1c-5.7,4.5-10.9,9.7-16.9,14c-3.4,2.4-6.8,4.9-10.1,7.3C105.8,341.3,88.8,352,78.1,368
			c0.9,0.8,1.8,1.6,2.7,2.3c1.6,0.1,3.2,0.1,4.8,0.1c11,0,22.2-1.3,32.5-5c4.6-1.7,7.2,3.8,5.6,7.3c-2.7,6.2-8.5,10.1-12.8,15.1
			c-0.8,0.9-1.5,1.8-2.1,2.7c0.7,0.4,1.4,0.9,2.1,1.3s1.4,0.8,2,1.2c2.2-0.6,4.4-1.3,6.6-2.1c2.5-0.9,5.6,1,6.2,3.5
			c0.4,1.8,0.5,3.6,0.3,5.2c2.5,1.1,5.1,2.2,7.6,3.3c4.1-2.8,6.6-2.3,10.5,2.4c0.4,0.5,0.7,1.2,0.8,1.9c5.7,2,11.5,4,17.3,5.8
			c4.3-2.4,8.5-5,12.6-7.7c4.4-2.8,8.3-6.4,14.4-4c1.5,0.6,3.8-0.8,5.6-1.5c2.7-1,5.4-2.3,9.3-4c-2.4,6-1.8,8.8,3.8,8.3
			c1-0.1,2.1,1.1,3.9,2.1c-3.3,2.3-5.8,4.1-8.3,5.9c-1.3-2.8-2.3-5-3.8-8.4c-1.8,2.7-2.9,4.3-4.6,6.7h4.9c0,2-0.6,4.1,0.1,5.2
			c1.8,2.6,0.8,3.7-1.4,5c-1.6,1-3.1,2-4.4,3.3c1,0.4,2,0.8,3,1.2c2.3,0.9,3.6,3.2,3.5,5.3c2.5-0.6,5-1.3,7.4-1.8
			c5-1.1,9.7-3.7,15.2-1c2.9,1.4,6.6,1.3,10.2,1.9c1.1,0.9,2.5,2.6,3.9,3.7h6.2c1.7-1,3.4-2.5,5.1-3.5c-0.2-0.2-0.3-0.5-0.5-0.8
			c2.5-0.5,5-1,7.7-1.6c1.4,3.8,4.9,4.3,7.5,2.6c1.7-1.1,1.9-4.6,2.4-7.2c0.2-1-0.8-2.2-0.8-3.3c0-1.3,0.6-2.7,1-4c0.5,0,1,0,1.5,0
			c0.8,2.2,1.7,4.3,2.2,5.6c1.7-0.8,3.5-2.3,5-2.1c1.6,0.3,3.1,2.2,5.1,3.8c0.5-0.7,1.6-2,2-2.5c1.8,1.8,3.2,4.7,5.1,5
			c4.6,0.7,9.5,1,14,0c2.6-0.5,6.5-0.2,7.9-4.5c0.7-2.3,3.3-3.8,6.5-1.8c4.1,2.6,8.3,2.1,10.1-0.7c-1.3-0.5-2.6-1.1-3.8-1.6
			c0.4-0.3,0.8-0.6,1.2-0.9c-0.9-1.6-1.7-3.3-2.3-4.4c-1.4,1.7-2.6,3-4.3,5c0-3.8,0.5-6.2-0.1-8.2c-0.7-2-2.5-3.7-4.2-6.1
			c1.7,0.4,3.7,0.4,4.8,1.3c4.5,3.6,8.6,7.9,13.3,11.2c6.4,4.5,11.1,13,21.3,9c5.7-2.2,12.6,0.2,17.9-4.2c0.5-0.4,2,0.4,3,0.7
			c1.2,0.4,2.3,1.1,3.5,1.5c0.8,0.2,1.5,0.5,2.3,0.7c3.4-2.7,6.7-5.4,10-8.2c-1-0.8-1.9-1.7-2.9-2.5c-2.2-1.9-3.2-3.7-0.9-6.3
			c1.3-1.5,2.4-3.3,3.2-5.1c0.2-0.5,0.4-0.9,0.6-1.4c-1.4-0.4-2.6-0.9-3.5-1.4c-1.4-0.8-2.2-1.9-2.4-3.1v9.8c-0.5,0.2-1,0.4-1.5,0.5
			c-2-3.8-4-7.6-6.2-11.9c2.9,0.5,5.2,1,7.7,1.5c-0.6-3.4,2.8-7.3,6.8-5.8c0,0,0.1,0,0.1-0.1c0.1,0.1,0.2,0.1,0.3,0.2
			c0.1,0.1,0.2,0.1,0.4,0.2c4.9,2.7,13.4,2.4,19.7,1.8c2.2-7.8,7.5-14.9,12.5-20.9c4.9-5.8,10.3-11.1,15.9-16.2
			c0.9-1.1,1.7-2.3,2.6-3.4C439,347.9,437.7,346.4,436.4,344.9z M213.9,420.4c1.1-1.5,1.7-3.5,3-4.1c2.5-1,6.6,2.1,7.2,5.2
			C220.9,421.2,218,420.8,213.9,420.4z M260,290.2c-1.3-1.8-2.5-2.8-2.5-3.8c0-0.9,1.3-1.9,2-2.8c0.9,0.8,2.2,1.6,2.4,2.5
			C262,287.1,260.9,288.2,260,290.2z M339,297.4c-0.2,0.2-0.7,0.8-1,1.5c-2,5.5-6.2,6.7-10.8,3.3c-3.5-2.6-7.2-5-10.8-7.5
			c-0.4,0.4-0.9,0.8-1.3,1.1c2.7,4.2,5.2,8.6,8.3,12.5c3,3.7,3.9,6.7,0.5,10.9c-2,2.5-2.6,6.1-3.9,9.2
			c-18.6-7.1-32.3-19.2-42.8-35.1c-0.7-1-0.9-2.4-1.1-3.6c-0.5-2.7-1.2-4.2-4.8-3.9c-2.3,0.2-5.1-1.9-7.3-3.5
			c-0.5-0.4,0.8-3,1.2-4.6c-3.7-1.6-7.5-5.6-12.1-0.4c-1.3-1.4-2.5-2.7-4-4.4c-0.7,1.1-1.5,2-2.1,3.1c-4.1,8.3-10.2,14.8-17.4,20.6
			c-2.2,1.8-3.8,4.5-6.5,7.7c-0.4-2.2-1.2-3.9-0.8-5.4c3-12.6,6.2-25.1,9.5-37.6c0.5-1.8,1.8-3.7,3.3-4.9c5.6-4.6,7.5-11.2,10-17.5
			c0.7-1.9,2.2-3.5,3.4-5.1c1.6-2,3.3-3.8,4.4-6.5c-3.7,1.8-7.5,3.5-11.1,5.6c-1.1,0.6-2.5,2.5-2.2,3.5c2,9.1-5.4,14.1-8.7,21
			c-7.6,15.7-21.9,25.1-33.1,37.5c-5.2,5.8-10.7,11.3-16.5,16.8c4.2-8.1,8.2-16.2,12.6-24.2c4.9-8.7,8.6-17.8,11.8-27.1
			c0.6-1.8,1.5-3.9,2.9-5.1c9.1-8.4,14.2-19.1,19-30.1c0.6-1.4,3.1-2.8,4.7-2.8c5.8-0.2,11.7,0.7,16.3-4.3c0.8-0.8,2.8-0.6,4-0.8
			c1,2.2,1.8,4,2.6,5.9c1.1-1,2.3-1.9,3.9-3.2c10.8,0.4,17,9,23.9,15.3c13.9,12.6,26.2,27,39.8,39.9c10.1,9.6,21.2,18.2,31.8,27.3
			c1.1,1,2.2,2,2.8,3.7C351.4,303.2,345.4,300.4,339,297.4z M367.5,413.9c0.3,0.2,0.7,0.5,1,0.8c-2.7,0.7-5.4,1.3-8.2,2
			c0.3-4.2,0.7-8.4,1.1-13.8c3.2,2.8,5.9,5.2,8.6,7.7C368.8,412.2,368.2,413.1,367.5,413.9z"/>
		<path class="st2" d="M259.1,219.8c10.8,0.4,17,9,23.9,15.3c13.9,12.6,26.2,27,39.8,39.9c10.1,9.6,21.2,18.2,31.8,27.3
			c1.1,0.9,2.2,2,2.8,3.7c-6-2.8-12.1-5.6-18.5-8.6c-0.2,0.2-0.7,0.8-1,1.5c-2,5.5-6.2,6.7-10.8,3.3c-3.5-2.6-7.2-5-10.8-7.5
			c-0.4,0.4-0.9,0.8-1.3,1.1c2.7,4.2,5.2,8.6,8.3,12.4c3,3.7,3.9,6.7,0.5,10.9c-2,2.5-2.6,6.1-3.9,9.2
			c-18.6-7.1-32.3-19.2-42.8-35.1c-0.7-1-0.9-2.4-1.1-3.6c-0.5-2.7-1.2-4.2-4.8-3.9c-2.4,0.2-5.1-1.9-7.3-3.5
			c-0.5-0.4,0.8-3,1.2-4.6c-3.7-1.6-7.5-5.6-12.1-0.4c-1.3-1.4-2.5-2.7-4-4.4c-0.7,1.1-1.5,2.1-2.1,3.1
			c-4.1,8.3-10.2,14.8-17.4,20.6c-2.2,1.8-3.8,4.5-6.5,7.7c-0.4-2.2-1.2-3.9-0.8-5.4c3-12.6,6.2-25.1,9.5-37.6
			c0.5-1.8,1.9-3.7,3.3-4.9c5.6-4.6,7.5-11.2,10-17.5c0.7-1.9,2.2-3.5,3.4-5.1c1.6-2,3.4-3.8,4.4-6.4c-3.7,1.8-7.5,3.5-11.1,5.6
			c-1.1,0.6-2.5,2.5-2.2,3.5c2,9.2-5.4,14.1-8.7,21c-7.6,15.7-21.9,25.1-33.1,37.5c-5.2,5.8-10.7,11.3-16.5,16.8
			c4.2-8.1,8.2-16.2,12.7-24.2c4.9-8.7,8.6-17.7,11.8-27.1c0.6-1.8,1.5-3.9,2.9-5.1c9.1-8.4,14.2-19.1,19-30.1
			c0.6-1.4,3-2.8,4.7-2.8c5.8-0.2,11.7,0.7,16.3-4.3c0.8-0.8,2.7-0.6,4-0.8c1,2.2,1.8,4,2.6,5.9
			C256.4,222.1,257.6,221.1,259.1,219.8z"/>
		<path class="st2" d="M260,290.2c-1.3-1.8-2.5-2.8-2.5-3.8c0-0.9,1.3-1.9,2-2.8c0.8,0.8,2.2,1.6,2.4,2.5
			C262,287.1,260.9,288.2,260,290.2z"/>
	</g>
	<g>
		<path d="M110.8,250.5H85v-67.9c-2.5,4.8-5.2,9.1-7.9,13l-0.7,1l-6.1-37.2l0.1-0.2c11.3-18.9,19.4-43.1,24.2-71.9l0.1-0.5l25.6,6.8
			l-0.1,0.4c-1.9,15.1-5.1,29.4-9.4,42.4V205l0.2-0.1c7-2,11.3-3.2,13.4-4l-11-10.6l0.4-0.4c1.9-1.6,4.7-4.2,8.1-7.6h-7.3V154h9.9
			v-39.3h35c0.2-0.7,0.5-1.6,0.8-2.8l0.1-0.5h-39.7V90.9h120.2v20.5h-50.8c-0.2,0.8-0.6,1.9-1.1,3.3h43V154h9.9v28.3h-8.8
			c3.9,5.6,6.7,9.9,8.9,13.6l0.2,0.4l-16,12.5l-0.3-0.5c-0.3-0.5-0.7-1.1-1.1-1.9c-0.6-1-1.2-2.1-2-3.4v10.2l-0.1,0.1
			c-3.9,3.9-8.9,7.6-15.2,11.4c9.4,1.4,21.1,2.4,35.8,3.1h0.6l-5.4,22.1h-0.4c-21.2-1.2-41.7-5.2-60.7-11.7
			c-17.3,5.6-37.1,9.5-58.9,11.7h-0.4l-5.4-21.4h0.6c13.2-0.8,25-2,35.1-3.5c-2.7-1.6-5.5-3.5-8-5.3l-0.5-0.4l7.7-5.9h-0.7
			c-9,4.8-18.4,8.6-28,11.3l-0.4,0.1l-7.7-19.2L110.8,250.5L110.8,250.5z M86,249.5h23.8V136.2v-0.1c4.3-12.8,7.4-26.9,9.3-41.8
			L95.4,88c-4.8,28.7-12.9,52.7-24.1,71.6l5.6,34.4c2.8-4,5.5-8.6,8.1-13.6l0.9,0.2L86,249.5L86,249.5z M177.6,237.3l0.2,0.1
			c18.9,6.5,39.1,10.4,60.2,11.6l4.9-20.1c-15.1-0.7-27.1-1.8-36.6-3.3l-1.4-0.2l1.2-0.7c6.7-3.9,12-7.8,16-11.8v-13.2l0.9,1.4
			c1.3,1.9,2.2,3.6,3,4.9c0.3,0.5,0.6,1,0.8,1.4l14.4-11.3c-2.2-3.7-5.1-8.2-9.1-13.9l-0.6-0.8h9.7v-26.3h-9.9v-39.3h-43.4l0.4-1.2
			c0.6-1.7,1.1-2.9,1.2-3.7l0.1-0.4h50.6V92H121.9v18.5h40l-0.5,1.7c-0.4,1.4-0.7,2.5-1,3.2l-0.1,0.3h-34.7V155h-9.9v26.3h8.7
			l-0.9,0.9c-3.6,3.6-6.5,6.4-8.6,8.2l11.3,11l-0.7,0.3c-1.7,0.7-5.9,1.9-13.7,4.1l7.2,18c9.4-2.7,18.6-6.5,27.5-11.2l0.1-0.1h3.9
			l-9,6.9c2.8,2,5.7,3.9,8.6,5.6l1.2,0.7l-1.4,0.2c-10.2,1.6-22.3,2.8-35.9,3.7l4.9,19.4c21.7-2.1,41.3-6,58.4-11.6L177.6,237.3z
			 M178.3,219.4h-0.1c-5.4-1.6-10.5-3.5-15.7-5.9l0.2-1h29.8l0.2,0.9c-4.3,2.3-9,4.2-14.2,5.9L178.3,219.4z M165,213.5
			c4.3,1.9,8.7,3.5,13.3,4.8c4.4-1.4,8.4-3,12.1-4.8H165z M222,199.5h-55.4l1.4-0.9c0.3-0.2,0.6-0.4,0.9-0.8c0.3-0.2,0.6-0.5,1-0.8
			c0.6-0.3,1-0.7,1.3-0.9c0.2-0.2,0.5-0.4,0.7-0.5l0.1-0.1h7.4c13.8,0,22.1-0.4,26.1-1.2c4-0.9,6.6-3,7.8-6.2l0.3-0.9l0.6,0.8
			c3.2,4.6,5.5,8.1,7.3,10.8L222,199.5z M169.8,198.5h50.4c-1.6-2.5-3.6-5.5-6.2-9.3c-1.4,3.1-4.1,5.1-8.2,6l0,0
			c-4.1,0.9-12.5,1.3-26.3,1.3h-7.1c-0.2,0.1-0.3,0.2-0.5,0.4c-0.4,0.3-0.8,0.6-1.4,1C170.3,198.1,170,198.3,169.8,198.5z
			 M134,198.4l-0.5-0.8c3.6-3.3,7.2-7.2,10.9-12l0.9-1.2v1.5c0,3.2,0.5,5.2,1.4,6.2l0.5,0.5l-0.6,0.3
			C143.6,194.5,139.4,196.3,134,198.4z M144.3,187.3c-2.8,3.5-5.5,6.5-8.2,9.2c3.9-1.6,7.1-3,9.5-4.2
			C144.9,191.3,144.4,189.6,144.3,187.3z M179.3,182.5c-6.4,0-10-0.2-11.1-0.6c-1.2-0.2-1.9-1.4-1.9-3.3v-6.8l0.7,0.3
			c6.3,2.5,12.8,5.3,19.6,8.5l8.6-14.2h21.3v4.6l-4.2,3.3l-17.4-1.2C194.7,182.5,193.9,182.5,179.3,182.5z M167.3,173.4v5.3
			c0,0.8,0.2,2.2,1.2,2.3c0.8,0.2,3.2,0.5,10.9,0.5c2.7,0,4.8,0,6.6-0.1C179.4,178.4,173.3,175.8,167.3,173.4z M195.7,167.5
			l-8.4,13.9c6.4-0.4,6.5-2,6.6-8.8v-0.5l18,1.3l3.6-2.7v-3.2H195.7z M145.1,176.8l-4.7-3.4v-7h28.7l-2.8,4.4h-21.2V176.8z
			 M141.4,172.9l2.7,1.9v-5h21.7l1.5-2.4h-25.9V172.9z M204.1,155.1h-51.3v-5.6h51.3V155.1z M153.8,154.1h49.3v-3.6h-49.3V154.1z
			 M204.1,142.7h-51.3v-5.8h51.3V142.7z M153.8,141.7h49.3v-3.8h-49.3V141.7z M204.1,130.1h-51.3v-5.8h51.3V130.1z M153.8,129.1
			h49.3v-3.8h-49.3V129.1z"/>
	</g>
	<g>
		<path d="M285,247.5l-17.9-21l0.7-0.3c27.8-10.8,40.8-22.8,45.9-42.6h-21.6v-9.2c-6,3.1-13.2,6.3-21.8,9.7l-0.5,0.2l-9.4-23.7
			l0.5-0.1c16.8-4.5,31.7-10.4,44.3-17.4h-38.5v-21.7h64.7V113c-14.8,0.6-32.9,0.9-52.5,0.9h-0.5l-1.5-22.4h0.5
			c57.9,0,103-2.7,134-8l0.5-0.1l5.6,21.7l-0.5,0.1c-14.1,2.5-31.8,4.5-55.6,6.2v10h64.7v21.7h-38c12.7,6.8,27.4,12.6,43.9,17.4
			l0.5,0.2l-8.7,21.3l-0.5-0.2c-12.7-4.7-25.2-10.3-37.2-16.7l-3.6,14.7H416v0.5c-0.2,7.8-0.3,15.3-0.7,21.3
			c-0.7,10.8-1.7,21.7-4.7,27.8c-6.3,13.1-13.6,15.3-32.3,15.3c-6.6,0-19.3-0.6-35.8-1.8h-0.4l-2.2-24h0.6c14.7,1.1,26,1.8,32,1.8
			c10.6,0,13.4-2.4,14.2-20.6H377c-0.6,2.1-1.8,5.6-2.7,8.5c-0.5,1.6-1,3.1-1.3,4.1l-0.1,0.4l-27.6-1.7l0.2-0.6
			c2.3-6.3,5-15,8.5-27.1h-13.1c-4.9,28.9-23.6,50.3-55.5,63.7L285,247.5z M268.8,226.9l16.5,19.4c31.5-13.3,49.9-34.6,54.6-63.2
			l0.1-0.4h15.3l-0.2,0.6c-3.5,12.1-6.2,20.8-8.5,27.2l25.5,1.5c0.3-1,0.7-2.3,1.2-3.7c1-3.1,2.2-6.9,2.8-8.9l0.1-0.4h11.5v0.5
			c-0.7,18.4-3.3,22.1-15.2,22.1c-5.9,0-17.1-0.6-31.5-1.7l2,22c16.3,1.1,28.8,1.7,35.3,1.7c18.3,0,25.4-2.1,31.4-14.8
			c2.9-6,3.9-16.7,4.6-27.4c0.4-5.9,0.5-13.1,0.7-20.7h-33.8l4.2-17.2l0.6,0.3c12,6.4,24.5,12.1,37.2,16.8l7.9-19.4
			c-17-5-32.3-11.2-45.3-18.3l0.2-0.9h39v-19.7h-64.7v-11.9h0.5c23.7-1.7,41.3-3.6,55.4-6.1l-5.1-19.8c-30.9,5.2-75.7,7.9-133.2,7.9
			l1.4,20.4c19.6,0,37.7-0.3,52.5-0.9h0.5v10.4h-64.7V142H309l-1.6,0.9c-12.9,7.4-28.3,13.6-45.6,18.3l8.6,21.7
			c8.7-3.5,15.9-6.8,22-9.9l0.7-0.4v9.9H315l-0.2,0.6C309.8,203.6,296.8,215.9,268.8,226.9z M385,163.4h-24.5v-15.8l0.8,0.6
			c6.1,4.6,13.6,9.4,22.1,14.3L385,163.4z M361.5,162.4h19.8c-7.5-4.4-14.2-8.7-19.8-12.9V162.4z M332.4,163.4H310l1.5-0.9
			c6.5-4,13.3-8.8,20.1-14.1l0.8-0.6V163.4z M313.5,162.4h17.9v-12.6C325.3,154.5,319.3,158.8,313.5,162.4z"/>
	</g>
</g>
</svg>
