<?xml version="1.0" encoding="utf-8"?>
<!-- Generator: Adobe Illustrator 25.0.0, SVG Export Plug-In . SVG Version: 6.00 Build 0)  -->
<svg version="1.1" id="Capa_1" xmlns="http://www.w3.org/2000/svg" xmlns:xlink="http://www.w3.org/1999/xlink" x="0px" y="0px"
	 viewBox="0 0 500 500" style="enable-background:new 0 0 500 500;" xml:space="preserve">
<style type="text/css">
	.st0{fill:#6600FF;}
	.st1{fill:#1D1D1B;}
	.st2{fill:#FFFFFF;}
</style>
<g>
	<g>
		<g>
			<path class="st0" d="M323.63,254.98c0,27.45-8.38,52.99-22.82,74.14c0,0,0,0,0,0.08c-5.83,8.78-12.77,16.76-20.67,23.86
				c-23.46,21.39-54.75,34.4-88.98,34.4c-19.63,0-38.23-4.23-54.91-11.89c-10.61-4.79-20.51-11.01-29.37-18.36l-0.08-0.08
				c-6.78-5.51-12.93-11.73-18.44-18.52c-3.11-3.75-5.99-7.82-8.62-11.97c-0.08-0.16-0.16-0.32-0.24-0.4
				c-13.25-20.59-20.91-45.01-20.91-71.27c0-28.33,8.94-54.59,24.1-76.14c6.7-9.58,14.6-18.2,23.62-25.62
				c22.9-19.23,52.51-30.81,84.83-30.81c20.51,0,39.98,4.71,57.3,13.01c11.65,5.67,22.27,12.85,31.68,21.47
				c4.39,3.91,8.46,8.06,12.13,12.61c4.95,5.75,9.34,11.81,13.09,18.44l0.08,0.08C317.01,207.65,323.63,230.56,323.63,254.98z"/>
		</g>
		<g>
			<g>
				<path d="M305.35,187.94c-3.75-6.62-8.14-12.69-13.09-18.44v-0.32c0.16-1.68,2.08-2.15,3.19-0.72c2.08,2.47,3.99,5.11,5.51,7.98
					C302.96,180.12,304.4,184.03,305.35,187.94z"/>
			</g>
			<g>
				<path class="st2" d="M307.91,210.69c0,0.96-0.24,1.84-0.4,2.71c-0.24,0.08-0.56,0.16-0.88,0.16c-1.28-2.15-2.55-4.31-3.75-6.46
					c-1.6-2.95-3.43-5.75-4.79-8.78c-0.96-2.23-1.6-4.71-1.76-7.1c-0.32-5.35-1.04-10.46-3.67-15.4c-0.8-1.68-0.64-4.15-0.4-6.3
					c4.95,5.75,9.34,11.81,13.09,18.44l0.08,0.08c1.6,6.15,2.15,12.53,2.15,18.99C307.59,208.29,307.91,209.49,307.91,210.69z"/>
			</g>
			<g>
				<path class="st2" d="M214.78,296.33c0.97-4.65,1.66-9.39,3.03-13.92c0.71-2.33,2.37-4.54,4.09-6.33
					c2.05-2.14,3.14-1.69,4.32,1.12c0.25,0.61,0.27,1.32,0.56,1.9c0.96,1.95,1.8,3.99,3.03,5.75c2.25,3.24,2.43,4.71,0.33,8.03
					c-1.37,2.18-3.24,3.7-5.81,4.31c-2.22,0.52-4.43,1.12-6.65,1.65C215.6,299.35,214.86,298.37,214.78,296.33z"/>
			</g>
			<g>
				<path class="st2" d="M302.08,211.08c-2.47-4.79-4.71-9.74-6.86-14.76c-0.72-1.36-1.04-2.79-1.52-3.91
					c0.08-1.36,0.48-2.71,0.16-3.91c-0.72-2.87-1.68-5.59-2.47-8.46c-1.92-7.9-6.62-14.52-10.37-21.55
					c-0.32-0.56-0.56-1.04-0.88-1.6c-9.42-8.62-20.03-15.8-31.68-21.47c-0.08,0.16-0.24,0.32-0.4,0.48
					c-2.08,1.84-1.68,3.91-0.64,5.99c0.64,1.52,1.84,2.87,2.47,4.47c0.64,1.6,1.44,3.51,1.12,5.03c-0.48,2.08-0.16,3.99,1.28,5.27
					c2.31,2.08,5.03,3.83,7.66,5.75c0.8,0.72,1.68,1.28,2.55,2c-0.24,0.24-0.4,0.56-0.56,0.8c-0.72-0.08-1.44-0.24-2.08-0.24
					c-0.88,0-1.68,0.16-2.55,0.24c0.24,0.88,0.4,1.76,0.96,2.39c0.88,1.04,2.15,1.84,3.19,2.79c0.48,0.64,0.8,1.44,1.28,2.15
					c-0.16,0.16-0.48,0.32-0.72,0.48c-1.92-1.76-4.07-3.35-5.91-5.27c-2.47-2.63-5.43-4.39-8.94-5.19c-0.88-0.16-2-0.32-2.47,0
					c-2.23,1.68-4.79,1.04-7.26,1.04c-1.76-0.08-3.67-0.24-5.27,0.24c-1.36,0.4-3.11,1.76-3.19,2.87c-0.4,3.51-2.63,3.51-5.27,3.59
					c-1.68,0-3.35,0.4-5.03,0.8c-0.8,0.16-1.52,0.72-2.23,1.2c-0.08,0.32-0.08,0.64-0.08,0.96c2.47,1.04,5.03,2.23,7.74,3.03
					c7.82,2.31,15.8,4.31,23.54,6.86c7.82,2.39,15.64,4.95,22.51,9.82c0.72,0.48,1.6,1.04,2.39,1.52c-0.16,0.24-0.24,0.48-0.32,0.8
					c-2.08-0.64-4.15-1.36-6.23-1.76c-3.51-0.64-7.18-1.04-10.69-1.28c-0.88-0.08-1.68,0.8-2.55,1.28c0.56,0.72,0.88,1.76,1.52,2.23
					c2.47,1.76,4.95,3.51,7.5,5.19c5.43,3.51,9.82,7.82,13.17,13.33c1.2,2.08,2.15,4.47,3.43,6.54c0.4,0.64,1.28,1.2,1.92,1.28
					c0.4,0,0.96-0.96,1.28-1.6c0.32-0.56,0.4-1.28,0.64-1.92h0.48c0.08,0.4,0.32,0.8,0.24,1.28c-0.24,4.07-0.4,8.3-1.04,12.45
					c-1.36,8.62-5.43,16.36-9.02,24.26c-1.6,3.67-4.79,2-7.26,2.23c-2.15,0.24-1.92-1.92-2.23-3.27c-0.72-2.95-2.47-4.07-5.27-2.87
					c-1.28,0.56-2.47,1.52-3.51,2.47c-7.9,8.22-14.21,17.48-18.28,28.09c-1.44,3.75-2.71,7.58-4.31,11.17
					c-0.64,1.28-1.68,2.71-2.95,3.27c-2.55,1.28-5.27,2.15-7.98,3.03c-6.07,1.68-11.49,4.55-16.2,8.7c-0.88,0.8-2.08,1.28-3.11,1.92
					c-0.16-0.16-0.32-0.4-0.56-0.72c1.6-5.91,4.71-10.93,10.06-14.44c-3.51,0.08-6.38,1.36-8.62,3.91
					c-4.31,5.03-6.86,11.01-8.38,17.4c-0.64,2.63-2.08,4.39-4.87,4.79c-5.19,0.8-6.38,2-6.78,7.34c-0.56,6.15,1.44,11.81,3.99,17.32
					c1.36,2.79,3.99,4.23,7.18,4.71c4.95,0.72,9.18,3.03,12.77,6.46c1.68,1.6,3.27,3.43,5.03,5.03c8.14,7.58,17.56,9.58,28.09,6.07
					c1.04-0.32,2.55-0.64,2.39-2.95c-5.11,3.67-10.37,3.59-15.72,2c-5.27-1.6-10.06-4.23-13.17-9.34
					c9.66,1.76,19.15,3.19,28.89,1.92c7.58-1.04,14.52-3.59,21.07-7.82c4.71,0,11.41,0.08,17,0.08c7.9-7.1,14.84-15.08,20.67-23.86
					c0-0.08,0-0.08,0-0.08c-0.16-0.88-0.72-1.68-1.68-2c-0.72-0.32-1.6-0.32-2.31-0.16c-2.15,0.24-4.39,0.88-6.07,2.08
					c-0.48,0.48-1.04,0.96-1.44,1.44c-2.79,2.87-5.27,5.91-7.66,9.1c-2.08,2.79-4.31,5.51-7.74,6.54c-0.32,0.16-0.64,0.24-1.12,0.32
					c-0.16,0-0.8-0.08-0.88,0c2.71-2.47,5.67-4.79,8.3-7.5c2.71-2.63,5.11-5.43,7.34-8.38c4.47-5.83,8.7-11.89,12.29-18.52
					c3.51-6.46,6.31-13.33,8.46-20.43c0.24-0.72,0.56-1.6,0.8-2.47c2.39-8.62,2.95-17.56,3.59-26.5
					C314.21,244.36,310.62,227.21,302.08,211.08z M224.48,347.46c0,0.16-0.08,0.32-0.16,0.48c0,0.24-0.08,0.48-0.16,0.64
					c-0.24,0.64-0.8,1.28-1.36,1.76c-0.16,0.24-0.48,0.4-0.72,0.64c-0.32,0.24-0.56,0.4-0.88,0.56c-0.56,0.32-1.04,0.56-1.52,0.72
					c-0.4,0.24-0.88,0.32-1.36,0.48c-0.16,0-0.32,0.08-0.48,0.08c-1.04,0.16-2.15,0.24-3.19,0.08c-0.48,0-0.88-0.08-1.2-0.16
					c-0.32-0.08-0.8-0.24-1.12-0.48c-0.32-0.08-0.64-0.24-0.96-0.4c0-0.08-0.08-0.08-0.08-0.08c0.32-0.08,0.56-0.08,0.88-0.08
					c0.24-0.08,0.48-0.16,0.72-0.16c0.24-0.08,0.32-0.08,0.48-0.16c0.24,0,0.48-0.08,0.72-0.16c0.4-0.08,0.8-0.24,1.12-0.4
					c0,0,0.08,0,0.08-0.08c0.08,0,0.16-0.08,0.32-0.24c0.16-0.08,0.24-0.16,0.4-0.32c0.08,0,0.08-0.08,0.16-0.16
					s0.08-0.08,0.16-0.16c0.08-0.16,0.24-0.32,0.24-0.64c0,0,0-0.08,0-0.16v-0.4c0.08-0.16,0.08-0.32,0.08-0.48
					c0-0.08,0-0.08,0-0.16v-0.4c-0.08-0.24-0.16-0.56-0.32-0.8c-0.48-1.28-1.6-2.47-2.71-3.67c-0.4-0.48-0.88-1.04-1.28-1.52
					c0.56-0.48,1.28-0.8,1.92-0.96c0.24-0.08,0.4-0.16,0.56-0.08c0.18-0.06,0.38-0.05,0.56-0.08c0.8-0.16,1.59-0.08,2.39,0.08
					c0.16-0.08,0.24,0,0.4,0c0.56,0.08,1.2,0.24,1.68,0.48c0.64,0.24,1.2,0.64,1.68,1.04c0.48,0.4,1.04,0.8,1.36,1.36
					c0.4,0.48,0.72,1.04,0.96,1.6c0.32,0.56,0.56,1.2,0.64,1.84V347.46z M297.21,219.07c0.16-0.16,1.76-0.24,2.87,2.39
					c0.56,1.6,1.28,3.19,1.2,4.95c0,0.48-0.16,1.2-0.64,1.52c-0.4,0.32-0.88,0.16-1.2-0.08c-0.48-0.4-0.8-0.72-0.96-1.2
					c-1.12-2.07-1.92-4.55-1.52-6.94C296.98,219.46,297.06,219.22,297.21,219.07z M294.9,290.41c-0.24,0.48-0.4,0.88-0.64,1.28
					c-0.96,2-3.03,3.59-4.95,4.95c-1.44,0.96-2.87,1.76-4.31,2.47c-0.64,0.32-2,0.72-2.47-0.16c-0.24-0.32-0.16-0.8,0-1.2
					c0.56-3.11,1.12-6.38,2.71-9.26c1.92-3.51,5.19-6.3,8.78-7.98c0.16,0,0.32-0.08,0.48,0c0.08,0.08,0.08,0.16,0.16,0.24
					c0.48,1.76,0.96,3.59,0.96,5.51C295.7,287.78,295.46,288.98,294.9,290.41z M301.6,268.47c-0.8,1.04-1.68,2-2.71,2.87
					c-0.48,0.48-1.28,1.2-2,1.04c-0.4-0.08-0.8-0.48-0.96-0.8c-0.24-0.32-0.32-0.64-0.4-1.12c-0.16-0.88-0.24-1.92-0.24-2.79
					c0.08-3.43,1.44-6.7,3.75-9.02c0.24-0.4,0.64-0.64,1.04-0.8c0.24-0.08,0.64-0.08,1.04-0.16c0.08,0,0.24,0,0.32,0.08
					c0.16,0.08,0.16,0.16,0.24,0.24c1.28,1.68,2,3.59,1.76,5.59C303.28,265.35,302.64,267.03,301.6,268.47z M302.56,248.27
					c-1.36,1.6-2.55-1.28-2.87-2.31c-0.4-1.04-0.16-3.91,0-5.03c0.16-1.28,0.08-2.39,0.96-3.27c0.48-0.4,1.04-0.8,1.6-0.64
					c1.68,0.48,1.92,4.63,1.92,5.99C304.16,244.76,303.6,246.6,302.56,248.27z"/>
			</g>
			<g>
				<path d="M300.81,329.2c0.08,0.4,0.08,0.88,0,1.28c-0.96,6.7-3.35,12.93-6.86,18.59c-1.6,2.71-4.55,3.67-7.42,3.83
					c-1.68,0.08-3.91,0.08-6.38,0.16C288.04,345.96,294.98,337.98,300.81,329.2z"/>
			</g>
			<g>
				<path d="M248.45,135.43c0.64-1.04,0-1.84-0.72-2.71c-2.95-3.43-5.91-6.78-8.7-10.3c-0.64-0.8-0.56-2.15-0.88-3.27
					c1.2-0.08,2.39-0.56,3.43-0.24c4.15,1.28,7.82,3.43,10.93,6.46c2,2.07,4.07,4.15,6.3,5.83c9.42,6.78,15.88,15.8,21.31,25.7
					C270.72,148.28,260.1,141.09,248.45,135.43z"/>
			</g>
			<g>
				<path class="st0" d="M301.26,226.39c0,0.5-0.17,1.18-0.59,1.52c-0.42,0.34-0.93,0.17-1.26-0.08c-0.42-0.34-0.76-0.67-0.93-1.18
					c-1.09-2.1-1.94-4.54-1.51-6.9c0-0.25,0.08-0.5,0.25-0.67c0.17-0.17,1.77-0.25,2.86,2.36
					C300.67,223.02,301.35,224.62,301.26,226.39z"/>
			</g>
			<g>
				<path class="st0" d="M304.12,242.97c0,1.77-0.5,3.62-1.6,5.3c-1.35,1.6-2.52-1.26-2.86-2.27c-0.34-1.09-0.17-3.96,0-5.05
					c0.17-1.26,0.08-2.44,1.01-3.28c0.42-0.42,1.01-0.84,1.6-0.67C303.95,237.5,304.12,241.62,304.12,242.97z"/>
			</g>
			<g>
				<path class="st0" d="M303.45,263.59c-0.17,1.77-0.84,3.45-1.85,4.88c-0.76,1.01-1.68,2.02-2.69,2.86
					c-0.5,0.5-1.26,1.18-2.02,1.01c-0.42-0.08-0.76-0.42-0.93-0.76c-0.25-0.34-0.34-0.67-0.42-1.09c-0.17-0.93-0.25-1.94-0.25-2.86
					c0.08-3.37,1.43-6.65,3.79-9.01c0.25-0.34,0.59-0.59,1.01-0.76c0.25-0.08,0.67-0.08,1.01-0.17c0.08,0,0.25,0,0.34,0.08
					c0.17,0.08,0.17,0.17,0.25,0.25C302.94,259.72,303.7,261.57,303.45,263.59z"/>
			</g>
			<g>
				<path class="st0" d="M295.62,286.23c0.08,1.51-0.17,2.78-0.76,4.21c-0.17,0.42-0.34,0.84-0.59,1.26
					c-1.01,2.02-3.03,3.62-4.97,4.97c-1.43,0.93-2.86,1.77-4.29,2.44c-0.67,0.34-2.02,0.76-2.52-0.17c-0.17-0.34-0.08-0.76,0-1.18
					c0.59-3.11,1.18-6.4,2.78-9.26c1.85-3.53,5.13-6.31,8.75-8c0.17,0,0.34-0.08,0.5,0c0.08,0.08,0.08,0.17,0.17,0.25
					C295.12,282.53,295.62,284.38,295.62,286.23z"/>
			</g>
		</g>
		<g>
			<g>
				<path d="M75.59,292.63c1.25,2.18,2.52,4.35,3.74,6.54c1.62,2.9,3.43,5.71,4.75,8.74c0.96,2.21,1.65,4.68,1.79,7.07
					c0.3,5.38,1.07,10.5,3.64,15.39c0.95,1.81,0.64,4.45,0.42,6.66c-0.17,1.7-2.02,2.14-3.2,0.7c-2.03-2.49-3.99-5.11-5.5-7.93
					c-5.11-9.55-6.6-19.93-6.62-30.62c0-1.23-0.3-2.45-0.31-3.68c-0.01-0.9,0.24-1.8,0.37-2.71
					C74.97,292.75,75.28,292.69,75.59,292.63z"/>
			</g>
			<g>
				<path d="M167.42,209.9c-0.97,4.65-1.66,9.39-3.03,13.92c-0.71,2.33-2.37,4.54-4.09,6.33c-2.05,2.14-3.14,1.69-4.32-1.12
					c-0.25-0.61-0.27-1.32-0.56-1.9c-0.96-1.95-1.8-3.99-3.03-5.75c-2.25-3.24-2.43-4.71-0.33-8.03c1.37-2.18,3.24-3.7,5.81-4.31
					c2.22-0.52,4.43-1.12,6.65-1.65C166.6,206.88,167.34,207.86,167.42,209.9z"/>
			</g>
			<g>
				<path class="st2" d="M165.55,158.57c0.42,2.19,2.69,3.96,4.29,6.06c-0.93,0.67-1.94,1.01-2.95,1.09c-1.43,0.25-3.03,0-4.54-0.67
					c-0.67-0.25-1.18-0.59-1.68-0.93c-1.51-1.18-2.52-2.86-2.95-4.8c-0.08-0.5,0.08-1.18,0.34-1.68c0.25-0.67,0.76-1.26,1.35-1.77
					c0.84-0.84,1.94-1.43,3.11-1.94c1.6-0.59,3.37-0.84,5.05-0.59c1.18,0.08,2.27,0.42,3.2,1.01c-0.59,0.17-1.18,0.25-1.77,0.42
					c-0.67,0.08-1.26,0.25-1.77,0.5C165.97,155.88,165.22,156.81,165.55,158.57z"/>
			</g>
			<g>
				<path d="M159.41,155.88c0.76-0.84,1.85-1.51,3.11-1.94C161.34,154.45,160.25,155.04,159.41,155.88z"/>
			</g>
			<g>
				<path d="M195.62,159.37c-1.36-2.79-3.99-4.23-7.18-4.79c-4.95-0.72-9.18-3.03-12.77-6.46c-1.68-1.6-3.27-3.43-4.95-5.03
					c-8.22-7.58-17.64-9.5-28.17-6.07c-1.04,0.32-2.55,0.64-2.39,2.95c5.11-3.59,10.45-3.51,15.72-1.92
					c5.27,1.6,10.14,4.15,13.25,9.34c-9.74-1.76-19.23-3.19-28.97-2c-7.58,1.04-14.52,3.67-21.07,7.9c-3.59,0-8.3-0.08-12.77-0.08
					c-9.02,7.42-16.92,16.04-23.62,25.62c0.08,0.16,0.24,0.16,0.4,0.24c0.72,0.4,1.6,0.4,2.31,0.16c2.15-0.24,4.39-0.8,6.07-2.08
					c0.56-0.4,1.04-0.96,1.44-1.44c2.79-2.87,5.35-5.91,7.66-9.1c2.08-2.79,4.31-5.43,7.74-6.54c0.32-0.08,0.72-0.16,1.12-0.24
					c0.16,0,0.8,0.08,0.88,0c-2.71,2.39-5.67,4.79-8.3,7.5c-2.71,2.55-5.11,5.35-7.34,8.3c-4.47,5.91-8.7,11.97-12.29,18.52
					c-3.51,6.46-6.3,13.41-8.46,20.43c-0.24,0.8-0.56,1.6-0.8,2.47c-2.39,8.7-2.95,17.56-3.59,26.5
					C68.01,261.84,71.6,279,80.14,295.2c2.47,4.79,4.71,9.74,6.86,14.68c0.72,1.36,1.04,2.79,1.52,3.99
					c-0.08,1.36-0.48,2.63-0.16,3.83c0.72,2.87,1.68,5.67,2.47,8.54c1.92,7.9,6.62,14.44,10.45,21.55c1.68,3.19,3.51,6.3,5.51,9.34
					l0.08,0.08c8.86,7.34,18.75,13.57,29.37,18.36c-0.56-0.64-1.2-1.36-1.76-2.08c-0.8-0.96-1.6-2-0.32-3.19
					c2.08-1.84,1.68-3.83,0.64-5.99c-0.64-1.44-1.84-2.79-2.47-4.39c-0.64-1.6-1.44-3.59-1.12-5.11c0.48-2.08,0.16-3.91-1.28-5.19
					c-2.31-2.08-5.03-3.91-7.66-5.83c-0.8-0.64-1.68-1.28-2.47-1.92c0.16-0.24,0.32-0.56,0.48-0.88c0.72,0.08,1.44,0.32,2.08,0.32
					c0.88,0,1.68-0.24,2.55-0.32c-0.24-0.8-0.4-1.76-0.96-2.31c-0.88-1.12-2.15-1.84-3.19-2.87c-0.48-0.56-0.8-1.44-1.28-2.08
					c0.16-0.16,0.48-0.4,0.72-0.56c1.92,1.76,4.07,3.35,5.91,5.35c2.47,2.55,5.43,4.39,8.94,5.11c0.88,0.16,2,0.32,2.47,0
					c2.31-1.68,4.79-1.04,7.26-1.04c1.76,0.08,3.67,0.32,5.27-0.24c1.36-0.4,3.11-1.76,3.19-2.87c0.48-3.51,2.63-3.51,5.27-3.59
					c1.68,0,3.35-0.32,5.03-0.72c0.8-0.24,1.52-0.8,2.23-1.2c0.08-0.32,0.08-0.72,0.08-1.04c-2.47-1.04-5.03-2.15-7.74-3.03
					c-7.82-2.23-15.8-4.31-23.54-6.78c-7.82-2.47-15.64-4.95-22.43-9.9c-0.8-0.48-1.6-0.96-2.47-1.52c0.16-0.24,0.24-0.48,0.32-0.72
					c2.15,0.56,4.15,1.36,6.22,1.68c3.59,0.64,7.18,1.12,10.69,1.36c0.88,0.08,1.68-0.88,2.55-1.36c-0.56-0.64-0.88-1.68-1.52-2.15
					c-2.47-1.84-4.95-3.59-7.5-5.27c-5.43-3.43-9.82-7.82-13.17-13.25c-1.2-2.15-2.15-4.47-3.43-6.62c-0.4-0.56-1.28-1.12-1.92-1.28
					c-0.4,0-0.96,0.96-1.28,1.6c-0.32,0.64-0.4,1.28-0.64,2h-0.48c-0.08-0.48-0.32-0.88-0.24-1.28c0.24-4.15,0.48-8.3,1.04-12.45
					c1.36-8.7,5.43-16.44,9.02-24.34c1.6-3.59,4.79-1.92,7.34-2.15c2.08-0.32,1.84,1.92,2.15,3.27c0.72,2.95,2.55,3.99,5.27,2.87
					c1.28-0.64,2.47-1.52,3.51-2.55c7.9-8.14,14.21-17.4,18.36-28.01c1.36-3.83,2.63-7.58,4.23-11.17c0.64-1.28,1.68-2.71,2.95-3.35
					c2.55-1.2,5.27-2.15,7.98-3.03c6.07-1.68,11.49-4.47,16.2-8.62c0.88-0.88,2.08-1.36,3.11-1.92c0.16,0.16,0.32,0.4,0.56,0.64
					c-1.6,5.99-4.71,10.93-10.06,14.44c3.51-0.08,6.38-1.28,8.62-3.83c4.31-5.03,6.86-11.01,8.38-17.4
					c0.64-2.63,2.07-4.39,4.87-4.87c5.19-0.8,6.38-2,6.78-7.26C200.17,170.54,198.18,164.8,195.62,159.37z M79.9,269.26
					c-1.6-0.56-1.76-4.63-1.76-5.99c0-1.84,0.48-3.59,1.6-5.35c1.28-1.6,2.47,1.28,2.79,2.31c0.4,1.12,0.24,3.99,0,5.03
					c-0.24,1.28-0.08,2.47-0.96,3.27C81.1,269.02,80.54,269.42,79.9,269.26z M84.93,287.14c-0.16,0.24-1.68,0.32-2.79-2.31
					c-0.64-1.6-1.28-3.19-1.2-4.95c0-0.56,0.16-1.28,0.64-1.6c0.32-0.32,0.8-0.08,1.28,0.16c0.4,0.32,0.64,0.64,0.88,1.2
					c1.04,2.08,1.84,4.47,1.52,6.86C85.17,286.74,85.17,286.98,84.93,287.14z M83.17,247.64c-0.32,0.24-0.64,0.56-1.04,0.72
					c-0.32,0.08-0.64,0.08-1.04,0.08h-0.4c-0.08-0.08-0.16-0.16-0.16-0.24c-1.28-1.68-2-3.51-1.84-5.67
					c0.16-1.68,0.88-3.35,1.92-4.79c0.8-1.04,1.68-2,2.63-2.79c0.56-0.56,1.28-1.2,2.08-1.04c0.4,0.08,0.72,0.32,0.96,0.64
					c0.16,0.48,0.24,0.8,0.32,1.2c0.24,0.96,0.32,1.92,0.24,2.87C86.77,241.97,85.41,245.24,83.17,247.64z M96.98,217.71
					c-2,3.51-5.19,6.31-8.86,7.98c-0.08,0.08-0.32,0.16-0.4,0.08c-0.08-0.08-0.16-0.24-0.16-0.4c-0.56-1.68-1.04-3.51-1.04-5.35
					c0-1.52,0.24-2.79,0.88-4.23c0.16-0.4,0.32-0.8,0.48-1.28c1.12-2,3.11-3.59,4.95-4.95c1.44-0.96,2.95-1.76,4.31-2.39
					c0.72-0.4,2.07-0.8,2.47,0.16c0.24,0.32,0.24,0.72,0.16,1.12C99.14,211.56,98.5,214.92,96.98,217.71z M169.92,154.58
					c-0.32,0-0.64,0.16-0.96,0.24c-0.56,0.16-1.12,0.24-1.76,0.48c-1.2,0.56-2,1.52-1.68,3.27c0.48,2.15,2.71,3.99,4.31,6.07
					c-0.96,0.64-1.92,1.04-2.95,1.12c-0.88,0.16-1.92,0.08-2.87-0.08c-0.24-0.08-0.56-0.24-0.88-0.32c-0.32-0.08-0.56-0.16-0.8-0.24
					c-0.64-0.24-1.2-0.56-1.68-0.96c-1.52-1.2-2.55-2.87-2.95-4.79c-0.08-0.56,0.08-1.2,0.32-1.76c0.32-0.64,0.8-1.2,1.36-1.76
					c0.88-0.8,2-1.44,3.11-1.92c1.6-0.56,3.35-0.88,5.11-0.56c1.12,0.08,2.23,0.4,3.19,0.96c0,0.08,0.08,0.08,0.08,0.08
					C170.56,154.42,170.24,154.5,169.92,154.58z"/>
			</g>
			<g>
				<path class="st0" d="M106.32,153.23c-9.02,7.42-16.92,16.04-23.62,25.62c-1.12-0.56-1.6-1.84-1.28-3.11
					c0.96-6.62,3.35-12.85,6.86-18.59c1.6-2.71,4.55-3.59,7.42-3.75C98.42,153.23,102.25,153.23,106.32,153.23z"/>
			</g>
			<g>
				<path class="st0" d="M144.07,387.06c-1.12,0.08-2.39,0.64-3.43,0.24c-4.15-1.2-7.82-3.43-10.93-6.46c-2-2-4.07-4.07-6.3-5.83
					c-6.86-4.95-12.13-11.01-16.52-17.8c8.86,7.34,18.75,13.57,29.37,18.36c2.39,2.79,4.71,5.51,6.94,8.22
					C143.83,384.66,143.75,386.02,144.07,387.06z"/>
			</g>
			<g>
				<path class="st0" d="M85.26,286.5c-0.08,0.25-0.08,0.5-0.34,0.67c-0.17,0.17-1.68,0.25-2.78-2.36c-0.67-1.6-1.26-3.2-1.18-4.97
					c0-0.5,0.17-1.26,0.59-1.6c0.34-0.25,0.84-0.08,1.26,0.17c0.42,0.34,0.67,0.67,0.93,1.18C84.76,281.7,85.6,284.14,85.26,286.5z"
					/>
			</g>
			<g>
				<path class="st0" d="M82.57,265.29c-0.25,1.26-0.08,2.44-1.01,3.28c-0.42,0.42-1.01,0.84-1.68,0.67
					c-1.6-0.5-1.77-4.63-1.77-5.98c0-1.85,0.5-3.62,1.6-5.3c1.35-1.6,2.52,1.26,2.86,2.27C82.9,261.34,82.74,264.2,82.57,265.29z"/>
			</g>
			<g>
				<path class="st0" d="M86.86,238.61c-0.08,3.37-1.43,6.65-3.7,9.01c-0.34,0.25-0.59,0.59-1.01,0.76
					c-0.34,0.08-0.67,0.08-1.01,0.08h-0.42c-0.08-0.08-0.17-0.17-0.17-0.25c-1.26-1.68-2.02-3.53-1.85-5.64
					c0.17-1.68,0.93-3.37,1.94-4.8c0.76-1.09,1.68-2.02,2.61-2.86c0.59-0.51,1.26-1.18,2.1-1.01c0.42,0.08,0.67,0.34,0.93,0.67
					c0.17,0.42,0.25,0.76,0.34,1.18C86.86,236.68,86.94,237.69,86.86,238.61z"/>
			</g>
			<g>
				<path class="st0" d="M99.74,208.48c-0.59,3.11-1.26,6.4-2.78,9.26c-1.94,3.45-5.13,6.31-8.84,7.91
					c-0.08,0.08-0.34,0.17-0.42,0.08c-0.08-0.08-0.17-0.17-0.17-0.34c-0.5-1.68-1.01-3.54-1.01-5.39c0-1.51,0.25-2.78,0.84-4.21
					c0.17-0.42,0.34-0.84,0.5-1.26c1.09-2.02,3.11-3.62,4.97-4.97c1.43-0.93,2.95-1.77,4.29-2.44c0.76-0.34,2.1-0.76,2.52,0.17
					C99.82,207.64,99.82,208.06,99.74,208.48z"/>
			</g>
		</g>
	</g>
	<g>
		<g>
			<path d="M370.71,238h-28.8v-80.49c-16.41,16.31-35.28,31.29-56.1,44.54l-0.35,0.22l-0.21-0.36l-14.02-24.14l0.33-0.2
				c33.06-20.73,59.82-43.62,79.55-68.06h-71.69V85.26H433.2v24.25h-48.85c-5.37,7.96-9.71,13.89-13.64,18.65v19.53l10.19-13.03
				l0.31,0.2c19.06,12.32,39.22,27.23,59.9,44.31l0.3,0.25l-17.29,22.7l-0.32-0.28c-18.14-15.69-35.99-29.89-53.08-42.24V238z
				 M342.71,237.2h27.21v-79.15l0.63,0.45c17.2,12.39,35.18,26.67,53.44,42.46l16.32-21.42c-20.45-16.87-40.37-31.61-59.23-43.82
				L369.92,150v-22.13l0.09-0.11c3.97-4.79,8.35-10.79,13.81-18.87l0.12-0.17h48.48V86.06H280.21v22.66h72.55l-0.52,0.65
				c-19.77,24.67-46.67,47.77-79.94,68.67l13.43,23.11c20.92-13.34,39.86-28.44,56.3-44.89l0.68-0.68V237.2z"/>
		</g>
		<g>
			<path d="M289.98,414.74l-18.51-24.81l0.14-0.23c10.67-17.97,13.6-35.01,13.6-79.27v-52.91h146.26v51.73h-46.74v28.78h14.78
				v-22.75h26.7v44.21h-41.49v24.41h18.81v-19.95h27.93v50.33h-27.93v-7.53h-64.85v7.53h-27.4v-50.33h27.4v19.95h18.64V359.5h-39.56
				v-44.21h24.78v22.75h14.78v-28.78h-44.89v21.31c0,38.52-6,61.21-22.13,83.73L289.98,414.74z M404.32,413.49h26.34v-48.74h-26.34
				v19.95h-20.4v-26h41.49v-42.61H400.3v22.75h-16.38v-30.38h46.74v-50.14H285.99v52.11c0,44.25-2.92,61.41-13.57,79.45l17.55,23.51
				c15.79-22.22,21.66-44.74,21.66-82.82v-22.1h46.48v30.38h-16.38v-22.75h-23.19v42.61h39.56v26h-20.23v-19.95h-25.81v48.74h25.81
				v-7.53h66.44V413.49z M404.15,290.53h-92.52v-11.65h92.52V290.53z M312.42,289.74h90.93v-10.06h-90.93V289.74z"/>
		</g>
	</g>
</g>
</svg>
