<?xml version="1.0" encoding="utf-8"?>
<!-- Generator: Adobe Illustrator 25.0.0, SVG Export Plug-In . SVG Version: 6.00 Build 0)  -->
<svg version="1.1" id="Capa_1" xmlns="http://www.w3.org/2000/svg" xmlns:xlink="http://www.w3.org/1999/xlink" x="0px" y="0px"
	 viewBox="0 0 500 500" style="enable-background:new 0 0 500 500;" xml:space="preserve">
<style type="text/css">
	.st0{fill:#6600FF;}
	.st1{fill:#1D1D1B;}
	.st2{fill:#FFFFFF;}
</style>
<g>
	<g>
		<path class="st0" d="M477.07,205.12c0,73.51-58.14,133.08-129.89,133.08c-13.08,0-25.68-1.98-37.57-5.66
			c-13.86-4.28-26.75-10.87-38.23-19.35c-32.77-24.14-54.11-63.54-54.11-108.08C217.26,131.6,275.43,72,347.18,72
			C418.92,72,477.07,131.6,477.07,205.12z"/>
		<g>
			<path class="st0" d="M309.6,332.54h-8.33c-3.9,0-7.12,3.29-7.12,7.29v26.96h-54.08v-26.96c0-4-3.12-7.29-7.12-7.29h-14.17
				c-3.99,0-7.12-3.29-7.12-7.29v-2.91c0-4,3.12-7.29,7.12-7.29h31.3c3.93,0,7.12,3.29,7.12,7.29v14.61c0,4,3.15,7.29,7.12,7.29
				c1.97,0,3.78-0.9,5.02-2.17c1.25-1.28,2.03-3.13,2.03-5.12v-23.76C282.86,321.67,295.75,328.26,309.6,332.54z"/>
			<path class="st2" d="M362.16,294.62c-1.59,3.04-2.53,6.56-2.53,10.26v1.44h-24.15c-3.93,0-7.15,3.29-7.15,7.29v11.64
				c0,4-3.18,7.29-7.12,7.29H309.6c-13.86-4.28-26.75-10.87-38.23-19.35v-8.31c0-4.09,3.21-7.29,7.12-7.29h11.42
				c3.93,0,7.12-3.29,7.12-7.32v-8.73c0-4.09-3.18-7.29-7.12-7.29H265.6c0.06-0.96,0.16-1.92,0.16-2.97c0-2.81-0.56-5.6-1.5-8.25
				c3.37-1.92,6.96-4.89,8.77-9.21h16.88c3.93,0,7.12-3.29,7.12-7.32v-13.05h25.59V251c-1.09,1.76-1.87,3.68-2.34,5.76
				c-9.77,0.48-17.51,8.83-17.51,18.93c0,10.42,8.27,18.93,18.44,18.93H362.16z"/>
			<g>
				<path d="M338.29,247.98c-4.04,0-7.63,1.9-9.96,4.9c-1.79,2.25-2.85,5.1-2.85,8.22v1.46h-2.85v0.09
					c-0.46-0.06-0.94-0.09-1.42-0.09c-7.09,0-12.81,5.86-12.81,13.12c0,7.26,5.72,13.12,12.81,13.12h8.54h31.3
					c0.4,0,0.82-0.03,1.22-0.09c0.2,0,0.43-0.03,0.63-0.06c0.28-0.03,0.6-0.09,0.88-0.18c0.03,0,0.09,0,0.11-0.03
					c0.26-0.03,0.51-0.12,0.77-0.2c0.31-0.06,0.6-0.18,0.88-0.26c0.23-0.12,0.48-0.2,0.71-0.32c0.06-0.03,0.14-0.06,0.2-0.12
					c0.03,0,0.09-0.03,0.11-0.06c0.26-0.09,0.48-0.23,0.74-0.38c0.31-0.15,0.6-0.35,0.91-0.58c0.2-0.12,0.43-0.26,0.63-0.47
					c0.09-0.03,0.17-0.09,0.23-0.18c0.26-0.2,0.51-0.41,0.74-0.64c0.34-0.32,0.65-0.67,0.94-1.02c0.34-0.41,0.65-0.82,0.94-1.25
					c1.37-2.1,2.16-4.61,2.16-7.29c0-1.95-0.4-3.79-1.17-5.45c-4.33-1.4-8.08-4.08-10.84-7.64c-0.26-0.03-0.54-0.03-0.8-0.03h-7.54
					c-1.45,0-2.5,0-2.5,0c0.06-0.47,0.09-0.96,0.09-1.46C351.1,253.84,345.37,247.98,338.29,247.98z"/>
			</g>
			<g>
				<path d="M461.91,302.65c0-0.17-0.03-0.35-0.06-0.52c-0.03-0.2-0.06-0.41-0.11-0.61c0-0.03-0.03-0.06-0.03-0.09
					c-0.11-0.55-0.26-1.11-0.43-1.63c-0.14-0.5-0.34-0.96-0.54-1.43c-0.17-0.41-0.37-0.79-0.57-1.17c-0.14-0.29-0.28-0.55-0.46-0.82
					c0-0.03-0.03-0.03-0.03-0.06c-0.14-0.2-0.28-0.44-0.43-0.61c-0.14-0.23-0.28-0.44-0.46-0.67c-0.17-0.26-0.37-0.5-0.57-0.73
					l-0.14-0.15c-0.37-0.41-0.74-0.82-1.14-1.17c-0.2-0.18-0.4-0.38-0.63-0.55c-0.17-0.15-0.34-0.29-0.51-0.41
					c-0.03-0.03-0.03-0.03-0.06-0.06c-0.03-0.03-0.09-0.06-0.11-0.09c-0.06-0.06-0.14-0.09-0.23-0.17
					c-0.43-0.29-0.85-0.58-1.31-0.85c-0.46-0.26-0.91-0.5-1.39-0.7c-0.23-0.12-0.48-0.2-0.71-0.29c-0.46-0.2-0.94-0.35-1.42-0.5
					c0.09-0.67,0.11-1.34,0.11-2.04c0-6.36-2.65-12.07-6.89-16.04c-0.37-0.35-0.77-0.7-1.17-1.02c-0.06-0.06-0.14-0.09-0.2-0.15
					c-0.11-0.12-0.23-0.2-0.37-0.32c-0.28-0.23-0.63-0.44-0.94-0.67c-0.06-0.03-0.11-0.09-0.17-0.12c-0.31-0.2-0.63-0.41-0.94-0.58
					c-0.03-0.03-0.06-0.03-0.09-0.06c-0.03-0.03-0.06-0.03-0.09-0.06c-0.09-0.03-0.14-0.09-0.23-0.12c-0.31-0.2-0.65-0.35-1-0.52
					c-0.06-0.03-0.14-0.06-0.2-0.09c-0.4-0.23-0.77-0.41-1.17-0.55c-0.63-0.26-1.22-0.5-1.85-0.67c0,0-0.03,0-0.06,0
					c-0.06-0.03-0.11-0.03-0.17-0.06c-0.51-0.17-1.08-0.29-1.62-0.41c-0.11-0.03-0.23-0.06-0.34-0.06c-0.51-0.12-1.05-0.2-1.59-0.23
					c-0.14-0.03-0.26-0.06-0.4-0.03c-0.11,0-0.2-0.03-0.31-0.03c-0.51-0.06-1.05-0.09-1.57-0.09c-0.57,0-1.17,0.03-1.71,0.09
					c-0.09,0-0.14,0.03-0.23,0.03c-0.11-0.03-0.2,0-0.31,0.03h-0.11c-0.48,0.03-0.94,0.12-1.42,0.2c-0.03,0.03-0.06,0.03-0.08,0.03
					c-0.11,0-0.26,0.03-0.37,0.06c-0.6,0.12-1.17,0.26-1.74,0.44c-0.09,0.03-0.14,0.03-0.2,0.06c-0.6,0.18-1.2,0.41-1.76,0.64
					c-0.51,0.2-1.02,0.44-1.51,0.7c-0.4,0.2-0.8,0.41-1.17,0.64c-0.34,0.17-0.68,0.41-1.02,0.64c-0.57,0.38-1.11,0.79-1.65,1.2
					c-0.43,0.35-0.83,0.7-1.22,1.08c-2.99,2.86-5.18,6.59-6.18,10.79c-0.2-0.35-0.4-0.67-0.65-0.99c-0.28-0.44-0.63-0.87-0.97-1.28
					c-0.14-0.18-0.28-0.32-0.43-0.5c-0.26-0.32-0.54-0.61-0.85-0.87c-0.2-0.2-0.4-0.38-0.6-0.53c-0.85-0.79-1.82-1.43-2.85-1.98
					c-2.13-1.11-4.55-1.72-7.11-1.72c-3.79,0-7.26,1.37-9.96,3.7c-0.4,0.32-0.74,0.67-1.11,1.02c-0.63,0.64-1.22,1.37-1.74,2.13
					c-0.37,0.52-0.68,1.05-0.97,1.6c-0.23,0.44-0.46,0.87-0.63,1.34c-0.17,0.38-0.31,0.79-0.43,1.2c-0.09,0.18-0.11,0.35-0.17,0.53
					c-0.14,0.47-0.26,0.93-0.34,1.43c0,0.03,0,0.09-0.03,0.12c-0.06,0.47-0.11,0.87-0.17,1.34c0,0.09-0.03,0.18-0.03,0.26
					c-8.03,0.67-14.31,7.55-14.31,15.95c0,0.5,0.03,0.99,0.06,1.46c0.09,1.05,0.23,2.01,0.46,2.92c0.26,1.05,0.63,2.04,1.05,2.92
					c3.93,7.87,13.89,8.66,15.34,8.66h41.18H445c0.46,0.06,0.94,0.09,1.42,0.09c8.65,0,15.65-7.17,15.65-16.04
					c0-0.5-0.03-0.99-0.08-1.49C461.99,303.12,461.97,302.89,461.91,302.65z"/>
			</g>
			<g>
				<path d="M464.93,230.49c-0.17,0-0.34,0-0.51,0c0.34-0.9,0.51-1.9,0.51-2.92c0-1.95-1-3.79-2.65-5.34
					c-0.65-0.64-1.42-1.22-2.31-1.75c-0.8-0.5-1.65-0.93-2.56-1.28c-0.34-0.15-0.68-0.26-1.02-0.38
					c-1.48-6.79-7.43-11.66-14.23-11.66c-6.8,0-12.75,4.87-14.23,11.66c0,0-1.36,0.11-1.49,0.13c-0.49,0.09-0.97,0.22-1.43,0.39
					c-0.91,0.34-1.76,0.84-2.51,1.47c-1.5,1.27-2.55,3.06-2.94,5.01c-0.25,1.26-1.66,2.88-2.43,2.29c-1.34-1.01-2.74-1.93-4.2-2.74
					c-1.82-1.01-3.74-1.85-5.72-2.47c-2.24-0.7-4.57-1.11-6.92-1.17c-0.19,0-0.37-0.01-0.56-0.01c0,0-0.26,0-0.26,0
					c-11.47,0.12-18.61,7.38-19.92,8.75c-3.47,0-6.72,1.05-9.42,2.92c-0.51,0.35-1,0.7-1.45,1.11c-0.09,0.06-0.2,0.15-0.28,0.23
					c-0.34,0.32-0.68,0.64-1,0.99c-0.2,0.17-0.4,0.38-0.54,0.58c-0.34,0.41-0.68,0.82-1,1.22c-0.11,0.15-0.2,0.29-0.31,0.44
					c-0.28,0.41-0.54,0.82-0.77,1.25c-1.48,2.57-2.31,5.54-2.31,8.75c0,3.38,0.94,6.53,2.56,9.18c2.48,4.11,6.6,7.11,11.41,8.02
					c1,0.2,2.05,0.29,3.1,0.29h2.85h2.85h17.07h2.85h2.85h4.75c4.61-3.7,10.39-5.83,16.59-5.83c6.23,0,12.01,2.19,16.59,5.83h18.98
					c6.15,0,11.55-3.35,14.57-8.37c0.03-0.09,0.09-0.15,0.11-0.23c0.63-1.52,1.22-3.06,1.88-4.67c0.34-1.34,0.51-2.77,0.51-4.23
					C482,238.33,474.35,230.49,464.93,230.49z"/>
			</g>
			<g>
				<path d="M196.32,274.92h10.11v13.88h-54.49c-8.49-0.1-14.32-5.6-16.29-12.41v-1.47h35.36v-27.44h25.31V274.92z"/>
			</g>
			<g>
				<path d="M136.59,272.87h-1.62c-0.28-3.13,0.22-6.36,1.62-9.34V272.87z"/>
			</g>
			<g>
				<path d="M268.5,247.23c0.06,0.16,0.06,0.35,0.06,0.51v0.42c0.09,1.73-0.69,3.42-1.81,4.96c-0.16,0.22-0.25,0.51-0.41,0.7
					c-1.56,1.98-3.68,3.45-5.52,4.41c-1.15,0.64-2.15,1.06-2.9,1.22c-0.12,0.06-0.28,0.1-0.37,0.13c-0.28,0.26-0.37,0.67-0.37,1.12
					c0.03,0.51,0.16,1.02,0.34,1.47c1.78,2.81,2.53,5.95,2.5,9.05c0,1.09-0.06,2.08-0.25,3.01c-0.06,0.45-0.22,0.83-0.31,1.28
					c-0.12,0.58-0.22,1.12-0.41,1.63c-0.31,1.02-0.78,2.01-1.31,2.94c-1.15,2.05-2.68,3.81-4.53,5.21
					c-2.12,1.57-4.52,2.78-7.24,3.26c-1,0.19-2,0.29-3.06,0.26h-35.7v-14.68H197.1v-27.44h-26.87v27.44h-35.08
					c-0.03-0.16-0.06-0.29-0.06-0.45h2.28V262c0.84-1.5,1.93-2.94,3.31-4.25c-0.47-5.08,0.16-11.03,3.74-15.03
					c3.06-3.93,7.8-6.2,12.92-6.46c0.62-0.16,0.59-0.58,1.09-1.15c6.96-9.46,22.69-10.65,30.8,0.29c0.78,0.93,0.75,0.74,1.25-0.61
					c3.03-8.06,10.24-14.13,18.54-15.57c3-0.51,6.05-0.42,8.99,0.22c5.31,1.15,10.24,4.09,13.7,8.44c0.12,0.13,0.22,0.29,0.34,0.42
					c1.97,2.59,3.56,5.66,4.46,9.3c3.4-2.59,8.21-4.19,13.54-4.19c10.24,0,18.51,5.85,18.51,13.11
					C268.57,246.75,268.57,247,268.5,247.23z"/>
			</g>
		</g>
		<g>
			<path d="M195.73,187.5c4.4,8.67,8.33,17.39,11.7,26.09c-4.12,0.77-7.99,2.49-11.39,4.92c-2.75-4.54-4.31-9.91-4.31-15.7
				C191.73,197.22,193.17,192.01,195.73,187.5z"/>
		</g>
		<g>
			<path d="M462.05,202.81c0,3.52-0.53,6.97-1.72,10.17c-3.37-6.97-10.39-11.7-18.16-11.7c-8.05,0-15.32,5.05-18.54,12.37
				c-3.37,1.12-6.18,3.42-7.9,6.49c-4.15-2.33-9.55-4.25-16.04-4.25h-0.31c-10.8,0.06-18.38,5.44-22.22,8.89
				c-6.18,0.64-11.67,3.93-15.35,8.67h-95.75c-1.25-0.96-2.37-1.69-3.06-2.08c-4.15-2.65-8.93-3.93-14.17-3.93
				c-1.5,0-2.59,0.06-3.59,0.16c-2.03,0.22-3.99,0.54-6.02,1.18c-2.9-5.44-7.36-9.75-12.7-12.5c-2.78-1.44-5.84-2.46-9.02-2.94
				c-1.47-0.22-2.93-0.35-4.43-0.35c-1.65,0-3.28,0.13-4.84,0.45c-3.5-8.89-7.49-17.84-12.05-26.73c1.09-1.82,2.4-3.52,3.84-5.05
				c5.06-5.53,12.26-9.05,20.16-9.46c0-14.96,6.49-28.39,16.73-37.51c0.03,0,0.03,0,0.03-0.03c3.43-3.01,7.27-5.56,11.42-7.51
				c6.12-2.97,12.98-4.57,20.19-4.57c0.94,0,1.87,0.1,2.81,0.16v-0.16h91.1c8.8,1.6,16.76,5.88,23.25,11.86
				c6.46,5.98,11.42,13.69,14.23,22.22c3.18-3.04,7.58-4.89,12.36-4.89c10.17,0,18.44,8.51,18.44,18.99c0,0.48,0,0.96-0.06,1.44
				c0.06,0,0.06,0,0.06,0h1.4C448.7,172.18,462.05,185.9,462.05,202.81z"/>
		</g>
		<polygon points="321.65,409.97 211.68,409.97 191.72,366.79 341.13,366.79 		"/>
	</g>
	<g>
		<g>
			<path d="M134.28,97.9l-0.09,0.29c-1.65,6.97-4.34,14.04-8.02,21.04l-0.22,0.38l17.66,7.35l-6.12,9.82l0.66,0.06
				c9.36,0.99,14.45,1.41,17.54,1.41c6.37,0,9.64-13.08,9.99-39.94V97.9H134.28z M155.69,137.45c-3,0-7.9-0.38-16.85-1.34l5.93-9.53
				l-17.69-7.39c3.53-6.81,6.18-13.72,7.8-20.5h30.02C164.43,130.71,159.65,137.45,155.69,137.45z M153.78,183.53
				c-6.21-9.62-13.79-19.06-22.53-28.01L131,155.3l-19.32,13.53l-0.37,0.29l0.31,0.32c8.3,8.86,15.85,18.48,22.44,28.62l0.25,0.35
				l19.66-14.55L153.78,183.53z M134.5,197.25c-6.49-9.91-13.86-19.35-21.97-28.01l18.38-12.92c8.52,8.73,15.92,17.94,22,27.34
				L134.5,197.25z M134.28,97.9l-0.09,0.29c-1.65,6.97-4.34,14.04-8.02,21.04l-0.22,0.38l17.66,7.35l-6.12,9.82l0.66,0.06
				c9.36,0.99,14.45,1.41,17.54,1.41c6.37,0,9.64-13.08,9.99-39.94V97.9H134.28z M155.69,137.45c-3,0-7.9-0.38-16.85-1.34l5.93-9.53
				l-17.69-7.39c3.53-6.81,6.18-13.72,7.8-20.5h30.02C164.43,130.71,159.65,137.45,155.69,137.45z M208.4,213.85
				c-0.06-0.13-0.09-0.29-0.16-0.42c-0.28,0-0.56,0.06-0.81,0.16c0.03,0.06,0.06,0.16,0.09,0.22l-21.6,10.39
				c-3.37-8.57-7.15-17.04-11.55-25.87l-0.66-1.31l-0.06,1.47c-0.53,10.1-1.37,17.24-2.56,21.17c-2.62,7.74-6.24,9.56-21.47,10.84
				c-4.56,0.48-11.42,0.67-22.28,0.67c-9.05,0-16.48-0.16-22.1-0.51c-20.78-0.86-23.66-3.96-23.66-25.45v-21.26l-0.78-0.13
				c-5.06,16.08-11.64,29.93-20.13,42.27l-19.63-14.65c8.18-12.69,14.42-25.58,18.54-38.28l0.25-0.77l-6.58,2.24l-8.43-21.74
				c16.91-4.92,31.15-12.47,42.29-22.48l0.5-0.45l-0.66-0.22c-8.58-2.78-17.01-5.24-25.78-7.45l10.08-19.86
				c13.29,3.2,23.19,5.88,31.08,8.54l0.31,0.1l0.16-0.26c2.15-3.93,3.9-8.09,5.18-12.41l0.16-0.51H55.67V75.84h137.22
				c-0.03,25.23-0.91,43.33-2.75,55.29c-3.87,25.13-10.58,29.39-24.15,29.39c-5.06,0-15.79-0.64-29.49-1.73l-0.53-19.57l-5.31,8.35
				c-6.55-3.1-12.86-5.88-18.76-8.31l-0.25-0.1l-0.19,0.19C98.8,153,82.63,163.67,63.37,171.06l-0.94,0.38l19.16,7.61v-10.71h26.5
				v33.7c0,6.56,0.41,7.23,4.96,7.77c2.78,0.35,7.12,0.54,12.92,0.54c5.34,0,9.67-0.19,12.92-0.51c4.87-0.38,7.8-1.53,8.74-3.39
				c0.78-1.66,1.31-6.46,1.9-17.14l21.97,3.39l-0.37-0.7c-2.87-5.15-5.31-9.27-7.68-13.01l21.6-11.06
				c3.81,6.46,7.4,13.01,10.67,19.57c0.16-0.26,0.31-0.54,0.47-0.8c-3.28-6.56-6.83-13.05-10.67-19.51l-0.19-0.32l-22.63,11.61
				l-0.37,0.19l0.22,0.38c2.34,3.65,4.71,7.67,7.49,12.63l-21.25-3.29l-0.03,0.45c-0.41,7.83-0.9,15.35-1.84,17.24
				c-0.78,1.6-3.56,2.62-8.08,2.97c-3.25,0.32-7.55,0.51-12.86,0.51c-5.77,0-10.08-0.19-12.8-0.51c-3.99-0.51-4.31-0.54-4.31-7
				v-34.5H80.82v10.36l-16.2-6.46c18.85-7.39,34.73-17.91,47.22-31.34c5.9,2.4,12.23,5.21,18.79,8.31l0.31,0.16l4.31-6.78l0.5,17.71
				l0.34,0.03c13.89,1.12,24.78,1.76,29.9,1.76c14.04,0,20.97-4.35,24.9-30.06c1.87-12.09,2.78-30.35,2.78-55.8v-0.42H54.89V98.7
				h52.21c-1.19,3.9-2.84,7.83-4.81,11.42c-7.93-2.62-17.85-5.34-31.11-8.51l-0.31-0.06l-10.83,21.3l0.47,0.13
				c8.71,2.17,17.07,4.57,25.59,7.32c-11.08,9.78-25.15,17.14-41.91,21.97l-0.41,0.1l9.05,23.28l5.77-1.95
				c-4.12,12.47-10.33,25.13-18.41,37.64L40,211.64l20.53,15.35l0.34,0.26l0.22-0.35c8.21-11.9,14.7-25.17,19.72-40.45v18.77
				c0,21.94,3.18,25.36,24.37,26.25c5.65,0.35,13.11,0.51,22.16,0.51c10.86,0,17.76-0.19,22.34-0.7
				c14.57-1.18,19.26-2.81,22.16-11.35c1.12-3.84,1.97-10.52,2.5-19.89c4.18,8.44,7.77,16.6,11.02,24.85l0.16,0.38l23-11.06
				L208.4,213.85z M138.15,136.85c9.36,0.99,14.45,1.41,17.54,1.41c6.37,0,9.64-13.08,9.99-39.94V97.9h-31.4l-0.09,0.29
				c-1.65,6.97-4.34,14.04-8.02,21.04l-0.22,0.38l17.66,7.35l-6.12,9.82L138.15,136.85z M144.76,126.58l-17.69-7.39
				c3.53-6.81,6.18-13.72,7.8-20.5h30.02c-0.47,32.01-5.24,38.75-9.21,38.75c-3,0-7.9-0.38-16.85-1.34L144.76,126.58z"/>
			<path class="st2" d="M208.24,213.43c-0.28,0-0.56,0.06-0.81,0.16c-3.37-8.7-7.3-17.43-11.7-26.09c0.16-0.26,0.31-0.54,0.47-0.8
				C200.75,195.59,204.75,204.54,208.24,213.43z"/>
		</g>
		<g>
			<path d="M108.78,309.1v74.31h1.75c3.18,0,3.5-0.38,3.5-4.09V309.1H108.78z M113.24,379.32c0,3.29,0,3.29-2.72,3.29h-0.97V309.9
				h3.68V379.32z M206.43,288.8v8.89h-10.11v76.9c0,0.7,0,1.37-0.03,2.08v0.03c-0.03,10.3-0.56,20.34-4.18,24.69
				c-3.65,4.25-13.2,4.6-22.69,4.6c-5.93,0-13.2-0.26-23.5-0.83l-1.31-22.77c6.52,0.45,13.29,0.86,18.79,0.86
				c7.24,0,7.61-0.38,7.61-7.61v-19.06l-19.72,7.45c-5.21-15.67-11.58-31.18-19.44-47.48l-0.75,0.16v70.16
				c0,14.49-3.74,19.12-15.42,19.12c-5.34,0-9.61,0-12.83-0.13l-0.16-6.71H94.3V309.1h-5.24v90.04H74.55V309.1H69.3v97.08H49.67
				V287.93h23.06l0.09-0.29c0.5-1.57,1.72-6.36,3.59-14.26l0.12-0.51H45.71v-22.03h90.88v12.69c0.22-0.54,0.47-1.06,0.78-1.53
				v-11.96H44.93v23.63h30.61c-1.72,7.19-2.84,11.7-3.37,13.46H48.89v119.85h21.19V309.9h3.68v90.04h16.07V309.9h3.68v90.04h8.39
				l0.19,6.65l0.34,0.03c3.28,0.16,7.68,0.16,13.23,0.16c12.11,0,16.2-5.02,16.2-19.92v-68.43c7.58,15.83,13.73,30.98,18.82,46.24
				l0.12,0.38l19.41-7.32v17.91c0,6.81,0,6.81-6.83,6.81c-5.59,0-12.51-0.45-19.19-0.9l-0.44-0.03l1.4,24.01l0.03,0.35l0.34,0.03
				c10.49,0.61,17.85,0.86,23.87,0.86c9.64,0,19.41-0.35,23.28-4.86c3.59-4.35,4.28-13.69,4.37-23.57c0.03-1.25,0.03-2.53,0.03-3.77
				v-76.1h10.11v-9.69H206.43z M150.69,305.3c6.65,14.17,13.04,30.15,19.54,48.83l0.78-0.13v-56.31h-35.36v-21.3
				c-0.22-0.74-0.41-1.5-0.5-2.27h-0.28v24.37h35.36v53.21c-6.3-17.91-12.51-33.35-19.01-47.1l-0.16-0.35l-19.19,8.7v-25.8h-31.8
				c1.37-5.05,2.34-9.43,3.12-12.98l0.09-0.48h31.8c-0.06-0.26-0.09-0.51-0.12-0.8H102.7l-0.25,1.12
				c-0.81,3.65-1.81,8.19-3.25,13.43l-0.16,0.51h32.05v26.25L150.69,305.3z M110.53,383.41c3.18,0,3.5-0.38,3.5-4.09V309.1h-5.24
				v74.31H110.53z M109.56,309.9h3.68v69.42c0,3.29,0,3.29-2.72,3.29h-0.97V309.9z M108.78,309.1v74.31h1.75
				c3.18,0,3.5-0.38,3.5-4.09V309.1H108.78z M113.24,379.32c0,3.29,0,3.29-2.72,3.29h-0.97V309.9h3.68V379.32z M108.78,309.1v74.31
				h1.75c3.18,0,3.5-0.38,3.5-4.09V309.1H108.78z M113.24,379.32c0,3.29,0,3.29-2.72,3.29h-0.97V309.9h3.68V379.32z"/>
			<path d="M137.37,262v11.67h-2.28c-0.06-0.26-0.09-0.51-0.12-0.8h1.62v-9.34C136.81,262.99,137.06,262.48,137.37,262z"/>
			<path class="st2" d="M207.21,274.12v14.68h-0.78v-13.88h-10.11v-27.44h-25.31v27.44h-35.36v1.47c-0.22-0.74-0.41-1.5-0.5-2.27
				h35.08v-27.44h26.87v27.44H207.21z"/>
		</g>
	</g>
</g>
</svg>
